<svg width="100" height="97" viewBox="0 0 100 97" fill="none" xmlns="http://www.w3.org/2000/svg">
<path d="M85.6777 25.0285H99.1088C99.8025 25.0285 100.254 26.8628 99.7156 27.7076C99.6434 27.8213 99.0193 28.304 98.9752 28.304H62.4236V61.9209C64.137 60.166 66.5425 59.7988 68.5699 60.8021C71.2749 62.1416 73.0029 67.7824 76.5819 64.4086C79.0877 62.0451 79.9724 59.3419 83.8427 60.4108C86.5356 61.1555 87.5273 64.3603 89.5253 65.1482C92.6766 66.3911 93.7604 62.2761 96.1887 60.9107C97.028 60.4384 98.9779 59.8022 99.6688 60.7659C100.268 61.6003 99.9628 63.1708 99.0808 63.4346C97.7871 63.8225 97.5158 63.4777 96.305 64.681C93.8687 67.1031 92.9292 69.346 89.2526 68.4254C85.8327 67.5686 84.5016 61.4951 80.6379 64.1241C78.4141 65.6378 77.9571 68.5995 74.5104 68.6478C71.0437 68.696 70.5559 66.1946 68.2625 64.2983C64.7437 61.39 63.2656 66.4291 60.5994 67.9272C58.9863 68.834 56.9697 68.7995 55.3833 67.8099C52.8494 66.2291 51.5263 61.4831 48.0008 64.2603C45.7302 66.0481 45.2438 68.6978 41.7824 68.6478C38.297 68.5978 37.8492 65.7119 35.5519 64.0845C32.0986 61.6365 30.702 66.5308 28.124 67.9272C26.4294 68.846 24.3646 68.815 22.7248 67.7013C20.4408 66.1498 19.6496 62.514 16.4489 63.7294C14.8104 64.35 13.8896 66.5963 12.3968 67.6393C10.7797 68.7684 8.47836 68.8702 6.79712 67.9065C5.11588 66.9428 3.92646 64.2207 2.2078 63.6552C1.25492 63.3415 -0.265948 63.5639 0.0400961 61.5313C0.34614 59.4988 2.78113 60.3384 3.80083 60.9107C5.82687 62.0468 6.9615 65.3206 9.30027 65.3809C11.5535 65.4395 12.3246 63.0967 13.9457 61.7072C15.7606 60.1505 17.7399 59.8229 19.7873 60.8021C21.9978 61.8589 23.2193 65.3723 25.6035 65.3826C28.4675 65.3964 29.4511 60.9848 32.2188 60.5401V28.3023H1.148C0.351486 28.3023 -0.19779 26.9007 0.1136 25.9319C0.167058 25.7664 0.700296 25.0268 0.747071 25.0268H32.2202C32.1667 20.7549 32.128 16.6416 33.3588 12.6179C37.4643 -0.80648 51.1241 -4.34056 58.9008 6.05137C60.6609 4.09297 62.5493 2.26559 64.7597 1.23295C72.062 -2.17702 80.1288 1.67772 83.8294 10.4302C84.5363 12.1007 85.6777 15.8503 85.6777 17.7001V25.0268V25.0285ZM57.1367 8.40973C56.6289 7.56844 55.8604 6.80301 55.1695 6.19963C46.5722 -1.29608 35.4169 6.21859 34.7541 19.2464L34.7728 60.3539C35.8219 60.4573 36.6344 61.2486 37.5659 61.7486L37.5619 18.5586C38.619 6.71854 50.2701 2.55521 55.9433 11.9248L57.3545 8.58212C57.3465 8.47179 57.1795 8.47696 57.1394 8.40973H57.1367ZM80.4656 25.0285H83.0716C83.2186 25.0285 83.2627 24.6079 83.2787 24.4338C83.669 20.1498 82.962 14.4746 81.1084 10.8388C75.641 0.119279 63.0544 0.927809 58.5867 12.4076C58.1564 13.5126 57.2115 16.745 57.2115 17.8742V65.1964C58.1203 65.493 59.0973 65.4412 59.8898 64.7344L59.8791 19.4171C60.5112 6.68233 73.071 2.04148 78.7041 12.561C79.3563 13.7781 80.4669 16.9605 80.4669 18.3896V25.0268L80.4656 25.0285ZM54.6723 25.0285C54.7284 22.9374 54.6001 20.8204 54.667 18.7293C54.6937 17.8949 55.0278 16.645 54.8795 15.8899C54.3355 13.1075 50.8434 10.3009 48.7238 10.032C44.5475 9.50271 39.9715 13.7902 39.9715 19.4257V24.77C39.9715 24.7889 40.1573 25.0285 40.172 25.0285H54.6723ZM77.9263 25.0285V18.3914C77.9263 17.6828 77.1913 15.5951 76.8799 14.9142C74.3219 9.32686 68.308 8.30629 64.709 12.892C63.7948 14.0574 62.4236 17.0881 62.4236 18.7361V25.0285H77.9263ZM54.6723 28.304H39.9715V33.6483H54.6723V28.304ZM54.6723 36.9238H39.9715V42.1818C39.9715 42.2007 40.1573 42.4404 40.172 42.4404H54.6723V36.9238ZM54.6723 51.0601V45.8021C54.6723 45.7831 54.4865 45.5435 54.4718 45.5435H40.172C40.1573 45.5435 39.9715 45.7831 39.9715 45.8021V51.0601H54.6723ZM54.6723 54.3356H39.9715V64.5931C39.9715 64.8672 41.2638 65.3171 41.5231 65.3499C43.9955 65.6671 44.8214 62.957 46.5615 61.5417C49.2744 59.335 52.379 60.1022 54.6736 62.7829V54.3356H54.6723Z" fill="#ED1C24"/>
<path d="M5.83507 91.1279C6.80665 92.1536 7.35192 93.4328 8.76453 93.6431C12.2526 94.162 13.108 89.1522 16.8005 88.6644C21.0491 88.1023 21.3097 91.5347 24.04 93.2483C27.3544 95.3274 28.7242 90.7279 31.194 89.3022C32.8458 88.3489 34.9814 88.4178 36.5892 89.4746C38.9359 91.0158 39.401 94.1137 42.5791 93.6448C44.1146 93.419 44.8617 91.6451 45.9228 90.5452C48.0852 88.3058 51.0133 87.9317 53.3828 89.8797C54.599 90.8796 55.8566 93.3724 57.2919 93.6293C60.1586 94.1413 60.5421 92.0623 62.4372 90.2969C64.097 88.7506 65.8959 88.2541 67.9059 88.9023C71.4287 90.0366 72.7892 96.8324 77.1273 92.1812C79.4514 89.6901 80.8373 87.6214 84.3173 88.935C87.1786 90.0159 87.8201 94.0344 91.0957 93.6517C93.5922 93.3587 94.6921 88.8161 98.3032 88.6368C100.478 88.5299 100.416 91.4916 98.946 91.8812C97.246 92.3329 97.2741 92.0071 95.8334 93.5552C93.6965 95.8515 92.8304 97.3875 89.635 96.9014C85.9478 96.3394 84.1329 89.1178 80.2078 92.8794C77.7193 95.2653 77.277 97.4168 73.4668 96.8979C69.4575 96.3531 67.9299 88.6523 63.5651 93.3035C61.3159 95.6998 60.5515 97.391 57.1609 96.9014C54.1379 96.4635 52.8736 92.4088 50.8342 91.9605C47.6776 91.2692 46.9907 94.6757 44.6572 96.1497C43.131 97.1151 41.2012 97.2151 39.6162 96.4324C36.68 94.9809 35.0763 89.1764 31.2234 93.1294C28.8699 95.5446 28.3006 97.4065 24.6882 96.8962C20.8299 96.3514 19.3972 89.1091 15.1861 92.957C12.7885 95.1464 12.4491 97.2858 8.7632 96.9255C5.30717 96.5876 4.50397 92.6398 2.1612 91.995C1.32325 91.764 -0.0305572 92.045 0.00819945 90.2883C0.0536383 88.2334 1.73889 88.5351 2.84813 88.8661C4.05894 89.2281 4.90891 90.147 5.83908 91.1279H5.83507Z" fill="#ED1C24"/>
<path d="M22.5436 77.5105C24.3451 79.4086 25.6321 80.6171 27.9108 78.5259C30.458 76.1883 30.7841 74.004 34.6918 74.5109C38.8281 75.0453 40.0175 82.9875 44.7913 77.876C46.9055 75.6125 47.523 74.1402 50.7358 74.5023C54.0769 74.8798 55.1474 79.1173 57.561 79.4879C60.5506 79.9465 61.1974 76.6762 63.464 75.247C64.882 74.3523 66.8599 74.2195 68.3407 74.8919C71.0977 76.1435 72.9233 81.7394 76.3673 78.7897C78.9774 76.5538 79.2233 74.0523 83.2099 74.5023C86.5349 74.8781 87.7297 79.1035 89.8987 79.4931C93.1783 80.0809 93.9842 75.8952 96.7961 74.8022C97.7824 74.4195 99.9327 74.0247 99.9875 75.978C100.042 77.9312 98.7192 77.6174 97.8038 77.8243C96.4045 78.1398 95.052 80.7274 93.7356 81.7135C92.613 82.5565 91.1951 82.9272 89.9027 82.7617C85.5593 82.2048 84.287 74.2557 79.5988 79.3396C77.3456 81.7842 76.1829 83.5374 72.8164 82.5634C69.6798 81.6549 69.0276 77.1658 65.4406 77.7984C64.0601 78.0415 62.868 80.293 61.7413 81.3015C59.7006 83.1289 57.2015 83.2754 55.0311 81.7135C53.6465 80.7171 52.2473 78.0122 50.7278 77.7829C46.6917 77.1727 46.232 83.3168 41.2417 82.7789C37.6627 82.3927 36.6484 77.6209 33.6214 77.7071C31.3347 77.7726 30.4206 80.5671 28.6124 81.8359C26.275 83.4754 23.6515 82.9375 21.5974 80.8791C20.5577 79.8361 19.6502 78.0208 18.2376 77.8002C14.8939 77.2795 14.5571 80.5516 12.066 82.0411C10.2444 83.1289 7.98181 83.0272 6.24846 81.7152C5.04967 80.8067 4.0861 78.9328 2.95681 78.2036C1.94112 77.5467 0.281263 78.0639 0.0380312 76.4469C-0.361564 73.792 2.49307 74.4385 3.66512 75.0487C6.19099 76.3658 6.93939 80.0534 10.088 79.4914C12.2611 79.1035 13.4839 74.9643 16.5283 74.5247C19.5072 74.0954 20.4628 75.3211 22.5396 77.5088L22.5436 77.5105Z" fill="#ED1C24"/>
</svg>
