<svg width="100" height="100" viewBox="0 0 100 100" fill="none" xmlns="http://www.w3.org/2000/svg">
<path d="M1.06692 99.9998C-0.374031 99.5477 -0.0514299 96.6784 1.16468 96.6784H25.0685V83.0052C17.2126 87.2191 7.64017 84.6669 2.81874 77.247C-2.80625 68.5883 0.318095 56.9428 9.25317 52.0184C8.66467 50.5681 7.78094 49.2587 7.30584 47.7536C4.53537 38.9872 9.57187 30.0877 18.4385 28.015C18.3955 27.6509 18.286 26.8993 17.9204 26.7741C12.4948 26.2613 5.41715 28.4651 1.65347 23.3294C-1.99681 18.3502 0.830347 11.3355 6.74666 10.0202C9.00878 -3.18128 27.3892 -3.39853 29.974 9.72663C37.8787 10.1866 43.4118 16.5084 42.6082 24.4763C42.4811 25.7348 41.9317 26.8974 41.656 28.1128C50.5364 29.9017 55.5103 39.0107 52.8689 47.6401C52.3938 49.1941 51.5139 50.5602 50.8394 52.0184C58.2925 56.1814 61.8567 64.801 59.317 73.0429C56.4859 82.2301 46.1842 87.4775 37.1181 83.9368C36.4612 83.6804 35.857 83.2968 35.2177 83.0071V96.6803H63.3172V91.7971C58.8751 92.4919 58.7735 87.4403 63.3172 88.2819V86.7181C58.7598 87.5557 58.8869 82.5022 63.3172 83.2029V78.3196C61.6397 78.4742 59.5242 78.4155 60.0404 76.1158C60.4393 74.3386 62.9438 75.2859 63.2957 74.9766C63.3388 74.9395 63.4248 74.2838 63.7024 73.9197C64.3398 73.086 65.5012 73.0312 66.2343 73.7377C66.7134 74.1996 66.4709 75.0765 67.3058 75.0099H93.2547C93.4013 73.0547 95.8589 72.5477 96.6234 74.3797C96.7016 74.5656 96.6488 74.9395 96.6938 74.9864C96.8717 75.1704 99.6617 74.5617 100 75.9748V77.3429C99.2413 78.6562 97.994 78.2922 96.682 78.3196V83.2029C98.0174 83.1128 99.0497 83.1461 100 84.1795V85.7414C99.2316 87.0469 97.9079 86.5889 96.6801 86.8296V88.2819C97.994 88.274 99.1807 88.002 100 89.2585V90.8204C99.0497 91.8538 98.0174 91.8871 96.682 91.7971V96.6803C97.994 96.7077 99.2394 96.3437 100 97.657V100.002H1.06692V99.9998ZM17.459 23.2315C17.2635 18.0311 20.0183 13.51 24.5464 11.0849C24.9394 10.8736 26.3159 10.5526 26.4195 10.2159C24.7889 1.22444 12.0686 1.18725 10.2542 10.2551C10.0333 11.359 10.5201 12.6918 8.98532 13.2829C7.70273 13.7781 7.00279 13.3162 5.57356 14.3594C1.81966 17.0995 3.52456 22.8342 8.1837 23.2374C11.1438 23.4938 14.4617 23.0319 17.4609 23.2315H17.459ZM31.8978 70.5024C35.073 67.7408 37.7066 64.3254 41.0362 61.7693C43.0833 61.2467 44.1606 62.9906 42.8194 64.7345C40.0665 68.3182 35.1141 71.622 32.3788 75.1861C32.2674 75.3309 32.0601 75.4151 32.109 75.6519C35.8218 80.8346 42.0177 82.9563 48.0318 80.5019C57.9855 76.4367 59.6748 62.5385 50.8883 56.2812C49.9264 55.5962 46.3934 54.0774 46.1842 53.3728C45.7032 51.7542 47.1774 50.9497 47.979 49.7813C52.5404 43.1306 49.3672 33.5109 41.4214 31.5732C40.2855 31.2953 37.9921 31.4166 37.3586 30.5613C36.2872 29.1149 37.6695 28.1304 38.2384 26.9385C40.2209 22.7852 38.9892 17.3931 35.0887 14.8624C27.3345 9.82841 18.2704 17.8981 21.6587 26.3533C22.0751 27.3945 23.2482 28.7137 23.1153 29.7569C22.8787 31.6182 20.2373 31.2052 18.8198 31.5262C10.6765 33.3699 7.62257 43.115 12.225 49.8615C12.835 50.756 14.2975 51.8207 14.1098 52.9696C13.883 54.3494 11.6209 54.7918 10.5006 55.4279C-2.46801 62.8007 4.04659 83.5258 18.898 81.4159C22.6147 80.8875 25.8974 78.7345 27.9719 75.6421L27.8174 75.2839L17.2654 64.7384C15.7091 62.9377 17.5841 60.7006 19.5979 62.0139L28.3883 70.6982V54.1909L20.6752 46.4794C18.941 44.1679 21.078 42.199 23.4164 44.1269C25.1349 45.5439 26.5935 47.6322 28.3883 49.014V41.1029C28.3883 40.9464 28.9749 40.2555 29.1841 40.138C30.3161 39.5019 31.9017 40.4649 31.9017 41.6881V48.8183C33.415 47.9415 36.1699 43.937 37.5698 43.4555C39.7341 42.7137 40.8798 44.6416 39.4174 46.4755C37.3508 49.0688 34.0857 51.4136 31.9037 53.9952V70.5024H31.8978ZM93.1706 78.3176H66.8268V83.2009H93.1706V78.3176ZM31.7023 96.6784V80.5626C31.7023 80.4373 30.2555 78.9792 30.0443 78.711L28.3903 80.7622L28.3766 96.0051C28.3336 96.2047 28.5174 96.6784 28.6796 96.6784H31.7043H31.7023ZM93.1706 86.7161H66.8268V88.278H93.1706V86.7161ZM93.1706 91.7951H66.8268V96.6784H93.1706V91.7951Z" fill="#ED1C24"/>
<path d="M99.998 34.9507C98.7819 39.1685 95.9156 41.4957 91.5185 41.7951C85.9795 42.1729 77.3299 42.1807 71.7928 41.7951C62.2399 41.1316 60.1733 29.2415 68.4476 25.5364C68.8523 25.3564 69.8611 25.2703 70.0488 24.9904C70.2131 24.7457 70.2346 23.8297 70.3949 23.3835C74.7745 11.0941 90.9827 12.6148 93.3465 25.0608C96.0622 25.7322 98.2853 27.3802 99.386 29.9989L99.9999 31.825V34.9507H99.998ZM73.007 27.8577C72.2816 28.6347 70.217 28.3568 68.9833 29.2004C64.9263 31.9796 66.7388 37.8807 71.7928 38.278C78.3016 38.7908 85.4927 37.8983 92.0737 38.2506C97.2744 37.6458 98.1308 30.5528 93.5538 28.8011C92.2829 28.3157 90.6015 28.7463 90.0501 27.2294C89.6356 26.0903 89.8175 24.7907 89.2172 23.3737C86.3764 16.6741 76.452 16.8894 74.0061 23.681C73.619 24.7594 73.529 27.296 73.005 27.8577H73.007Z" fill="#ED1C24"/>
</svg>
