<svg width="100" height="99" viewBox="0 0 100 99" fill="none" xmlns="http://www.w3.org/2000/svg">
<path d="M1.30621 68.6025C0.884097 68.5146 0.25856 67.9243 0.167018 67.4671C-0.0236942 66.505 0.0271625 61.2323 0.222961 60.2351C0.5281 58.6927 3.1701 59.2227 3.21842 58.9137L3.22604 21.0404C1.69272 20.0758 0.337388 20.6083 0.151761 18.4982C-0.331377 12.9693 0.525558 6.76469 0.169561 1.16043C0.306874 0.426925 1.05701 -0.0779868 1.79697 0.00993306H98.2008C98.8772 -0.0578909 99.3476 0.253597 99.7062 0.783628L99.8231 18.973C99.6935 20.3345 97.9949 20.4199 96.9396 20.8444C96.5912 33.5049 96.8887 46.3362 96.787 59.0569C97.9033 59.0318 99.49 58.9414 99.785 60.2401C100.004 61.2147 99.9935 66.1533 99.8257 67.2033C99.7443 67.6982 99.1951 68.6 98.6967 68.6H64.2413L64.3812 69.341L78.6032 95.9883C79.7602 98.3496 77.0038 99.6106 75.5798 97.4654L60.1753 68.7231L40.4557 68.5874L39.6801 68.8261L24.9189 97.9276C23.912 98.9927 21.9362 98.7138 21.8523 97.0685C26.17 87.4199 31.3625 78.1079 36.0184 68.5975H1.30621V68.6025ZM48.2215 3.2906H3.46761V17.609C9.50175 19.4051 16.3369 18.1139 21.0132 13.9666C19.7468 13.2281 17.115 12.3664 18.2466 10.4799C19.3781 8.59343 21.0157 10.3795 22.1142 10.8743C28.545 13.7681 34.3452 13.6953 40.9134 11.2687C41.9559 10.8844 48.224 7.93026 48.224 7.18671V3.29311L48.2215 3.2906ZM96.5353 3.2906H51.7814C52.0764 3.92865 51.4534 7.10632 51.578 7.26207C51.9035 7.67152 54.904 9.34702 55.5906 9.70122C61.5052 12.7458 67.8114 13.9691 74.3516 12.1479C75.6078 11.7987 80.1009 9.58064 80.607 9.63339C81.2656 9.70122 81.9979 10.5905 82.0386 11.221C82.1505 12.9919 78.9033 13.7681 78.9923 13.9641C83.727 18.1089 90.5037 19.3825 96.5378 17.609V3.2906H96.5353ZM87.1268 59.0569V22.005C87.1268 21.9522 87.3378 21.8241 87.2616 21.6257C87.0556 21.0931 84.9196 20.8871 84.1949 20.6309C80.9045 19.4754 77.8683 17.6391 75.2543 15.3884C66.4129 17.7346 57.485 15.2829 50.1159 10.3116C47.9341 11.2687 45.9355 12.8161 43.7028 13.7757C40.2446 15.2628 35.3268 16.3957 31.5557 16.3681C30.3937 16.3605 24.9113 15.3331 24.5884 15.4688C24.1002 15.6747 23.172 16.6946 22.6228 17.0639C21.5497 17.7873 20.3469 18.6263 19.2027 19.2116C17.176 20.2441 14.9739 20.7641 12.8685 21.5679L12.8761 59.0569H31.1845V46.1202C31.1845 45.2183 32.4966 43.6785 33.234 43.1208C33.6815 42.7817 34.6071 42.5958 34.8614 42.2165C35.281 41.591 35.7362 39.6643 36.321 38.6344C42.2661 28.1343 57.869 28.0187 63.6844 38.6344C64.2006 39.5764 64.7829 41.7468 65.144 42.2165C65.5051 42.6862 66.9036 43.0178 67.4631 43.568C67.7377 43.8393 68.8209 45.8539 68.8209 46.1202V59.0569H87.1293H87.1268ZM6.51901 21.6282V59.0569H9.57041L9.43818 22.2512C9.43818 21.0554 7.42172 21.8392 6.51901 21.6282ZM93.4839 21.6282C92.5812 21.8367 90.5647 21.0554 90.5647 22.2512L90.6868 59.0594H93.4864V21.6282H93.4839ZM61.6502 42.9349C62.0138 42.3295 60.6788 40.0888 60.277 39.486C55.0591 31.6561 43.1536 32.3469 38.9681 40.7495C37.4704 43.7538 38.9783 42.533 40.1378 44.5602C40.6743 45.4997 40.7226 46.507 40.9922 47.5118L59.1531 47.4992C59.12 45.7207 59.6871 44.5552 60.9331 43.3444C61.134 43.151 61.6018 43.0178 61.6502 42.9349ZM34.4902 46.6226V59.0569H37.5416V46.8737C37.5416 45.3992 34.8538 44.9521 34.4902 46.6226ZM62.4613 46.8737V59.0569H65.5127V46.6226C65.5127 45.5575 62.769 44.8415 62.4613 46.8737ZM59.1556 51.0185H40.8472V53.7817H59.1556V51.0185ZM59.1556 57.0473H40.8472V59.0569H59.1556V57.0473ZM96.5353 62.3225H3.46761V65.3369H96.5353V62.3225Z" fill="#ED1C24"/>
<path d="M99.5276 74.3209C99.2478 74.5972 98.5943 74.6098 98.2002 74.6424C89.4122 75.3734 79.6096 74.0647 70.7147 74.6424C68.8839 74.4038 68.5686 71.6481 71.2309 71.3567C79.752 72.0124 89.5698 70.5027 97.9358 71.3643C99.6115 71.5376 100.659 73.198 99.5276 74.3184V74.3209Z" fill="#ED1C24"/>
<path d="M30.3492 71.9324C31.1019 72.7237 30.5374 74.683 29.2863 74.6428L1.55165 74.6303C-0.736898 74.4946 -0.174932 71.2918 2.05767 71.3571C10.5812 71.945 20.1194 70.601 28.5209 71.3496C29.0244 71.3948 30.0161 71.5807 30.3467 71.9299L30.3492 71.9324Z" fill="#ED1C24"/>
<path d="M1.10402 77.6994L25.9729 77.6416C28.1699 77.7195 28.0072 80.6635 25.9805 80.9248L1.80584 80.9172C-0.13688 80.8519 -0.520848 78.5635 1.10148 77.6994H1.10402Z" fill="#ED1C24"/>
<path d="M72.9492 77.9609C73.262 77.667 73.8545 77.6695 74.2715 77.6343C81.9915 76.9812 90.6321 78.1543 98.4513 77.6318C100.541 77.9031 100.244 80.8648 98.1894 80.915C90.6423 80.2669 81.6483 81.7641 74.2766 80.915C72.7382 80.7392 71.6956 79.134 72.9492 77.9609Z" fill="#ED1C24"/>
<path d="M24.0037 86.6276C23.724 86.904 23.0705 86.9165 22.6763 86.9492C15.9277 87.5119 8.3907 86.5096 1.55557 86.9391C-0.519378 86.7231 -0.603292 83.9649 2.06922 83.6735C8.47716 82.9727 16.1285 84.2011 22.6712 83.6685C24.2503 83.4902 24.881 85.761 24.0037 86.6302V86.6276Z" fill="#ED1C24"/>
<path d="M99.525 86.6278C99.2453 86.9042 98.5918 86.9167 98.1976 86.9494C91.449 87.5096 83.912 86.5098 77.0769 86.9393C74.9638 86.9293 75.185 83.6461 77.3286 83.6687C83.8637 84.2088 91.5354 82.9654 97.9306 83.6737C98.4595 83.7315 99.4665 83.9325 99.7132 84.4223C99.9598 84.9122 99.9039 86.251 99.5224 86.6278H99.525Z" fill="#ED1C24"/>
<path d="M99.5236 90.2661C100.467 91.2031 99.7626 93.0419 98.1912 93.2253C92.8792 93.8457 86.3543 92.7656 80.9101 93.2052C78.9877 92.9063 78.9521 90.1531 80.8821 89.9421C86.4891 90.3189 92.6605 89.4849 98.1963 89.9446C98.5904 89.9773 99.2439 89.9873 99.5236 90.2661Z" fill="#ED1C24"/>
<path d="M1.10129 90.0079L19.7326 90.0858C21.0574 90.877 20.6684 93.0248 19.0867 93.2031C13.64 92.7661 7.12271 93.8412 1.80565 93.2232C-0.109101 93.0022 -0.518497 90.9197 1.10129 90.0054V90.0079Z" fill="#ED1C24"/>
<path d="M71.6153 50.7676H76.4466V25.0196H23.5557V50.7676H28.3871C28.2498 51.4785 28.7584 53.7443 27.9701 53.998C27.4844 54.1563 22.3352 54.1186 21.702 53.9804C21.0689 53.8423 20.4484 53.2369 20.3035 52.5988L20.2424 23.2562C20.2628 22.4448 20.7688 21.7792 21.5062 21.4903L76.8382 21.3672C78.4122 21.4802 79.7803 21.5983 79.7625 23.5024L79.6964 52.5988C79.5514 53.2369 78.9488 53.8373 78.2978 53.9804C77.6469 54.1236 72.518 54.1563 72.0297 53.998C71.2415 53.7418 71.75 51.4785 71.6127 50.7676H71.6153Z" fill="#ED1C24"/>
</svg>
