<svg width="337" height="96" viewBox="0 0 337 96" fill="none" xmlns="http://www.w3.org/2000/svg">
<path fill-rule="evenodd" clip-rule="evenodd" d="M236.785 15.046C236.785 10.7497 236.387 7.81304 235.573 6.25406C234.85 4.91261 233.62 4.24188 231.848 4.24188H229.515V26.267H231.721C233.475 26.267 234.723 25.5782 235.446 24.1824C236.351 22.5327 236.785 19.4873 236.785 15.046ZM240.6 14.756C240.6 20.0311 240.004 23.8379 238.81 26.2308C237.562 28.6962 235.501 29.9288 232.625 29.9288H225.808V0.580087H232.716C235.248 0.580087 237.11 1.37771 238.286 3.0092C239.805 5.18452 240.582 9.10011 240.582 14.756H240.6ZM223.059 29.9288H210.292V0.580087H222.716V4.56818H213.981V12.7075H222.191V16.6594H213.981V25.9589H223.059V29.947V29.9288ZM203.294 8.91883C203.294 5.80087 202.01 4.22375 199.479 4.22375H196.712V13.6864H199.479C202.028 13.6864 203.294 12.0912 203.294 8.91883ZM208.032 29.9288H203.855C203.348 29.1675 203.095 27.0284 203.095 23.5116C203.095 20.9375 202.842 19.2154 202.354 18.3634C201.92 17.602 201.052 17.2032 199.768 17.2032H196.712V29.9107H193.023V0.580087H201.034C202.697 0.580087 204.054 1.05141 205.066 2.01218C206.423 3.31737 207.11 5.42018 207.11 8.30249C207.11 10.224 206.73 11.8374 205.989 13.1426C205.229 14.4478 204.361 15.191 203.385 15.3723V15.4629C204.632 15.7348 205.518 16.3331 206.025 17.2757C206.658 18.454 206.947 20.5024 206.947 23.4029C206.947 26.9559 207.309 29.1312 208.05 29.9288H208.032ZM190.437 29.9288H177.688V0.580087H190.129V4.56818H181.395V12.7075H189.605V16.6594H181.395V25.9589H190.437V29.947V29.9288ZM175.771 4.65882H170.274V29.9288H166.585V4.65882H161.069V0.580087H175.789V4.65882H175.771ZM155.662 8.91883C155.662 5.80087 154.396 4.22375 151.829 4.22375H149.062V13.6864H151.829C154.396 13.6864 155.662 12.0912 155.662 8.91883ZM160.4 29.9288H156.205C155.698 29.1675 155.463 27.0284 155.463 23.5116C155.463 20.9375 155.192 19.2154 154.704 18.3634C154.288 17.602 153.402 17.2032 152.1 17.2032H149.044V29.9107H145.355V0.580087H153.366C155.029 0.580087 156.386 1.05141 157.398 2.01218C158.755 3.31737 159.442 5.42018 159.442 8.30249C159.442 10.224 159.062 11.8374 158.321 13.1426C157.561 14.4478 156.693 15.191 155.698 15.3723V15.4629C156.964 15.7348 157.832 16.3331 158.339 17.2757C158.972 18.454 159.297 20.5024 159.297 23.4029C159.297 26.9559 159.659 29.1312 160.382 29.9288H160.4ZM137.977 18.9616L135.373 5.23891H135.318L132.515 18.9616H137.959H137.977ZM143.89 29.9288H140.056L138.592 22.6959H131.883L130.436 29.9288H126.566L133.022 0.580087H137.85L143.89 29.9288ZM125.083 29.9288H121.376V16.3693H114.559V30.092L110.852 29.9288V0.580087H114.559V12.2906H121.376V0.580087H125.083V29.9288ZM108.392 19.3966C108.392 22.7684 107.777 25.4332 106.53 27.4091C105.246 29.4756 103.419 30.5089 101.086 30.5089C98.5367 30.5089 96.6741 29.4938 95.4987 27.4635C94.1605 25.125 93.4914 21.1188 93.4914 15.4267C93.4914 9.73458 94.0701 6.07278 95.2274 3.64367C96.4029 1.21456 98.3559 0 101.141 0C105.842 0 108.193 3.22673 108.193 9.66207H104.45C104.45 5.58333 103.347 3.5349 101.141 3.5349C99.6036 3.5349 98.5729 4.55005 98.0123 6.61661C97.5421 8.35687 97.307 11.2936 97.307 15.4629C97.307 19.6323 97.5964 22.8228 98.175 24.4905C98.7356 26.1402 99.7302 26.974 101.105 26.974C103.455 26.974 104.631 24.4543 104.631 19.4148H108.392V19.3966Z" fill="white"/>
<path d="M4.10494 91.3453C1.35626 88.5899 0 84.9463 0 80.4506C0 75.9549 1.37434 72.3113 4.10494 69.5377C6.85363 66.7642 10.4161 65.3683 14.8284 65.3683C18.6259 65.3683 21.9714 66.311 24.8647 68.1781L25.6966 74.0153H25.3168C24.702 71.6405 23.4904 69.8096 21.664 68.5226C19.8375 67.2355 17.5409 66.601 14.8284 66.601C11.3202 66.601 8.49922 67.87 6.32921 70.4078C4.15919 72.9457 3.09227 76.2993 3.09227 80.4325C3.09227 84.5656 4.17728 87.9192 6.32921 90.439C8.48114 92.9587 11.3202 94.2458 14.8284 94.2639C16.6187 94.2639 18.3185 93.9557 19.928 93.3031C21.5374 92.6687 22.9479 91.7804 24.1595 90.6565V83.3148C24.1595 82.7166 23.9787 82.2452 23.5989 81.9189C23.2191 81.6108 22.7128 81.4476 22.0437 81.4476H21.3746V81.0307H29.476V81.4476H28.8612C28.174 81.4476 27.6496 81.6108 27.2879 81.9189C26.9263 82.2452 26.7635 82.6984 26.7997 83.3148V90.1489C26.0763 91.0916 25.2264 91.9254 24.2318 92.6687C23.2372 93.4119 21.9171 94.0645 20.2354 94.6446C18.5536 95.2247 16.7634 95.4966 14.7923 95.4966C10.3799 95.4603 6.79938 94.0645 4.06878 91.3091L4.10494 91.3453Z" fill="white"/>
<path d="M73.2918 66.3472H72.6227C72.044 66.3472 71.5377 66.5285 71.1218 66.9092C70.6878 67.2899 70.4708 67.7431 70.4346 68.305V84.7106C70.4346 87.9373 69.4219 90.5477 67.3785 92.5418C65.3351 94.5358 62.6226 95.5328 59.2409 95.5328C55.8593 95.5328 53.1107 94.5539 50.9949 92.578C48.8791 90.6021 47.8303 87.9917 47.8303 84.765V68.4319C47.8303 67.598 47.4686 66.9998 46.7634 66.601C46.4379 66.4379 46.0581 66.3472 45.6422 66.3472H44.9731V65.9303H53.3638V66.3472H52.6947C52.0799 66.3472 51.5736 66.5285 51.1577 66.9092C50.7417 67.2899 50.5247 67.7612 50.4886 68.3413V84.1668C50.4886 87.176 51.3023 89.6051 52.9117 91.4541C54.5212 93.3031 56.6731 94.2276 59.3856 94.2276C62.0981 94.2276 64.2862 93.3575 65.9499 91.5991C67.6136 89.8407 68.4635 87.5385 68.4635 84.6925V68.3232C68.4273 67.7431 68.2103 67.2717 67.7944 66.8911C67.3785 66.5104 66.8722 66.3291 66.2573 66.3291H65.5882V65.9122H73.2375V66.3291L73.2918 66.3472Z" fill="white"/>
<path d="M90.779 94.5359C91.5023 94.5359 92.0991 94.2821 92.6235 93.7745C93.1479 93.2669 93.4011 92.6506 93.4372 91.9255V68.9577C93.4011 68.2326 93.1479 67.6344 92.6235 67.1087C92.0991 66.583 91.5023 66.3473 90.779 66.3473H90.2365V65.9304H99.2963V66.3473H98.7538C97.7592 66.3473 96.9997 66.7824 96.4753 67.6344C96.2221 68.0513 96.0955 68.4864 96.0955 68.9577V93.6476H102.009C104.052 93.6476 105.607 93.1944 106.674 92.288C107.741 91.3817 108.645 90.0221 109.369 88.2274H109.785L107.38 94.9347H90.2184V94.5177H90.7609L90.779 94.5359Z" fill="white"/>
<path d="M160.599 94.5358H161.268V94.9528H152.299V94.5721H152.914C153.384 94.5721 153.782 94.3908 154.107 94.0282C154.433 93.6657 154.578 93.2488 154.523 92.7774L152.661 71.9306L143.981 91.291C143.203 92.9768 142.733 94.3908 142.57 95.5147H142.154L131.575 72.5107L129.803 92.7774C129.749 93.2125 129.876 93.6294 130.219 93.992C130.545 94.3727 130.943 94.554 131.413 94.554H132.028V94.9346H123.999V94.5177H124.668C125.445 94.5177 126.114 94.282 126.675 93.8107C127.235 93.3394 127.579 92.7049 127.688 91.9073L130.78 65.3502H131.196L142.733 90.3483L154.017 65.3502H154.397L157.579 91.9073C157.688 92.7049 158.032 93.3394 158.61 93.8107C159.189 94.282 159.858 94.5177 160.599 94.5177V94.5358Z" fill="white"/>
<path d="M179.749 69.5196C182.697 66.7461 186.531 65.3502 191.214 65.3502C195.898 65.3502 199.732 66.7461 202.679 69.5196C205.627 72.2931 207.11 75.9368 207.11 80.4325C207.11 84.9281 205.627 88.5718 202.679 91.3453C199.732 94.1189 195.916 95.5147 191.214 95.5147C186.513 95.5147 182.697 94.1189 179.749 91.3453C176.802 88.5718 175.319 84.9281 175.319 80.4325C175.319 75.9368 176.802 72.2931 179.749 69.5196ZM181.992 90.4752C184.325 93.0131 187.381 94.282 191.196 94.282C195.012 94.282 198.068 93.0131 200.401 90.4752C202.734 87.9373 203.891 84.5837 203.891 80.4506C203.891 76.3175 202.734 72.9639 200.401 70.426C198.068 67.8881 195.012 66.6192 191.196 66.6192C187.381 66.6192 184.325 67.8881 181.992 70.426C179.659 72.9639 178.502 76.3175 178.502 80.4506C178.502 84.5837 179.659 87.9373 181.992 90.4752Z" fill="white"/>
<path d="M242.915 94.5359C243.638 94.5359 244.253 94.2821 244.76 93.7745C245.266 93.2669 245.537 92.6687 245.573 91.9799V81.2483H228.665V91.9799C228.665 92.705 228.918 93.3032 229.443 93.8108C229.967 94.3002 230.582 94.554 231.305 94.554H231.848V94.9709H222.788V94.554H223.331C224.054 94.554 224.669 94.3002 225.175 93.8108C225.681 93.3213 225.953 92.705 225.989 91.9799V68.9396C225.953 68.2144 225.7 67.6162 225.175 67.1087C224.669 66.6192 224.054 66.3654 223.331 66.3654H222.788V65.9485H231.848V66.3654H231.305C230.582 66.3654 229.967 66.6192 229.461 67.1087C228.955 67.5981 228.683 68.2144 228.647 68.9396V79.9975H245.555V68.9396C245.519 67.9425 245.085 67.1993 244.235 66.7098C243.819 66.4923 243.385 66.3835 242.915 66.3835H242.372V65.9666H251.432V66.3835H250.89C250.166 66.3835 249.552 66.6373 249.045 67.1449C248.539 67.6525 248.268 68.2688 248.232 68.9939V91.998C248.25 92.7231 248.521 93.3213 249.045 93.8289C249.552 94.3183 250.166 94.5721 250.89 94.5721H251.432V94.9891H242.372V94.5721H242.915V94.5359Z" fill="white"/>
<path d="M295.899 94.5358H296.225V94.9528H286.93V94.5358H287.309C287.888 94.5358 288.322 94.3545 288.611 93.9739C288.901 93.5932 289.045 93.2488 289.045 92.9225C289.045 92.5962 288.991 92.2517 288.883 91.9254L286.242 84.8738H275.085L272.318 91.9617C272.21 92.288 272.155 92.6143 272.155 92.9406C272.155 93.2669 272.3 93.6113 272.589 93.9739C272.879 94.3545 273.313 94.5358 273.891 94.5358H274.271V94.9528H265.953V94.5358H266.333C267.02 94.5358 267.689 94.3183 268.358 93.8651C269.027 93.43 269.551 92.7774 269.967 91.9254L279.317 69.6284C280.329 67.3986 280.854 65.9666 280.854 65.3683H281.233L292.318 91.9254C292.698 92.7774 293.223 93.43 293.892 93.8651C294.561 94.3002 295.248 94.5358 295.953 94.5358H295.899ZM275.573 83.6411H285.736L280.781 70.3353L275.573 83.6411Z" fill="white"/>
<path d="M319.137 67.2174H316.497V91.9073C316.497 92.6324 316.75 93.2488 317.256 93.7563C317.763 94.2639 318.396 94.5177 319.137 94.5177H319.625L319.661 94.9346H310.602V94.5177H311.144C311.867 94.5177 312.482 94.2639 312.989 93.7745C313.495 93.285 313.766 92.6687 313.802 91.9436V68.9395C313.766 68.2144 313.513 67.6162 312.989 67.0905C312.482 66.5829 311.867 66.3291 311.144 66.3291H310.602V65.9122H321.759C324.273 65.9122 326.244 66.601 327.672 67.9969C329.101 69.3927 329.824 71.2055 329.824 73.417C329.824 75.6286 329.137 77.5683 327.781 79.1817C326.425 80.795 324.761 81.6108 322.808 81.6108C323.224 81.8102 323.712 82.1909 324.273 82.7528C324.833 83.3148 325.34 83.913 325.774 84.5112C328.143 87.9192 329.68 90.0039 330.403 90.7834C331.126 91.5629 331.633 92.1067 331.94 92.3967C332.247 92.6868 332.573 92.9768 332.935 93.2487C333.296 93.5207 333.658 93.7382 334.002 93.9195C334.797 94.3002 335.647 94.4996 336.569 94.4996V94.9165H334.291C333.097 94.9165 331.994 94.699 330.982 94.282C329.969 93.8651 329.191 93.4119 328.685 92.9587C328.179 92.5055 327.727 92.0523 327.365 91.6354C327.003 91.2184 325.973 89.7864 324.291 87.3391C322.609 84.91 321.633 83.5142 321.361 83.1697C321.09 82.8253 320.801 82.4809 320.493 82.1546C319.607 81.212 318.721 80.7406 317.853 80.7406V80.3237C318.07 80.36 318.359 80.36 318.721 80.36C319.083 80.36 319.517 80.36 320.041 80.3237C323.459 80.2331 325.611 78.801 326.497 76.0093C326.66 75.4655 326.75 74.9398 326.75 74.4503V73.5258C326.696 71.6768 326.208 70.1903 325.303 69.0483C324.399 67.9062 323.17 67.308 321.614 67.2174C320.945 67.1811 320.132 67.1811 319.137 67.1811V67.2174Z" fill="white"/>
<path d="M287.924 46.2437H46.1849V46.9688H287.924V46.2437Z" fill="white"/>
</svg>
