<svg width="100" height="91" viewBox="0 0 100 91" fill="none" xmlns="http://www.w3.org/2000/svg">
<path d="M76.7196 12.6948C78.1135 15.8818 81.4199 17.5556 84.6676 16.89C87.9154 16.2244 90.3507 13.2566 90.3154 9.90909C90.2802 6.56153 87.8977 3.75036 84.7264 3.07889C81.2927 2.35261 78.0097 4.17321 76.6707 7.39352C76.3575 8.14721 75.4902 8.40171 74.809 8.14917C74.1277 7.89664 73.652 7.08422 73.9809 6.26788C75.8054 1.72812 80.4235 -0.736542 85.2491 0.195293C89.7829 1.07036 93.2284 5.18139 93.2558 9.90713C93.2832 14.6387 89.963 18.7635 85.3626 19.7462C80.7621 20.7289 75.8446 18.2741 74.0063 13.7304C73.701 12.9747 74.2119 12.2269 74.8364 11.9509C75.4276 11.6905 76.3536 11.855 76.7216 12.6948H76.7196Z" fill="#ED1C24"/>
<path d="M41.1534 18.1337C39.2153 15.5692 36.3513 14.146 33.2719 14.1597C30.2474 14.1734 27.3266 15.6475 25.504 18.1552C25.1184 18.6857 24.6211 18.7621 23.979 18.7953C20.7489 18.9578 18.4389 22.0705 19.3355 25.2653L25.3102 25.3495C26.1324 25.3613 26.6767 26.0406 26.7002 26.7316C26.7256 27.5029 26.152 28.2586 25.277 28.2586L19.776 28.2664C17.9769 28.2684 16.6301 27.0546 16.3208 25.281C15.5142 20.661 18.8324 16.2915 23.5777 15.8589C28.6186 9.72366 37.9487 9.63948 43.0836 15.8491C47.7545 16.3131 51.1334 20.5181 50.3504 25.2281C50.0626 26.9646 48.749 28.2625 46.948 28.2605L31.3828 28.239C30.5332 28.239 30.0634 27.2073 30.1613 26.6141C30.2983 25.7861 30.9384 25.3221 31.8135 25.3221L47.2671 25.3182C47.8348 23.7031 47.4609 22.092 46.437 20.7491C44.4618 18.1611 42.0382 19.3082 41.1514 18.1337H41.1534Z" fill="#ED1C24"/>
<path d="M99.9961 63.603V87.7641C99.4068 89.6768 97.9934 90.3189 96.0417 90.3189L3.91137 90.3247C1.91458 90.3247 -0.00585947 89.4458 1.34355e-05 87.1318L0.0235051 74.6832C0.029378 71.5216 2.8288 69.1451 5.81419 68.871L15.2324 68.8651L15.2265 61.3028C12.2764 61.5201 9.58656 60.3651 7.75421 58.3369C5.81028 56.1855 5.04484 53.3215 5.61256 50.4516C5.87292 49.7586 6.36429 49.0343 7.13364 48.8502C10.8453 47.9536 14.5864 49.5452 16.6967 52.695C18.8364 49.5335 22.4561 48.0417 26.0562 48.7954C27.0624 49.0069 27.7221 49.8917 27.8513 50.8588C28.282 53.7522 27.4128 56.5085 25.418 58.5719C23.5778 60.4747 20.98 61.5064 18.1512 61.3184L18.1865 68.8769L24.9795 68.8671L24.9873 64.9068C24.9344 61.0679 28.0941 58.1627 31.8782 58.4113L31.8703 49.2476C28.9378 49.4512 26.3048 48.3413 24.4626 46.3484C22.5657 44.2968 21.7357 41.5111 22.1977 38.6999C22.4071 37.4803 23.3762 36.7423 24.584 36.6072C28.0804 36.2157 31.379 37.6682 33.3464 40.6575C35.3784 37.5977 38.6751 36.2078 42.1538 36.615C43.3734 36.7579 44.2974 37.5116 44.4951 38.7625C44.9434 41.6011 44.0566 44.4103 42.1499 46.4326C40.2647 48.4313 37.6003 49.4415 34.8009 49.2476L34.8107 58.3957L41.0536 58.3878C39.0412 56.0426 38.307 53.2197 38.9257 50.3341C39.2134 49.7527 39.6696 49.0343 40.3567 48.8639C44.0488 47.9458 47.8192 49.4826 49.9824 52.7185C52.1436 49.4826 55.914 47.9458 59.6081 48.8659C60.2933 49.0362 60.7533 49.7566 61.0372 50.338C61.6793 53.2804 60.8434 56.1268 58.9033 58.4094L65.1541 58.3957L65.1639 49.2476C62.3116 49.4493 59.6022 48.3863 57.719 46.3288C55.8357 44.2713 55.0253 41.5522 55.4696 38.7625C55.6693 37.5136 56.5914 36.7579 57.811 36.615C61.2877 36.2098 64.5883 37.5977 66.6184 40.6556C68.5858 37.6682 71.8864 36.2117 75.3808 36.6072C76.4712 36.7305 77.356 37.3237 77.7025 38.3906C78.28 41.2292 77.4931 44.1049 75.5961 46.2407C73.7618 48.306 71.0798 49.4512 68.0905 49.2457L68.1023 58.4133L74.3178 58.3644C72.4561 56.2012 71.7415 53.7052 72.0821 51.0389C72.1742 49.9113 72.9181 48.9599 74.0633 48.7524C77.6281 48.1063 81.1578 49.5726 83.2642 52.699C85.3177 49.6176 88.865 48.0828 92.5316 48.7563C93.5339 48.9873 94.2289 49.7586 94.4031 50.7609C94.8495 53.4996 94.1173 56.0622 92.1871 58.425C95.9712 57.9396 99.1484 60.0127 100 63.603H99.9961ZM31.8351 46.2897C32.2208 42.208 28.8752 39.0875 25.0323 39.5182C24.6525 43.4726 27.8591 46.7105 31.8351 46.2897ZM41.588 39.4908C37.4594 39.156 34.4172 42.5095 34.8655 46.3092C38.8513 46.6773 42.1107 43.3845 41.588 39.4908ZM65.1423 46.2035C65.3812 42.0905 62.1765 39.1364 58.3337 39.5104C58.1105 41.4817 58.8015 43.3277 60.1817 44.6335C61.4444 45.8277 63.3159 46.6127 65.1404 46.2035H65.1423ZM74.907 39.5045C70.8488 39.1149 67.6931 42.4449 68.1316 46.3053C72.0998 46.6831 75.3201 43.4687 74.907 39.5045ZM15.2167 58.3115C15.5104 54.1652 12.1922 51.1505 8.38849 51.587C8.01066 55.5512 11.2956 58.8479 15.2167 58.3115ZM24.9579 51.5537C20.8645 51.1935 17.7675 54.5665 18.2158 58.3565C22.1879 58.75 25.4395 55.4866 24.9579 51.5537ZM48.4887 58.3095C48.7961 54.2279 45.5464 51.1798 41.6879 51.5753C41.2572 55.4945 44.5382 58.8401 48.4887 58.3095ZM58.228 51.5479C54.1443 51.2366 51.0963 54.4902 51.4898 58.3467C55.4109 58.7794 58.7546 55.4984 58.228 51.5479ZM81.7842 58.2645C82.0465 54.1828 78.7929 51.1681 74.9677 51.5753C74.77 53.5505 75.4415 55.3809 76.8196 56.6906C78.0647 57.871 79.9538 58.6737 81.7842 58.2645ZM91.4569 51.5381C87.3419 51.2934 84.4074 54.5 84.7618 58.3369C86.7057 58.5817 88.5694 57.8612 89.8281 56.5653C91.1045 55.2517 91.8621 53.3352 91.4588 51.5381H91.4569ZM48.5063 68.8553L48.4965 61.3302H31.2224C29.3567 61.4281 27.9257 62.8689 27.9237 64.711L27.9198 68.8632L48.5063 68.8534V68.8553ZM97.042 87.4274L97.0577 75.2705C97.0596 73.3324 95.6306 71.8779 93.7082 71.7918H69.915C68.9695 71.7937 68.345 71.1399 68.3489 70.2922C68.3509 69.6306 68.8873 68.8749 69.7232 68.8729L81.8018 68.8553L81.7627 61.3263H51.4565L51.4506 68.8612L63.6115 68.8651C64.465 69.0217 64.9583 69.7343 64.8683 70.4723C64.7684 71.2887 64.1968 71.7937 63.2238 71.7937H6.26053C4.31856 71.872 2.88557 73.3305 2.89536 75.2705L2.95996 87.4392L97.042 87.4255V87.4274ZM97.0303 69.8028L97.0655 64.897C97.1105 62.9805 95.6795 61.432 93.7473 61.3302H84.7265V68.8632L93.9313 68.8671C95.0785 68.918 96.0671 69.2625 97.0322 69.8028H97.0303Z" fill="#ED1C24"/>
<path d="M76.8214 81.3061L56.6304 81.3256C55.7181 81.3256 55.0917 80.8441 54.9762 79.9709C54.8979 79.3797 55.3892 78.4048 56.2506 78.4048L76.7314 78.3833C77.5986 78.3833 78.1683 78.951 78.2505 79.691C78.3327 80.431 77.8492 81.3041 76.8234 81.3061H76.8214Z" fill="#ED1C24"/>
<path d="M30.9052 81.3099L10.7161 81.3217C9.82146 81.3217 9.23221 80.7775 9.13433 80.0296C9.03644 79.2818 9.57479 78.395 10.5203 78.395H31.0129C31.8723 78.395 32.4008 79.1663 32.3871 79.8476C32.3734 80.5288 31.886 81.3119 30.9052 81.3119V81.3099Z" fill="#ED1C24"/>
<path d="M43.6807 81.31C44.4895 81.31 45.1451 80.6544 45.1451 79.8457C45.1451 79.0369 44.4895 78.3813 43.6807 78.3813C42.872 78.3813 42.2164 79.0369 42.2164 79.8457C42.2164 80.6544 42.872 81.31 43.6807 81.31Z" fill="#ED1C24"/>
<path d="M87.1734 81.31C87.9821 81.31 88.6377 80.6544 88.6377 79.8457C88.6377 79.0369 87.9821 78.3813 87.1734 78.3813C86.3647 78.3813 85.7091 79.0369 85.7091 79.8457C85.7091 80.6544 86.3647 81.31 87.1734 81.31Z" fill="#ED1C24"/>
</svg>
