<svg width="100" height="100" viewBox="0 0 100 100" fill="none" xmlns="http://www.w3.org/2000/svg">
<path d="M41.0203 0C42.5231 0.718157 43.3332 1.96662 44.3038 3.25813C49.3758 10.0014 52.2855 18.1829 53.352 26.5346L79.9507 26.5699C82.518 15.6018 97.4914 15.5118 100 26.5601V91.7911C99.0568 96.0942 95.605 99.5852 91.1201 100H5.7608C2.77278 99.6478 0.352223 97.2174 0 94.241V32.7045C0.172198 29.5482 2.87257 26.9182 5.98975 26.5855C6.60222 26.5209 8.67251 26.7205 8.90733 26.3781C9.93464 20.445 12.1791 14.6782 15.3569 9.58652C16.2903 8.08955 18.9535 3.91366 20.5502 3.45185C23.5363 2.58693 25.1428 5.39303 26.6144 7.47706C27.8706 9.25973 28.9782 11.1579 29.9879 13.0853C31.4887 10.019 33.0229 7.02503 35.0051 4.23654C36.1146 2.67695 37.3121 0.804258 39.0693 0.00195683H41.0222L41.0203 0ZM41.803 46.2869C44.3292 46.0736 46.4073 43.9015 47.5677 41.7979C50.5792 36.3423 50.2211 27.7753 48.9668 21.8382C47.5638 15.1889 44.3938 8.63941 39.946 3.52034C37.9031 6.13663 35.9404 8.9212 34.4689 11.9054C34.0267 12.8036 32.0953 17.1869 32.1169 17.8717C32.1403 18.6036 33.6412 22.3451 33.9308 23.5916C34.9249 27.8535 35.4199 33.047 34.962 37.399C34.7409 39.5124 34.1382 41.5533 33.7899 43.6413C33.9465 44.604 37.2065 46.4219 38.2847 46.2889V39.3558C38.2847 38.7962 39.5488 38.2306 40.1358 38.2678C40.8226 38.3128 41.7991 39.0858 41.7991 39.7452V46.2869H41.803ZM23.4443 49.6057C28.4851 48.8034 30.5651 43.199 31.2246 38.7335C32.5708 29.6186 30.2383 20.0751 25.5557 12.2419C25.2544 11.739 21.8593 6.58278 21.4954 6.83326C20.0297 8.98969 18.4252 11.0483 17.1611 13.3417C12.9794 20.9361 10.7917 30.464 12.1732 39.0975C12.9109 43.7078 14.993 48.5705 19.928 49.7975V44.0366C19.928 43.698 15.7131 40.1581 15.2004 39.1914C14.3296 37.5516 16.0868 35.9157 17.6875 36.9019C18.4467 37.3696 21.1745 40.7217 21.6147 40.798C22.9062 40.2031 25.2289 36.6671 26.4969 36.5791C28.0135 36.4734 28.7903 37.9958 28.1054 39.3225C27.671 40.1679 23.4424 43.7039 23.4424 44.0346V49.5998L23.4443 49.6057ZM96.4856 82.2222V26.8536C96.4856 26.7558 95.8672 25.2764 95.744 25.0553C93.3019 20.6387 86.6136 20.7033 84.2165 25.1296C84.0032 25.523 83.4005 27.0826 83.4005 27.4387V82.2202L86.0833 80.7037C89.7581 79.2184 93.3684 79.8681 96.4856 82.2202V82.2222ZM5.77059 96.4797H25.0078V89.3509C25.0078 86.1945 28.2952 81.0305 30.6688 78.9973C38.2221 72.528 46.2312 75.9818 54.9644 74.976C55.7197 74.888 56.7235 74.5514 57.2734 74.0211C57.4476 73.8528 58.2068 72.6533 58.2068 72.5554V30.0765H53.3246C53.4518 38.1367 51.6144 46.8387 43.1277 49.6644C42.6972 49.8073 41.9693 49.7094 41.8265 50.1203L41.8089 66.3131C41.9126 68.5283 38.9167 69.2797 38.2984 67.0743L38.2612 50.0225C35.9424 49.5783 33.8193 48.6097 32.0405 47.0677C31.0915 49.4178 28.7003 51.4647 26.3717 52.4333C25.8219 52.6623 23.5578 53.1828 23.4717 53.4391L23.4502 70.0194C23.1997 72.1523 20.2783 72.3813 19.9436 70.1974L19.8458 53.3041C9.32217 51.359 7.65498 38.9214 8.40834 30.0746C6.34197 29.9024 4.47323 30.1 3.61616 32.2173C3.48896 52.9519 3.41069 73.7628 3.65529 94.4915C3.88815 95.3036 4.94286 96.3309 5.77059 96.4777V96.4797ZM69.926 30.0765H61.7232V72.9448C61.7232 75.1463 58.559 77.8271 56.5005 78.2694C48.5696 79.9738 39.0948 75.6472 32.4241 82.1204C30.9447 83.5548 28.5222 87.4958 28.5222 89.5466V96.4797H36.5294V91.1082C36.5294 88.0751 39.7405 85.2024 42.6738 84.95C51.5302 84.1888 61.6664 87.7483 67.662 79.0795C68.525 77.833 69.926 74.6081 69.926 73.1405V30.0765ZM79.8861 30.0765H73.4404V73.1405C73.4404 75.6531 71.5737 79.6842 70.0865 81.7017C63.3023 90.9086 52.446 87.9655 42.5309 88.5173C41.5349 88.5897 40.0438 90.2197 40.0438 91.1082V96.4797H82.2284C81.7627 95.7458 81.2187 95.0355 80.8586 94.2352C80.5416 93.5268 79.8842 91.6052 79.8842 90.9125V30.0765H79.8861ZM89.2161 83.4491C81.7764 84.2612 81.6942 95.2253 88.4686 96.3916C99.0627 98.2154 98.9355 82.3866 89.2161 83.4491Z" fill="#ED1C24"/>
<path d="M10.1689 89.838H15.1489C15.2076 89.838 16.1136 90.245 16.2173 90.333C17.1624 91.1373 16.8259 92.9082 15.6479 93.2663C14.8417 93.5109 9.17089 93.4816 8.11422 93.3583C7.21018 93.2526 6.75229 92.7908 6.64858 91.8926C6.5253 90.834 6.49399 85.165 6.74055 84.3588C7.09864 83.1808 8.86954 82.8442 9.67378 83.7894C9.76184 83.8931 10.1689 84.7991 10.1689 84.8578V89.838Z" fill="#ED1C24"/>
</svg>
