<svg width="100" height="101" viewBox="0 0 100 101" fill="none" xmlns="http://www.w3.org/2000/svg">
<path d="M55.6112 0C56.5819 0.640587 57.7335 1.33741 57.7481 2.68949L57.7946 7.07579C57.8044 8.02689 57.044 8.64059 56.2445 8.63814C55.445 8.6357 54.6895 8.00978 54.6846 7.08068L54.665 3.1687H40.6626L40.6552 6.84352C40.6552 7.85086 40.0733 8.59658 39.1198 8.64059C38.401 8.67482 37.5232 8.11002 37.5232 7.20049V3.03667C37.5183 1.35941 38.7677 0.858191 39.5892 0.00488998L55.6112 0Z" fill="#ED1C24"/>
<path d="M0 98.8731V17.0736C0.628362 16.142 1.34719 14.9489 2.68949 14.9391L11.7408 14.8657L11.7702 8.53565C11.7751 7.52343 12.6773 6.99776 13.5183 7.09556C14.3594 7.19336 14.8802 7.83639 14.8802 8.77037V14.878H23.4254C25.2078 14.878 26.5819 16.2545 26.5819 18.0344V22.6799L31.2641 22.675L31.2567 15.1102C31.2567 14.367 31.511 13.7361 32.22 13.4379L46.5672 7.37429C47.3765 7.03199 47.956 7.03932 48.7628 7.37918L63.1149 13.4452C63.7017 13.6946 64.0489 14.2569 64.0465 14.8853L64.0244 27.5308C64.0244 28.4672 63.1027 28.988 62.3545 28.922C61.6064 28.8559 60.9267 28.3058 60.9218 27.4525L60.8753 15.8975L47.6284 10.3498L34.3961 15.9146L34.4034 23.9122C34.4034 25.0051 33.8484 25.8559 32.6797 25.8046L26.6161 25.8095L26.577 27.3278C26.5501 28.3181 25.8557 28.9293 25 28.9244C24.1443 28.9195 23.4548 28.2863 23.4597 27.3156L23.4474 17.9978L3.16381 18.0051V96.8242H17.0709C18.1174 96.8242 18.7726 97.4819 18.7677 98.4134C18.7628 99.274 18.1125 99.9831 17.066 99.9855L2.19804 100.015C1.20049 100.015 0.569682 99.7044 0 98.8755L0 98.8731Z" fill="#ED1C24"/>
<path d="M96.8287 96.8262L96.8361 18.0071L71.8752 17.9998V26.3519C71.8703 27.2956 71.4058 27.9925 70.5133 28.1392C69.7603 28.2638 68.7383 27.6942 68.7407 26.7113V17.8873C68.7456 16.0267 70.3911 14.858 72.1759 14.8604L75.7383 14.8653V10.7211C75.7383 9.23695 76.5671 7.9949 77.9975 7.52546L89.1393 3.87265C91.0317 3.25162 92.9119 4.91421 92.9143 6.79197L92.9241 14.8702L96.6405 14.8629C98.1979 14.8604 99.9803 15.9656 99.9803 17.8629L99.9999 98.232C99.9999 99.2858 99.2419 99.9802 98.2786 99.9802H81.2371C80.2713 99.9778 79.6429 99.1563 79.6527 98.3959C79.6625 97.5621 80.2517 96.8604 81.2297 96.8237H96.8287V96.8262ZM89.8092 14.8629L89.7896 6.92644L78.9412 10.5255L78.9045 14.8824L89.8092 14.8629Z" fill="#ED1C24"/>
<path d="M60.1271 55.4698C60.1222 51.9099 57.3178 49.2375 53.9144 49.2399L44.3863 49.2497C40.8924 49.2546 38.2885 52.1617 38.2934 55.6189L38.3105 71.8927C38.3105 72.8414 39.1711 73.4209 39.8851 73.3891C40.7897 73.35 41.4156 72.6849 41.4132 71.7069L41.3936 59.548C41.3936 58.5773 41.9804 57.8879 42.8313 57.8169C43.6821 57.746 44.533 58.3059 44.533 59.2913L44.5281 71.9539C44.5281 74.592 42.3252 76.5309 39.8753 76.5358C37.4254 76.5407 35.1858 74.6091 35.1858 71.9588V55.3524C35.1858 50.2742 39.3178 46.1103 44.3789 46.1128L54.1613 46.1201C59.3203 46.1226 63.2885 50.4624 63.2811 55.5969L63.264 71.9368C63.2616 74.4844 61.2127 76.3866 58.8753 76.5284C56.4132 76.6776 53.9657 74.8463 53.9535 72.2057L53.8924 59.5064C53.8875 58.4698 54.577 57.8047 55.4841 57.8121C56.3912 57.8194 57.0366 58.4673 57.0366 59.5064L57.0269 71.7045C57.0269 72.6605 57.6577 73.3328 58.4816 73.3842C59.3887 73.4429 60.1516 72.7558 60.1491 71.7069L60.1271 55.4649V55.4698Z" fill="#ED1C24"/>
<path d="M53.5696 100.013L45.1051 99.9636C42.7701 99.9514 40.6723 97.9514 40.6674 95.5773L40.6283 79.5724C40.6283 78.6947 41.4009 78.147 42.0904 78.1054C42.9021 78.0541 43.7554 78.6213 43.7554 79.5798L43.7628 95.1225C43.7628 96.0125 44.2933 96.7949 45.1784 96.7925L47.6601 96.7876V70.279C47.6576 69.4086 48.2958 68.8658 49.0219 68.7216C49.5745 68.6115 50.753 69.0736 50.7554 69.9612L50.8019 96.7729L53.3251 96.7802C54.1711 96.7827 54.6845 95.9783 54.6845 95.1177L54.6772 79.7607C54.6772 78.7485 55.3618 78.1005 56.2347 78.1005C57.1075 78.1005 57.819 78.724 57.8166 79.7534L57.7652 95.6091C57.7579 97.9343 55.8386 99.5944 53.5721 100.008L53.5696 100.013Z" fill="#ED1C24"/>
<path d="M73.0783 100.01L64.6162 99.9609C62.2812 99.9487 60.1834 97.9487 60.1785 95.5746L60.1394 79.5697C60.1394 78.692 60.912 78.1443 61.6015 78.1027C62.4132 78.0514 63.2665 78.6186 63.2665 79.577L63.2739 95.1198C63.2739 96.1125 63.9218 96.8313 64.8998 96.8166L67.1736 96.7849L67.159 73.6651C67.159 72.6211 67.714 71.8876 68.6895 71.846C69.5355 71.8118 70.3106 72.4768 70.3106 73.4939L70.3057 96.7726L72.8411 96.7775C73.6822 96.7775 74.2005 95.9707 74.2005 95.1198L74.1907 82.9193C74.1907 81.8827 74.8485 81.2347 75.7433 81.225C76.6382 81.2152 77.3375 81.8851 77.3326 82.9193L77.2788 95.6113C77.269 97.9267 75.3643 99.5942 73.0807 100.007L73.0783 100.01Z" fill="#ED1C24"/>
<path d="M34.0561 100.01L25.594 99.9608C23.2444 99.9485 21.1612 97.9437 21.1515 95.5794L21.1001 82.9339C21.0952 81.9583 21.7358 81.2762 22.5696 81.2248C23.5451 81.1661 24.2566 81.8776 24.2566 82.9339L24.2664 95.3666C24.2664 96.2444 25.0757 96.8287 25.8532 96.8165L28.1441 96.7847L28.1319 73.6674C28.1319 72.6869 28.5769 72.0097 29.4889 71.8605C30.2322 71.7383 31.2639 72.2908 31.2639 73.3006L31.2786 96.7749L33.8092 96.7798C34.6527 96.7798 35.1686 95.9779 35.1686 95.1172L35.1612 79.7603C35.1612 78.7481 35.8458 78.1001 36.7187 78.1001C37.5916 78.1001 38.3031 78.7236 38.3006 79.7529L38.2493 95.6087C38.2419 97.9339 36.3226 99.594 34.0561 100.007V100.01Z" fill="#ED1C24"/>
<path d="M76.5403 62.5527V74.8779C76.5403 75.8168 77.198 76.4451 77.9364 76.5087C78.8679 76.587 79.6552 75.9219 79.6552 74.8803L79.6381 58.5405C79.6356 55.0735 76.8459 52.362 73.4303 52.3547L66.3594 52.34C65.4767 52.34 64.8459 51.6261 64.8068 50.8192C64.775 50.1591 65.3545 49.2324 66.2151 49.2349L73.8166 49.2447C78.9339 49.252 82.8043 53.6579 82.797 58.7703L82.7701 75.1151C82.7652 77.719 80.5574 79.6432 78.1564 79.6652C75.7554 79.6872 73.44 77.7581 73.4352 75.1395L73.4205 62.4427C73.4205 61.5283 74.2224 60.9024 74.9902 60.9146C75.7579 60.9268 76.5378 61.5112 76.5403 62.5552V62.5527Z" fill="#ED1C24"/>
<path d="M21.8899 74.8829L21.9144 62.3132C21.9144 61.4428 22.8312 60.8756 23.506 60.9025C24.2909 60.9367 25.0293 61.57 25.0268 62.4599L25.0097 75.1274C25.0073 77.7411 22.7872 79.6555 20.3618 79.6629C17.9364 79.6702 15.6821 77.7533 15.6772 75.1347L15.6454 58.7753C15.6356 53.6946 19.4376 49.5064 24.5232 49.2423L31.9192 49.1934C32.8581 49.1861 33.5329 49.834 33.5989 50.6286C33.665 51.4233 33.1271 52.3157 32.1735 52.323L24.8752 52.3646C21.3447 52.3841 18.775 55.301 18.7774 58.7949L18.7848 74.8536C18.7848 75.7949 19.4205 76.433 20.1368 76.5064C21.132 76.6091 21.8899 75.9367 21.8923 74.8878L21.8899 74.8829Z" fill="#ED1C24"/>
<path d="M38.2958 38.2909C38.2958 43.0342 34.4498 46.8801 29.7066 46.8801C24.9633 46.8801 21.1173 43.0342 21.1173 38.2909C21.1173 33.5476 24.9633 29.7017 29.7066 29.7017C34.4498 29.7017 38.2958 33.5476 38.2958 38.2909ZM35.1515 38.2909C35.1515 35.2811 32.7114 32.8435 29.7041 32.8435C26.6968 32.8435 24.2567 35.2836 24.2567 38.2909C24.2567 41.2982 26.6968 43.7383 29.7041 43.7383C32.7114 43.7383 35.1515 41.2982 35.1515 38.2909Z" fill="#ED1C24"/>
<path d="M77.3202 38.2909C77.3202 43.0342 73.4742 46.8801 68.731 46.8801C63.9877 46.8801 60.1417 43.0342 60.1417 38.2909C60.1417 33.5476 63.9877 29.7017 68.731 29.7017C73.4742 29.7017 77.3202 33.5476 77.3202 38.2909ZM74.176 38.2909C74.176 35.2811 71.7359 32.8435 68.7285 32.8435C65.7212 32.8435 63.2811 35.2836 63.2811 38.2909C63.2811 41.2982 65.7212 43.7383 68.7285 43.7383C71.7359 43.7383 74.176 41.2982 74.176 38.2909Z" fill="#ED1C24"/>
<path d="M57.8068 35.1688C57.8068 39.9121 53.9608 43.7581 49.2175 43.7581C44.4743 43.7581 40.6283 39.9121 40.6283 35.1688C40.6283 30.4256 44.4743 26.5796 49.2175 26.5796C53.9608 26.5796 57.8068 30.4256 57.8068 35.1688ZM54.665 35.1713C54.665 32.1639 52.2273 29.7238 49.2175 29.7238C46.2078 29.7238 43.7701 32.1615 43.7701 35.1713C43.7701 38.1811 46.2078 40.6187 49.2175 40.6187C52.2273 40.6187 54.665 38.1811 54.665 35.1713Z" fill="#ED1C24"/>
<path d="M17.2029 33.6063L9.51099 33.621C8.52566 33.621 7.8484 32.9364 7.8484 31.9511L7.84351 24.3839C7.84351 23.379 8.48165 22.6772 9.5061 22.6797L17.3203 22.6993C18.11 22.6993 18.7628 23.357 18.7628 24.1442L18.7799 31.9633C18.7799 32.8435 18.2249 33.6063 17.2005 33.6088L17.2029 33.6063ZM15.6552 25.8068H10.9755V30.4865H15.6552V25.8068Z" fill="#ED1C24"/>
<path d="M10.9926 41.4084L10.9755 46.093L13.9193 46.0856C14.9217 46.0832 15.6821 46.758 15.6748 47.6749C15.6675 48.5918 14.9242 49.2372 13.9169 49.2372L9.50854 49.2323C8.52321 49.2323 7.8484 48.5502 7.8484 47.56L7.84351 39.9927C7.84351 38.9878 8.4792 38.2861 9.5061 38.2886L17.3178 38.3081C18.1173 38.3081 18.7579 38.9658 18.7628 39.7482L18.7848 44.4011C18.7897 45.4279 18.1125 46.0979 17.2005 46.0881C16.2885 46.0783 15.6504 45.4353 15.6479 44.4011L15.6406 41.4255L10.9926 41.4084Z" fill="#ED1C24"/>
<path d="M76.4304 30.3618C75.4083 30.6869 74.5966 30.2811 74.3105 29.5207C74.0245 28.7603 74.2959 27.7481 75.2445 27.4449L92.5917 21.9241C93.4279 21.6576 94.2176 22.33 94.4157 22.9755C94.6822 23.8312 94.2445 24.6967 93.3106 24.9926L76.4279 30.3593L76.4304 30.3618Z" fill="#ED1C24"/>
<path d="M54.7433 21.8874L40.7359 21.9118C39.7286 21.9118 39.0905 21.2126 39.0807 20.3519C39.0709 19.4913 39.709 18.7773 40.731 18.7773L54.6381 18.7822C55.5526 18.7822 56.1442 19.3837 56.2347 20.1661C56.3252 20.9485 55.8313 21.8849 54.7457 21.8874H54.7433Z" fill="#ED1C24"/>
<path d="M13.0659 77.3031C14.2321 77.3031 14.8727 77.9853 14.8678 78.8948C14.8629 79.8043 14.215 80.4449 13.1808 80.4474H9.50842C8.53042 80.4474 7.84583 79.7628 7.84827 78.7799L7.86783 70.9755C7.86783 70.1931 8.48886 69.5256 9.26392 69.5403L12.171 69.5941C13.1123 69.6112 13.4693 70.7799 13.2615 71.4938C13.0096 72.3642 12.2126 72.8043 11.0561 72.5769L10.973 77.3007H13.0659V77.3031Z" fill="#ED1C24"/>
<path d="M80.9144 85.1297C79.9486 85.4378 79.1809 84.7825 78.9682 84.1004C78.7286 83.3424 79.0782 82.428 79.9364 82.1542L92.5036 78.1591C93.4058 77.873 94.2396 78.4769 94.4523 79.2789C94.643 80.0026 94.2591 80.8877 93.3716 81.1713L80.9193 85.1297H80.9144Z" fill="#ED1C24"/>
<path d="M81.0048 94.4644C79.9876 94.7896 79.1612 94.2028 78.9559 93.4277C78.7505 92.6526 79.105 91.7773 80.0096 91.4913L92.5647 87.5035C93.4253 87.2297 94.2248 87.8654 94.4326 88.5768C94.6405 89.2883 94.3104 90.2272 93.4449 90.5035L81.0072 94.4644H81.0048Z" fill="#ED1C24"/>
<path d="M81.7359 47.4009C80.7286 47.7212 79.9242 47.1148 79.7041 46.3202C79.5012 45.5891 79.8631 44.709 80.7432 44.4302L92.5623 40.6772C93.4205 40.4033 94.2225 41.0415 94.4303 41.7505C94.6381 42.4596 94.308 43.4033 93.4425 43.6772L81.7335 47.4009H81.7359Z" fill="#ED1C24"/>
<path d="M81.8533 38.0149C80.8826 38.3254 80.1002 37.9073 79.7799 37.1811C79.445 36.4183 79.7604 35.3841 80.6895 35.0882L92.5012 31.3303C93.401 31.0442 94.2371 31.6506 94.4474 32.4501C94.6406 33.1811 94.2543 34.0564 93.3667 34.34L81.8508 38.0173L81.8533 38.0149Z" fill="#ED1C24"/>
<path d="M12.2175 64.7232C11.1588 64.9432 10.0634 64.8625 9.07811 64.7721C8.29327 64.6987 7.84583 63.9163 7.84828 63.1804L7.86784 55.3662C7.87273 53.7867 10.0488 53.6156 12.171 53.9848C13.1099 54.1486 13.4693 55.1706 13.2615 55.8845C13.0072 56.755 12.2126 57.1926 11.0561 56.9677L10.973 61.7378C12.0023 61.6009 12.8678 61.8063 13.2224 62.7085C13.4693 63.3418 13.2615 64.5056 12.2199 64.7207L12.2175 64.7232Z" fill="#ED1C24"/>
<path d="M86.3105 64.6803C85.3325 64.9908 84.5012 64.3967 84.3007 63.6705C84.0758 62.8466 84.4425 61.981 85.3325 61.6974L92.3276 59.4651C93.2151 59.1815 94.0513 59.5409 94.3838 60.3502C94.6919 61.0935 94.3569 62.118 93.4181 62.4162L86.3105 64.6803Z" fill="#ED1C24"/>
<path d="M85.8679 55.3963C85.0782 55.6408 84.3618 54.6946 84.2689 54.1738C84.1198 53.3426 84.5477 52.5626 85.4327 52.2863L92.4743 50.0736C93.3936 49.7851 94.2298 50.3401 94.4547 51.1885C94.643 51.9049 94.2469 52.7998 93.3521 53.0785L85.8704 55.3963H85.8679Z" fill="#ED1C24"/>
<path d="M86.5818 73.9677C85.6209 74.2733 84.7945 73.8601 84.5207 73.178C84.1881 72.3418 84.4864 71.3418 85.4131 71.0459L92.6062 68.755C93.418 68.4958 94.2175 69.156 94.4204 69.8063C94.6869 70.667 94.2346 71.5276 93.3275 71.8161L86.5842 73.9653L86.5818 73.9677Z" fill="#ED1C24"/>
</svg>
