<svg width="64" height="58" viewBox="0 0 64 58" fill="none" xmlns="http://www.w3.org/2000/svg">
<path d="M51.0072 57.9311H50.1401C50.2344 57.8443 49.4728 57.7823 48.8079 57.6099C46.5442 57.0207 44.8523 55.3958 44.144 53.1457L33.3674 53.1531C32.2957 56.2008 30.347 57.3258 27.4841 57.9311H26.3702L25.3618 57.6595C23.077 57.0455 21.2685 55.5123 20.5478 53.1779L15.384 53.1233C14.5827 53.1146 14.0046 52.4039 14.0071 51.6324L14.0108 50.2543C13.9587 49.5125 14.3631 48.9853 15.0664 48.6529C14.997 43.9716 18.2394 39.9043 22.7768 38.9182L27.9877 29.9426C28.8151 28.5162 30.3023 27.7608 31.9521 27.6987L48.5226 27.7012C50.5557 27.7186 52.2935 28.8945 52.998 30.7861L56.0073 38.8698C59.2608 39.6066 61.8161 42.3107 61.8942 45.671L61.9637 48.6417C63.5713 48.8328 63.508 50.7455 63.3219 51.837C63.1867 52.6321 62.5653 53.1457 61.7727 53.1444L56.9773 53.1407C56.1474 55.9614 53.7845 57.502 51.0072 57.9311ZM50.573 44.5C53.3863 44.4951 55.7306 46.0704 56.7862 48.602H60.5409L60.4851 45.9091C60.0932 45.7814 59.7657 45.8173 59.4246 45.8347C58.2822 45.8942 57.3519 45.0979 57.3457 43.9493L57.3283 40.857C56.2504 40.1177 55.1477 40.5295 54.8227 39.6612L51.6547 31.1967C51.2193 30.0332 50.067 29.1314 48.7745 29.1302L31.9521 29.114C30.801 29.114 29.7479 29.702 29.1723 30.6869L23.6686 40.1115C23.1563 40.4116 22.5225 40.2653 22.0685 40.6486C21.6666 40.9884 22.3029 43.8141 19.6758 44.6427L17.0101 45.4837C16.6219 46.4996 16.4222 47.5378 16.4929 48.6256L20.7289 48.6169C21.7311 46.1584 23.9713 44.6228 26.6134 44.5013C29.4688 44.3685 32.0575 45.8955 33.1639 48.6157L44.3474 48.6194C45.4179 46.0605 47.7685 44.505 50.5768 44.5H50.573ZM20.3654 41.3854C19.3892 42.0056 18.6599 42.6754 18.0211 43.6032C19.3012 43.54 20.7165 42.7808 20.3654 41.3854ZM60.2693 44.371C59.9319 43.4258 59.5523 42.6283 58.8069 42.0043C58.6406 42.7238 58.7399 43.3043 58.7312 43.953C58.7225 44.6017 59.8674 44.4988 60.2693 44.3698V44.371ZM32.282 51.1672C32.282 48.22 29.893 45.8322 26.9458 45.8322C23.9986 45.8322 21.6096 48.2212 21.6096 51.1672C21.6096 54.1132 23.9986 56.5022 26.9458 56.5022C29.893 56.5022 32.282 54.1132 32.282 51.1672ZM55.9018 51.1684C55.9018 48.2212 53.5116 45.8322 50.5644 45.8322C47.6172 45.8322 45.2269 48.2212 45.2269 51.1684C45.2269 54.1157 47.6172 56.5047 50.5644 56.5047C53.5116 56.5047 55.9018 54.1157 55.9018 51.1684ZM20.2228 51.7651C20.229 51.0382 20.2377 50.6152 20.3171 50.0037L15.41 50.031C15.3914 50.6946 15.3455 51.1871 15.446 51.7775L20.2228 51.7651ZM43.9183 49.9925H33.5944V51.7824H43.9183V49.9925ZM61.9277 51.7651C61.96 51.0382 61.9873 50.5867 61.9029 49.9987H57.1931C57.2911 50.6065 57.27 51.1325 57.2998 51.7775L61.9277 51.7651Z" fill="#ED1C25" fill-opacity="0.5"/>
<path d="M39.68 37.9367C39.68 38.3882 39.3984 38.7032 38.9878 38.7032L26.998 38.7057C26.7078 38.7057 26.4982 38.5606 26.4076 38.408C26.2935 38.2158 26.2216 37.9305 26.3543 37.7022L30.1164 31.2137C30.4836 30.5811 31.2092 30.2139 31.9373 30.2139L38.9965 30.2114C39.4108 30.2114 39.68 30.5637 39.68 30.9519V37.9379V37.9367ZM38.2919 37.3127L38.2845 31.6044L32.3157 31.5846C31.8443 31.5473 31.4263 31.6701 31.1819 32.077L28.2174 37.3152L38.2932 37.3127H38.2919Z" fill="#ED1C25" fill-opacity="0.5"/>
<path d="M52.2364 38.7207L41.4784 38.7182C41.0604 38.7182 40.7689 38.4007 40.7676 38L40.7651 30.9458C40.7651 30.5365 41.043 30.2053 41.4709 30.2065L48.6504 30.2177C49.6142 30.219 50.3746 30.8578 50.6933 31.7236L52.9273 37.7755C53.0117 38.0037 52.9558 38.2394 52.8417 38.4292C52.7549 38.5731 52.5291 38.7219 52.2364 38.7219V38.7207ZM49.4021 32.1651C49.2272 31.7719 48.9146 31.5946 48.5288 31.5809L42.1656 31.602V37.3265L51.3061 37.3141L49.4021 32.1639V32.1651Z" fill="#ED1C25" fill-opacity="0.5"/>
<path d="M54.4414 51.1696C54.4414 53.3081 52.7073 55.041 50.5688 55.041C48.4304 55.041 46.6963 53.3081 46.6963 51.1696C46.6963 49.0312 48.4304 47.2983 50.5688 47.2983C52.7073 47.2983 54.4414 49.0312 54.4414 51.1696ZM53.0633 51.1709C53.0633 49.7953 51.9469 48.6789 50.5713 48.6789C49.1957 48.6789 48.0793 49.794 48.0793 51.1709C48.0793 52.5477 49.1957 53.6629 50.5713 53.6629C51.9469 53.6629 53.0633 52.5477 53.0633 51.1709Z" fill="#ED1C25" fill-opacity="0.5"/>
<path d="M30.8242 51.1721C30.8242 53.3118 29.0901 55.0459 26.9504 55.0459C24.8107 55.0459 23.0767 53.3118 23.0767 51.1721C23.0767 49.0324 24.8107 47.2983 26.9504 47.2983C29.0901 47.2983 30.8242 49.0324 30.8242 51.1721ZM29.4437 51.1721C29.4437 49.7953 28.3273 48.6802 26.9504 48.6802C25.5736 48.6802 24.4572 49.7965 24.4572 51.1721C24.4572 52.5477 25.5736 53.6641 26.9504 53.6641C28.3273 53.6641 29.4437 52.5477 29.4437 51.1721Z" fill="#ED1C25" fill-opacity="0.5"/>
<path d="M0.00585938 35.1556V13.6184L0.577686 13.2314L4.47008 13.2202C7.48799 13.2116 9.90058 15.391 10.3211 18.3481L44.6692 18.3456C45.1231 18.3456 45.3886 18.6805 45.3873 19.0638L45.3811 23.6396C45.3811 24.0205 45.0847 24.3144 44.6592 24.3144H10.3645L10.3583 34.776C10.3583 35.2399 10.109 35.5525 9.64505 35.5798L0.564042 35.5711L0.00709978 35.1543L0.00585938 35.1556ZM8.94794 18.874C8.94174 16.4602 6.91244 14.6207 4.67227 14.6194L1.44473 14.6169V34.1918L8.9864 34.1633L8.94794 18.8753V18.874ZM12.6828 19.8242C11.7463 19.6406 11.1534 19.7597 10.3645 19.7584C10.3595 20.5523 10.2764 21.1551 10.4116 22.0681C11.2377 21.3933 11.9373 20.6441 12.684 19.8242H12.6828ZM15.8744 22.919L18.8675 19.782L14.7518 19.7497L11.662 22.9115L15.8744 22.9202V22.919ZM22.0628 22.9215L25.103 19.7894L21.001 19.7249L17.8541 22.9066L22.0628 22.9215ZM28.2536 22.9215L31.2939 19.7894L27.1918 19.7249L24.0449 22.9066L28.2536 22.9215ZM34.442 22.9301L37.4884 19.7907L33.3864 19.7287L30.2383 22.9053L34.442 22.9314V22.9301ZM40.6329 22.9301L43.6793 19.7907L39.5773 19.7287L36.4291 22.9053L40.6329 22.9314V22.9301Z" fill="#ED1C25" fill-opacity="0.5"/>
<path d="M7.76159 21.329C7.76159 22.7443 6.61421 23.8905 5.19891 23.8905C3.78361 23.8905 2.63623 22.7431 2.63623 21.329C2.63623 19.915 3.78361 18.7676 5.19891 18.7676C6.61421 18.7676 7.76159 19.915 7.76159 21.329ZM6.37481 21.329C6.37481 20.679 5.84764 20.1519 5.19767 20.1519C4.5477 20.1519 4.02052 20.679 4.02052 21.329C4.02052 21.979 4.5477 22.5062 5.19767 22.5062C5.84764 22.5062 6.37481 21.979 6.37481 21.329Z" fill="#ED1C25" fill-opacity="0.5"/>
<path d="M0.00124041 9.6578V0.498643C0.338631 0.171176 0.690906 0 1.25901 0L23.8642 0.00744243C24.4037 0.110396 24.7052 0.355996 24.7052 0.873246L24.699 9.28072C24.699 9.67144 24.4422 10.0126 23.9981 10.0126L0.64129 10.0101L0 9.65904L0.00124041 9.6578ZM23.3234 1.44879H1.43887V8.63819H23.3234V1.44879Z" fill="#ED1C25" fill-opacity="0.5"/>
<path d="M8.17719 5.02875C8.22184 6.27164 6.07098 5.45917 5.74723 5.87223C5.07245 6.73183 8.12881 5.48026 8.16106 6.86952C8.16974 7.26149 7.88197 7.57779 7.40565 7.57531L4.99307 7.56414C4.63831 7.5629 4.32201 7.25776 4.32325 6.89184L4.33193 3.17187C4.33193 2.76997 4.69661 2.52686 5.07121 2.52686H7.43294C7.87949 2.52686 8.13253 2.79726 8.15486 3.16566C8.18091 3.5874 7.90802 3.90743 7.42798 3.90991L5.9395 3.91735C5.7832 3.91735 5.71374 4.05379 5.71126 4.15055C5.70754 4.2411 5.777 4.35769 5.9395 4.35893L7.43418 4.36266C7.86212 4.36266 8.1623 4.62686 8.17719 5.02999V5.02875Z" fill="#ED1C25" fill-opacity="0.5"/>
<path d="M11.9944 5.05058C12.2958 5.75761 13.5759 6.81568 12.7746 7.39495C12.4235 7.64923 11.982 7.57729 11.7512 7.21881C11.5602 6.92111 11.4139 6.65071 11.1447 6.35177C10.8495 6.67055 10.7118 6.97569 10.4848 7.28455C10.2578 7.59341 9.82861 7.62939 9.50859 7.39867C9.25555 7.21633 9.13523 6.83056 9.3585 6.48821L10.295 5.04934L9.37463 3.64768C9.14515 3.29913 9.21833 2.87615 9.5272 2.67396C9.85218 2.46061 10.2615 2.50651 10.5096 2.85506C10.7143 3.1416 10.8482 3.43929 11.1447 3.72211C11.4697 3.42069 11.5875 3.08454 11.8356 2.7918C12.0837 2.49907 12.4781 2.47674 12.7622 2.669C13.0276 2.84886 13.1579 3.25199 12.952 3.57078L11.9944 5.05058Z" fill="#ED1C25" fill-opacity="0.5"/>
<path d="M19.8113 3.9035C18.721 4.05731 19.242 4.04242 19.1366 6.81225C19.1204 7.23771 18.8612 7.54037 18.4853 7.57014C17.1333 7.67433 18.0624 4.8338 17.6543 3.92583C17.1817 3.89854 16.7016 3.91962 16.5826 3.45943C16.4994 3.13817 16.6061 2.59363 17.111 2.5651C18.009 2.51549 18.8947 2.54029 19.7977 2.55518C20.1773 2.56138 20.3633 2.89505 20.3906 3.16546C20.4291 3.5289 20.181 3.8514 19.8101 3.90474L19.8113 3.9035Z" fill="#ED1C25" fill-opacity="0.5"/>
<path d="M15.4879 6.84358C15.4879 7.29509 15.1307 7.56301 14.7958 7.56177C14.4373 7.56177 14.1384 7.29136 14.0962 6.89071L14.1012 3.26625C14.1012 2.8259 14.415 2.53441 14.7945 2.53565C15.1741 2.53689 15.4879 2.8259 15.4879 3.26749V6.84482V6.84358Z" fill="#ED1C25" fill-opacity="0.5"/>
</svg>
