<svg width="63" height="63" viewBox="0 0 63 63" fill="none" xmlns="http://www.w3.org/2000/svg">
<path d="M0.671528 62.7575C-0.23278 62.4738 -0.0303231 60.6731 0.732879 60.6731H15.7343V52.0921C10.8042 54.7367 4.79674 53.135 1.77093 48.4784C-1.75918 43.0444 0.201582 35.7359 5.80903 32.6455C5.4397 31.7353 4.88509 30.9136 4.58693 29.969C2.84825 24.4674 6.00903 18.8823 11.5735 17.5815C11.5465 17.3531 11.4778 16.8814 11.2484 16.8028C7.84342 16.481 3.40163 17.864 1.03963 14.641C-1.2512 11.5161 0.523059 7.11388 4.236 6.28845C5.65565 -1.99649 17.1908 -2.13284 18.8129 6.10421C23.7737 6.39286 27.2462 10.3603 26.7419 15.3607C26.6621 16.1506 26.3173 16.8802 26.1443 17.6429C31.7174 18.7656 34.8389 24.4822 33.1812 29.8978C32.8831 30.8731 32.3309 31.7304 31.9076 32.6455C36.585 35.2581 38.8218 40.6676 37.2279 45.84C35.4512 51.6057 28.9861 54.8988 23.2964 52.6768C22.8841 52.5159 22.505 52.2751 22.1038 52.0933V60.6743H39.7384V57.6097C36.9506 58.0457 36.8868 54.8755 39.7384 55.4036V54.4222C36.8782 54.9479 36.958 51.7764 39.7384 52.2162V49.1515C38.6856 49.2486 37.358 49.2117 37.6819 47.7685C37.9322 46.6532 39.504 47.2477 39.7249 47.0536C39.7519 47.0303 39.8059 46.6188 39.9801 46.3903C40.3801 45.867 41.109 45.8327 41.5691 46.2761C41.8697 46.566 41.7176 47.1162 42.2415 47.0745H58.5264C58.6184 45.8474 60.1608 45.5293 60.6405 46.679C60.6896 46.7956 60.6565 47.0303 60.6847 47.0597C60.7964 47.1752 62.5473 46.7932 62.7596 47.68V48.5386C62.2835 49.3628 61.5007 49.1343 60.6774 49.1515V52.2162C61.5154 52.1597 62.1633 52.1806 62.7596 52.8291V53.8093C62.2774 54.6286 61.4467 54.3412 60.6761 54.4922V55.4036C61.5007 55.3987 62.2455 55.228 62.7596 56.0166V56.9968C62.1633 57.6453 61.5154 57.6662 60.6774 57.6097V60.6743C61.5007 60.6915 62.2823 60.463 62.7596 61.2872V62.7588H0.671528V62.7575ZM10.9588 14.5795C10.8361 11.3159 12.565 8.47853 15.4067 6.95665C15.6534 6.824 16.5172 6.62255 16.5822 6.41128C15.5589 0.76843 7.57593 0.745092 6.43726 6.43585C6.29861 7.12862 6.60413 7.9651 5.64093 8.33605C4.83601 8.64681 4.39674 8.35693 3.49979 9.01162C1.14393 10.7312 2.21388 14.3302 5.13785 14.5832C6.99555 14.7441 9.07779 14.4543 10.96 14.5795H10.9588ZM20.0203 44.2457C22.013 42.5125 23.6657 40.3691 25.7553 38.765C27.04 38.437 27.7161 39.5314 26.8744 40.6258C25.1467 42.8749 22.0387 44.9483 20.3221 47.185C20.2522 47.2759 20.1221 47.3287 20.1528 47.4774C22.4829 50.7299 26.3713 52.0614 30.1456 50.5211C36.3923 47.9699 37.4525 39.2477 31.9383 35.3208C31.3346 34.8909 29.1174 33.9377 28.9861 33.4955C28.6842 32.4797 29.6094 31.9749 30.1125 31.2416C32.9751 27.0678 30.9837 21.0306 25.9971 19.8146C25.2842 19.6402 23.8449 19.7163 23.4473 19.1796C22.7749 18.2718 23.6424 17.654 23.9995 16.906C25.2437 14.2995 24.4707 10.9155 22.0228 9.32729C17.1564 6.16808 11.468 11.2324 13.5944 16.5387C13.8558 17.1922 14.592 18.02 14.5086 18.6747C14.3601 19.8428 12.7024 19.5837 11.8128 19.7851C6.7023 20.9422 4.7857 27.0579 7.67409 31.2919C8.05692 31.8533 8.97472 32.5215 8.85693 33.2425C8.7146 34.1084 7.29494 34.386 6.59186 34.7852C-1.54691 39.4123 2.5415 52.4188 11.8619 51.0947C14.1944 50.7631 16.2546 49.4119 17.5564 47.4712L17.4595 47.2464L10.8373 40.6283C9.86063 39.4983 11.0373 38.0943 12.3012 38.9185L17.8178 44.3685V34.0089L12.9772 29.1694C11.8889 27.7188 13.23 26.4831 14.6975 27.693C15.7761 28.5823 16.6914 29.8929 17.8178 30.7601V25.7952C17.8178 25.697 18.1859 25.2634 18.3172 25.1897C19.0276 24.7905 20.0227 25.3948 20.0227 26.1625V30.6372C20.9725 30.087 22.7013 27.5738 23.5799 27.2717C24.9382 26.8061 25.6572 28.016 24.7394 29.1669C23.4424 30.7945 21.3933 32.266 20.024 33.8861V44.2457H20.0203ZM58.4736 49.1503H41.9409V52.215H58.4736V49.1503ZM19.8976 60.6731V50.5592C19.8976 50.4806 18.9896 49.5655 18.8571 49.3972L17.819 50.6845L17.8104 60.2505C17.7834 60.3758 17.8988 60.6731 18.0006 60.6731H19.8988H19.8976ZM58.4736 54.421H41.9409V55.4012H58.4736V54.421ZM58.4736 57.6085H41.9409V60.6731H58.4736V57.6085Z" fill="#ED1C25" fill-opacity="0.5"/>
<path d="M62.7583 21.9345C61.9951 24.5815 60.1963 26.0419 57.4367 26.2299C53.9606 26.4669 48.5323 26.4718 45.0574 26.2299C39.0622 25.8135 37.7652 18.3515 42.958 16.0263C43.2119 15.9133 43.8451 15.8593 43.9629 15.6836C44.0659 15.5301 44.0794 14.9552 44.1801 14.6752C46.9286 6.9626 57.1005 7.917 58.584 15.7278C60.2883 16.1491 61.6834 17.1834 62.3742 18.8268L62.7595 19.9729V21.9345H62.7583ZM45.8194 17.4831C45.3641 17.9707 44.0684 17.7963 43.2942 18.3257C40.7481 20.0699 41.8855 23.7732 45.0574 24.0226C49.1421 24.3444 53.6551 23.7843 57.7852 24.0054C61.049 23.6259 61.5865 19.1745 58.714 18.0751C57.9165 17.7705 56.8612 18.0407 56.5152 17.0888C56.2551 16.3739 56.3692 15.5583 55.9925 14.669C54.2097 10.4645 47.9813 10.5996 46.4464 14.8619C46.2034 15.5387 46.147 17.1306 45.8181 17.4831H45.8194Z" fill="#ED1C25" fill-opacity="0.5"/>
</svg>
