<svg width="50" height="50" viewBox="0 0 50 50" fill="none" xmlns="http://www.w3.org/2000/svg">
<path d="M20.2989 0C21.0426 0.355364 21.4434 0.973136 21.9237 1.61221C24.4335 4.94895 25.8733 8.99739 26.401 13.1301L39.5628 13.1475C40.8332 7.72021 48.2424 7.67567 49.4837 13.1427V45.4208C49.017 47.55 47.309 49.2775 45.0897 49.4828H2.85158C1.37302 49.3085 0.175266 48.1058 0.000976562 46.6331V16.1831C0.0861848 14.6212 1.42241 13.3199 2.96487 13.1553C3.26794 13.1233 4.29237 13.2221 4.40857 13.0526C4.91691 10.1167 6.02752 7.26318 7.6 4.74368C8.06187 4.00293 9.37969 1.93659 10.1698 1.70807C11.6474 1.28009 12.4424 2.66862 13.1705 3.69985C13.7921 4.58197 14.3402 5.52122 14.8398 6.47499C15.5825 4.95767 16.3416 3.47618 17.3225 2.09636C17.8715 1.32463 18.4641 0.397969 19.3336 0.000968295H20.2999L20.2989 0ZM20.6863 22.904C21.9363 22.7985 22.9646 21.7237 23.5388 20.6828C25.029 17.9832 24.8518 13.744 24.2311 10.8062C23.5369 7.5159 21.9682 4.27502 19.7674 1.74196C18.7565 3.03657 17.7853 4.41445 17.0572 5.8911C16.8383 6.33555 15.8826 8.50453 15.8933 8.84343C15.9049 9.20558 16.6476 11.057 16.7909 11.6738C17.2828 13.7827 17.5277 16.3526 17.3012 18.506C17.1917 19.5518 16.8935 20.5617 16.7212 21.5949C16.7986 22.0713 18.4118 22.9709 18.9453 22.905V19.4743C18.9453 19.1974 19.5708 18.9176 19.8613 18.936C20.2011 18.9582 20.6843 19.3407 20.6843 19.667V22.904H20.6863ZM11.6019 24.5463C14.0962 24.1493 15.1254 21.3761 15.4518 19.1664C16.1179 14.6561 14.9637 9.93373 12.6467 6.05765C12.4975 5.8088 10.8176 3.25734 10.6375 3.38128C9.91225 4.44835 9.11826 5.46699 8.49275 6.60183C6.42355 10.3598 5.34102 15.0744 6.02462 19.3465C6.38966 21.6278 7.4199 24.034 9.8619 24.6412V21.7905C9.8619 21.623 7.77623 19.8713 7.52254 19.393C7.09166 18.5816 7.96117 17.7721 8.75322 18.2601C9.12891 18.4915 10.4787 20.1502 10.6965 20.188C11.3356 19.8936 12.485 18.1439 13.1124 18.1003C13.8628 18.048 14.2472 18.8014 13.9083 19.4579C13.6934 19.8762 11.6009 21.6259 11.6009 21.7895V24.5434L11.6019 24.5463ZM47.7447 40.6858V13.2879C47.7447 13.2395 47.4387 12.5075 47.3777 12.398C46.1693 10.2126 42.8598 10.2446 41.6736 12.4348C41.5681 12.6295 41.2699 13.4012 41.2699 13.5774V40.6848L42.5974 39.9344C44.4158 39.1995 46.2022 39.5209 47.7447 40.6848V40.6858ZM2.85642 47.7408H12.3755V44.2133C12.3755 42.6514 14.0022 40.0961 15.1768 39.0901C18.9143 35.8889 22.8775 37.5979 27.1989 37.1002C27.5726 37.0566 28.0694 36.8901 28.3414 36.6277C28.4276 36.5444 28.8033 35.9508 28.8033 35.9024V14.8827H26.3875C26.4504 18.8711 25.5412 23.1771 21.3418 24.5753C21.1288 24.646 20.7686 24.5976 20.6979 24.8009L20.6892 32.8136C20.7405 33.9097 19.258 34.2815 18.9521 33.1902L18.9337 24.7525C17.7863 24.5327 16.7357 24.0534 15.8555 23.2904C15.3859 24.4533 14.2027 25.4661 13.0504 25.9455C12.7783 26.0587 11.658 26.3163 11.6154 26.4432L11.6048 34.6475C11.4809 35.703 10.0352 35.8162 9.86964 34.7356L9.82123 26.3763C4.61384 25.4139 3.78887 19.2594 4.16166 14.8817C3.13916 14.7965 2.21445 14.8943 1.79035 15.942C1.72741 26.2021 1.68868 36.4999 1.80972 46.757C1.92494 47.1589 2.44684 47.6672 2.85642 47.7398V47.7408ZM34.6023 14.8827H30.5433V36.0951C30.5433 37.1844 28.9776 38.511 27.959 38.7298C24.0345 39.5732 19.3462 37.4323 16.0453 40.6355C15.3133 41.3452 14.1146 43.2954 14.1146 44.3101V47.7408H18.0767V45.0828C18.0767 43.582 19.6657 42.1605 21.1171 42.0356C25.4995 41.6589 30.5152 43.4203 33.482 39.1307C33.909 38.5139 34.6023 36.9182 34.6023 36.1919V14.8827ZM39.5308 14.8827H36.3413V36.1919C36.3413 37.4352 35.4176 39.4299 34.6817 40.4282C31.3247 44.9841 25.9527 43.5277 21.0464 43.8008C20.5536 43.8366 19.8158 44.6432 19.8158 45.0828V47.7408H40.6899C40.4594 47.3777 40.1902 47.0262 40.0121 46.6302C39.8552 46.2796 39.5299 45.3288 39.5299 44.986V14.8827H39.5308ZM44.1476 41.2929C40.4662 41.6948 40.4255 47.1201 43.7777 47.6972C49.0199 48.5997 48.957 40.7671 44.1476 41.2929Z" fill="#E51B25" fill-opacity="0.5"/>
<path d="M5.03265 44.4542H7.49691C7.52596 44.4542 7.97427 44.6556 8.02559 44.6992C8.49327 45.0971 8.32673 45.9734 7.74382 46.1506C7.3449 46.2717 4.53883 46.2572 4.01596 46.1962C3.56862 46.1439 3.34204 45.9154 3.29073 45.4709C3.22972 44.9471 3.21423 42.1419 3.33623 41.743C3.51343 41.1601 4.38972 40.9935 4.78768 41.4612C4.83125 41.5125 5.03265 41.9608 5.03265 41.9899V44.4542Z" fill="#E51B25" fill-opacity="0.5"/>
</svg>
