<svg width="50" height="49" viewBox="0 0 50 49" fill="none" xmlns="http://www.w3.org/2000/svg">
<path d="M0.644624 33.856C0.436309 33.8126 0.127602 33.5212 0.0824249 33.2956C-0.0116933 32.8208 0.0134049 30.2187 0.110033 29.7265C0.260622 28.9654 1.56447 29.2269 1.58832 29.0745L1.59208 10.3836C0.83537 9.90757 0.166504 10.1704 0.0748955 9.12904C-0.163537 6.40048 0.259367 3.33844 0.0836798 0.572681C0.151445 0.210691 0.521643 -0.0384872 0.886822 0.00490205H48.4629C48.7967 -0.0285697 49.0289 0.125152 49.2058 0.386727L49.2636 9.36334C49.1996 10.0353 48.3613 10.0774 47.8405 10.2869C47.6686 16.535 47.8154 22.8673 47.7652 29.1451C48.3161 29.1327 49.0992 29.0881 49.2448 29.729C49.3527 30.21 49.3476 32.6473 49.2648 33.1654C49.2247 33.4097 48.9536 33.8547 48.7076 33.8547H31.7036L31.7726 34.2204L38.7914 47.3711C39.3623 48.5364 38.002 49.1587 37.2993 48.1L29.697 33.9155L19.9652 33.8485L19.5825 33.9663L12.2977 48.3281C11.8008 48.8538 10.8257 48.7162 10.7843 47.9042C12.9151 43.1425 15.4777 38.547 17.7754 33.8535H0.644624V33.856ZM23.7977 1.62394H1.7113V8.69019C4.6892 9.57657 8.06239 8.93937 10.3702 6.89264C9.74522 6.52817 8.44639 6.10295 9.00483 5.17194C9.56326 4.24093 10.3714 5.12235 10.9135 5.36657C14.0872 6.7947 16.9497 6.75875 20.1911 5.56121C20.7056 5.37153 23.799 3.91365 23.799 3.5467V1.62518L23.7977 1.62394ZM47.641 1.62394H25.5546C25.7001 1.93882 25.3927 3.50703 25.4542 3.5839C25.6148 3.78597 27.0956 4.61284 27.4344 4.78764C30.3533 6.29014 33.4655 6.89388 36.6931 5.9951C37.3131 5.82278 39.5305 4.72813 39.7802 4.75417C40.1052 4.78764 40.4667 5.22649 40.4867 5.53765C40.542 6.41163 38.9394 6.7947 38.9834 6.8914C41.32 8.93689 44.6643 9.56541 47.6422 8.69019V1.62394H47.641ZM42.9978 29.1451V10.8597C42.9978 10.8336 43.102 10.7704 43.0643 10.6725C42.9627 10.4096 41.9085 10.308 41.5509 10.1815C39.927 9.61128 38.4287 8.70507 37.1386 7.5943C32.7753 8.75217 28.3693 7.54223 24.7326 5.08888C23.6559 5.56121 22.6695 6.32486 21.5677 6.79842C19.861 7.53232 17.4341 8.09142 15.573 8.07778C14.9995 8.07406 12.2939 7.56703 12.1346 7.63397C11.8936 7.73563 11.4356 8.23894 11.1645 8.42118C10.635 8.77821 10.0414 9.19227 9.47667 9.48111C8.47651 9.99063 7.38976 10.2472 6.3507 10.6439L6.35446 29.1451H15.3898V22.7607C15.3898 22.3157 16.0373 21.5557 16.4013 21.2805C16.6221 21.1132 17.0789 21.0214 17.2044 20.8342C17.4115 20.5255 17.6361 19.5747 17.9247 19.0664C20.8587 13.8845 28.5588 13.8275 31.4288 19.0664C31.6835 19.5313 31.9709 20.6024 32.1491 20.8342C32.3273 21.066 33.0175 21.2297 33.2936 21.5012C33.4291 21.6351 33.9637 22.6293 33.9637 22.7607V29.1451H42.9991H42.9978ZM3.21719 10.6737V29.1451H4.72308L4.65782 10.9811C4.65782 10.391 3.66268 10.7778 3.21719 10.6737ZM46.1351 10.6737C45.6896 10.7766 44.6944 10.391 44.6944 10.9811L44.7547 29.1464H46.1363V10.6737H46.1351ZM30.4249 21.1888C30.6043 20.89 29.9455 19.7842 29.7472 19.4867C27.1722 15.6226 21.2967 15.9635 19.2311 20.1102C18.4919 21.5929 19.2361 20.9904 19.8083 21.9909C20.0731 22.4545 20.097 22.9516 20.23 23.4475L29.1926 23.4413C29.1762 22.5636 29.4561 21.9884 30.071 21.3908C30.1701 21.2954 30.401 21.2297 30.4249 21.1888ZM17.0212 23.0086V29.1451H18.5271V23.1326C18.5271 22.4049 17.2006 22.1842 17.0212 23.0086ZM30.8252 23.1326V29.1451H32.3311V23.0086C32.3311 22.483 30.977 22.1297 30.8252 23.1326ZM29.1938 25.1781H20.1585V26.5418H29.1938V25.1781ZM29.1938 28.1534H20.1585V29.1451H29.1938V28.1534ZM47.641 30.7567H1.7113V32.2444H47.641V30.7567Z" fill="#ED1C25" fill-opacity="0.5"/>
<path d="M49.1178 36.6781C48.9798 36.8144 48.6572 36.8206 48.4627 36.8367C44.1258 37.1975 39.2881 36.5516 34.8984 36.8367C33.9949 36.719 33.8393 35.359 35.1532 35.2152C39.3584 35.5388 44.2036 34.7937 48.3322 35.2189C49.1592 35.3045 49.6762 36.1239 49.1178 36.6768V36.6781Z" fill="#ED1C25" fill-opacity="0.5"/>
<path d="M14.9775 35.4995C15.3489 35.89 15.0703 36.8569 14.4529 36.8371L0.765638 36.8309C-0.36378 36.764 -0.0864449 35.1834 1.01537 35.2156C5.22182 35.5057 9.92898 34.8424 14.0752 35.2119C14.3237 35.2342 14.8131 35.3259 14.9762 35.4982L14.9775 35.4995Z" fill="#ED1C25" fill-opacity="0.5"/>
<path d="M0.54473 38.3454L12.8177 38.3169C13.902 38.3553 13.8217 39.8082 12.8215 39.9372L0.891085 39.9335C-0.0676659 39.9012 -0.257157 38.7719 0.543475 38.3454H0.54473Z" fill="#ED1C25" fill-opacity="0.5"/>
<path d="M36.001 38.4746C36.1553 38.3295 36.4477 38.3308 36.6535 38.3134C40.4634 37.9911 44.7276 38.57 48.5864 38.3122C49.618 38.4461 49.4712 39.9077 48.4572 39.9324C44.7326 39.6126 40.294 40.3515 36.656 39.9324C35.8968 39.8457 35.3823 39.0535 36.001 38.4746Z" fill="#ED1C25" fill-opacity="0.5"/>
<path d="M11.8461 42.7517C11.7081 42.8881 11.3856 42.8943 11.1911 42.9104C7.86056 43.1881 4.14101 42.6934 0.767812 42.9054C-0.256194 42.7988 -0.297606 41.4376 1.0213 41.2938C4.18367 40.9479 7.95969 41.5542 11.1886 41.2913C11.9679 41.2033 12.2791 42.324 11.8461 42.7529V42.7517Z" fill="#ED1C25" fill-opacity="0.5"/>
<path d="M49.1165 42.7518C48.9784 42.8882 48.6559 42.8944 48.4614 42.9105C45.1309 43.1869 41.4113 42.6935 38.0381 42.9055C36.9953 42.9006 37.1045 41.2803 38.1624 41.2914C41.3875 41.558 45.1736 40.9443 48.3296 41.2939C48.5907 41.3224 49.0876 41.4216 49.2093 41.6633C49.3311 41.9051 49.3035 42.5658 49.1152 42.7518H49.1165Z" fill="#ED1C25" fill-opacity="0.5"/>
<path d="M49.1158 44.5473C49.5814 45.0097 49.2338 45.9172 48.4582 46.0077C45.8367 46.3139 42.6166 45.7808 39.9299 45.9977C38.9811 45.8502 38.9636 44.4915 39.9161 44.3874C42.6831 44.5733 45.7288 44.1618 48.4607 44.3886C48.6552 44.4047 48.9778 44.4097 49.1158 44.5473Z" fill="#ED1C25" fill-opacity="0.5"/>
<path d="M0.543549 44.4197L9.73827 44.4581C10.3921 44.8486 10.2001 45.9086 9.41952 45.9966C6.73151 45.7809 3.51517 46.3115 0.891159 46.0065C-0.053788 45.8974 -0.255828 44.8697 0.543549 44.4185V44.4197Z" fill="#ED1C25" fill-opacity="0.5"/>
<path d="M35.3427 25.0543H37.727V12.3474H11.6249V25.0543H14.0092C13.9415 25.4051 14.1924 26.5233 13.8034 26.6485C13.5637 26.7266 11.0225 26.708 10.7101 26.6399C10.3976 26.5717 10.0914 26.2729 10.0199 25.958L9.98975 11.4772C9.99979 11.0768 10.2495 10.7482 10.6134 10.6057L37.9203 10.5449C38.697 10.6007 39.3722 10.659 39.3634 11.5987L39.3308 25.958C39.2592 26.2729 38.9618 26.5692 38.6406 26.6399C38.3193 26.7105 35.7882 26.7266 35.5472 26.6485C35.1582 26.5221 35.4092 25.4051 35.3414 25.0543H35.3427Z" fill="#ED1C25" fill-opacity="0.5"/>
</svg>
