<svg width="64" height="49" viewBox="0 0 64 49" fill="none" xmlns="http://www.w3.org/2000/svg">
<path d="M54.6373 12.4536H63.2025C63.6448 12.4536 63.9329 13.3663 63.5894 13.7866C63.5434 13.8432 63.1454 14.0834 63.1173 14.0834H39.808V30.8103C40.9006 29.9371 42.4347 29.7544 43.7276 30.2536C45.4525 30.9201 46.5545 33.7268 48.8369 32.0481C50.4348 30.8721 50.999 29.5271 53.4672 30.0589C55.1845 30.4295 55.8168 32.0241 57.091 32.4161C59.1006 33.0346 59.7918 30.987 61.3403 30.3077C61.8755 30.0726 63.119 29.7561 63.5596 30.2356C63.9414 30.6508 63.7471 31.4322 63.1846 31.5635C62.3596 31.7565 62.1866 31.5849 61.4145 32.1837C59.8608 33.3889 59.2617 34.5048 56.9171 34.0468C54.7362 33.6205 53.8873 30.5985 51.4235 31.9066C50.0053 32.6597 49.7138 34.1334 47.5159 34.1574C45.3051 34.1815 44.994 32.9368 43.5316 31.9932C41.2876 30.5461 40.345 33.0535 38.6447 33.7989C37.616 34.2501 36.33 34.2329 35.3183 33.7405C33.7025 32.954 32.8587 30.5925 30.6105 31.9744C29.1625 32.8639 28.8523 34.1823 26.6449 34.1574C24.4222 34.1326 24.1367 32.6966 22.6717 31.8869C20.4695 30.6688 19.5789 33.1041 17.9348 33.7989C16.8542 34.2561 15.5374 34.2406 14.4917 33.6865C13.0352 32.9145 12.5307 31.1054 10.4895 31.7102C9.44465 32.019 8.85745 33.1367 7.90548 33.6556C6.87424 34.2175 5.40666 34.2681 4.33452 33.7886C3.26238 33.3091 2.50387 31.9546 1.40786 31.6733C0.800204 31.5172 -0.169666 31.6278 0.0255015 30.6165C0.220669 29.6051 1.77348 30.0229 2.42375 30.3077C3.71578 30.873 4.43934 32.5019 5.9308 32.5319C7.3677 32.5611 7.85945 31.3953 8.89324 30.704C10.0506 29.9294 11.3128 29.7664 12.6185 30.2536C14.0281 30.7795 14.8071 32.5276 16.3275 32.5328C18.1539 32.5396 18.7811 30.3446 20.5462 30.1232V14.0825H0.732023C0.224078 14.0825 -0.1262 13.3851 0.0723757 12.9031C0.106466 12.8207 0.446517 12.4527 0.476346 12.4527H20.547C20.5129 10.3271 20.4882 8.28043 21.2731 6.27834C23.8913 -0.401284 32.6022 -2.15976 37.5615 3.01101C38.6839 2.03656 39.8882 1.1273 41.2978 0.613484C45.9545 -1.08323 51.0988 0.834794 53.4587 5.1898C53.9095 6.021 54.6373 7.8867 54.6373 8.80711V12.4527V12.4536ZM36.4365 4.18447C36.1127 3.76587 35.6226 3.38501 35.182 3.08478C29.6994 -0.644897 22.5856 3.09422 22.1629 9.57655L22.1748 30.0306C22.8439 30.0821 23.362 30.4758 23.956 30.7246L23.9535 9.23429C24.6276 3.34298 32.0576 1.27141 35.6754 5.93351L36.5754 4.27025C36.5703 4.21535 36.4638 4.21793 36.4382 4.18447H36.4365ZM51.3135 12.4536H52.9754C53.0692 12.4536 53.0973 12.2443 53.1075 12.1576C53.3564 10.026 52.9055 7.20218 51.7235 5.3931C48.2369 0.0593502 40.2103 0.461655 37.3612 6.17369C37.0868 6.72354 36.4842 8.33189 36.4842 8.89375V32.4401C37.0638 32.5877 37.6868 32.5619 38.1922 32.2102L38.1853 9.66147C38.5885 3.32496 46.598 1.01579 50.1902 6.25003C50.6061 6.85564 51.3144 8.43912 51.3144 9.15023V12.4527L51.3135 12.4536ZM34.8649 12.4536C34.9007 11.4131 34.8189 10.3597 34.8615 9.31921C34.8786 8.90404 35.0916 8.28214 34.997 7.90643C34.6502 6.52195 32.4232 5.12547 31.0715 4.99165C28.4082 4.72831 25.4901 6.86164 25.4901 9.66576V12.3249C25.4901 12.3344 25.6086 12.4536 25.618 12.4536H34.8649ZM49.6942 12.4536V9.15109C49.6942 8.79853 49.2255 7.75975 49.0269 7.42092C47.3957 4.64082 43.5605 4.133 41.2654 6.41473C40.6825 6.9946 39.808 8.5026 39.808 9.32264V12.4536H49.6942ZM34.8649 14.0834H25.4901V16.7425H34.8649V14.0834ZM34.8649 18.3723H25.4901V20.9886C25.4901 20.998 25.6086 21.1173 25.618 21.1173H34.8649V18.3723ZM34.8649 25.4062V22.79C34.8649 22.7805 34.7465 22.6613 34.7371 22.6613H25.618C25.6086 22.6613 25.4901 22.7805 25.4901 22.79V25.4062H34.8649ZM34.8649 27.036H25.4901V32.1399C25.4901 32.2763 26.3142 32.5002 26.4796 32.5165C28.0563 32.6743 28.583 31.3259 29.6926 30.6216C31.4227 29.5236 33.4025 29.9054 34.8658 31.2392V27.036H34.8649Z" fill="#ED1C25" fill-opacity="0.5"/>
<path d="M3.721 45.3433C4.34059 45.8537 4.68831 46.4901 5.58915 46.5948C7.81354 46.853 8.35899 44.3602 10.7138 44.1175C13.4231 43.8378 13.5893 45.5457 15.3305 46.3984C17.4441 47.4329 18.3176 45.1443 19.8926 44.4349C20.946 43.9605 22.3079 43.9948 23.3332 44.5207C24.8297 45.2875 25.1263 46.829 27.153 46.5957C28.1322 46.4833 28.6086 45.6006 29.2853 45.0533C30.6643 43.9391 32.5316 43.7529 34.0426 44.7222C34.8182 45.2198 35.6202 46.4601 36.5355 46.5879C38.3636 46.8427 38.6082 45.8082 39.8167 44.9298C40.8752 44.1604 42.0223 43.9133 43.3041 44.2359C45.5507 44.8003 46.4183 48.1817 49.1847 45.8674C50.6668 44.6279 51.5506 43.5985 53.7698 44.2522C55.5945 44.79 56.0036 46.7895 58.0925 46.5991C59.6845 46.4533 60.3859 44.193 62.6887 44.1038C64.0753 44.0506 64.0361 45.5243 63.0987 45.7181C62.0146 45.9429 62.0325 45.7807 61.1137 46.551C59.751 47.6936 59.1987 48.4579 57.161 48.216C54.8096 47.9364 53.6522 44.3431 51.1491 46.2148C49.5622 47.402 49.2801 48.4725 46.8504 48.2143C44.2936 47.9432 43.3195 44.1115 40.536 46.4258C39.1016 47.6181 38.6141 48.4596 36.452 48.216C34.5242 47.9981 33.7179 45.9806 32.4174 45.7576C30.4043 45.4136 29.9663 47.1086 28.4782 47.842C27.505 48.3224 26.2743 48.3721 25.2635 47.9827C23.3911 47.2604 22.3684 44.3723 19.9113 46.3392C18.4105 47.5409 18.0475 48.4674 15.7438 48.2134C13.2833 47.9424 12.3697 44.3388 9.68425 46.2534C8.1553 47.3428 7.93883 48.4073 5.5883 48.228C3.38436 48.0599 2.87215 46.0956 1.37815 45.7747C0.84378 45.6598 -0.0195576 45.7996 0.00515789 44.9255C0.0341347 43.903 1.10883 44.0532 1.81621 44.2178C2.58835 44.398 3.13039 44.8552 3.72356 45.3433H3.721Z" fill="#ED1C25" fill-opacity="0.5"/>
<path d="M14.3763 38.5674C15.5251 39.5118 16.3458 40.1131 17.7989 39.0726C19.4233 37.9095 19.6313 36.8227 22.1233 37.0748C24.761 37.3408 25.5195 41.2926 28.5638 38.7492C29.9121 37.623 30.3058 36.8904 32.3546 37.0706C34.4853 37.2584 35.168 39.3669 36.7071 39.5513C38.6136 39.7795 39.0261 38.1522 40.4715 37.4411C41.3758 36.9959 42.6371 36.9299 43.5814 37.2644C45.3396 37.8872 46.5038 40.6716 48.7001 39.2039C50.3646 38.0913 50.5214 36.8467 53.0637 37.0706C55.1841 37.2576 55.946 39.36 57.3292 39.5539C59.4207 39.8464 59.9346 37.7636 61.7277 37.2198C62.3567 37.0294 63.728 36.8329 63.7629 37.8048C63.7979 38.7767 62.9541 38.6206 62.3703 38.7235C61.478 38.8805 60.6155 40.168 59.776 40.6587C59.0602 41.0782 58.1559 41.2626 57.3318 41.1802C54.5619 40.9032 53.7506 36.9479 50.7609 39.4775C49.324 40.6939 48.5825 41.5662 46.4357 41.0816C44.4354 40.6295 44.0195 38.3958 41.732 38.7107C40.8517 38.8316 40.0914 39.9519 39.373 40.4537C38.0716 41.3629 36.4779 41.4359 35.0938 40.6587C34.2109 40.1629 33.3186 38.817 32.3495 38.7029C29.7757 38.3993 29.4825 41.4564 26.3002 41.1888C24.0179 40.9967 23.371 38.6223 21.4406 38.6652C19.9824 38.6978 19.3995 40.0883 18.2464 40.7196C16.7558 41.5354 15.0828 41.2677 13.7729 40.2435C13.1098 39.7246 12.5311 38.8213 11.6303 38.7115C9.49795 38.4525 9.28318 40.0805 7.69457 40.8217C6.53295 41.3629 5.09007 41.3123 3.98469 40.6596C3.22022 40.2075 2.60574 39.2751 1.88558 38.9122C1.23787 38.5854 0.179364 38.8428 0.0242528 38.0381C-0.230572 36.7171 1.58985 37.0388 2.33728 37.3425C3.94805 37.9978 4.42531 39.8326 6.43323 39.553C7.819 39.36 8.59882 37.3004 10.5403 37.0817C12.4399 36.8681 13.0493 37.478 14.3737 38.5665L14.3763 38.5674Z" fill="#ED1C25" fill-opacity="0.5"/>
</svg>
