<svg width="37" height="38" viewBox="0 0 37 38" fill="none" xmlns="http://www.w3.org/2000/svg">
<g clip-path="url(#clip0_3484_4063)">
<path d="M14.4 36.9723C14.3673 37.1243 14.0648 37.4646 13.8727 37.4308L1.39657 37.3903C1.0483 37.2763 1.01233 36.7203 0.988626 36.3981C0.791604 29.8879 1.24696 23.2184 1.03114 16.7297C1.01724 16.3009 0.217707 16.7396 0.0264084 16.22C0.0280435 12.8088 -0.0569783 9.36947 0.0697368 5.969C0.244685 5.59723 0.951838 5.74263 0.991896 5.70297C1.12842 5.56914 0.935487 2.41734 0.991078 1.86051C1.00498 1.72089 1.09245 1.35407 1.17665 1.26237C1.54536 0.860031 4.14097 1.19876 4.26278 1.07648C4.35189 0.98726 4.01507 0.119793 4.71732 0.00743543L14.5676 0.0396556C15.036 0.183407 14.8684 0.690669 14.8905 1.07648L22.4002 1.06409C22.594 0.621271 22.2997 0.11401 22.948 0.00660927L32.5914 0C33.1775 0.00908775 33.2102 0.628707 33.1203 1.07483C33.2544 1.16654 35.8753 1.02031 36.352 1.07318C36.5514 1.09549 36.8703 1.18802 36.9275 1.39869L37.0011 36.7261C36.9765 37.1482 36.8155 37.4514 36.3536 37.4308L24.2453 37.4324C23.9944 37.4605 23.6371 37.2267 23.6371 36.9723V35.0721C23.6371 34.868 22.379 34.9416 22.1648 34.9887L16.2165 37.9893C15.5576 38.0967 15.332 37.3672 15.7105 36.8938L21.608 33.8485C22.5408 33.6684 23.5349 33.8543 24.4939 33.7932C24.6206 33.7717 24.8634 34.0931 24.8634 34.1633V36.1874H27.7247V30.5282C27.7247 30.1507 28.3583 29.8879 28.7008 30.1201C28.7703 30.1672 28.951 30.3927 28.951 30.4456V36.1874H35.6955C35.7045 36.1874 35.8181 36.0726 35.8181 36.0635V19.9121H28.951V26.1496C28.951 26.5792 27.8923 26.8196 27.7427 26.1314L27.7247 19.9121H25.967C25.3008 19.9121 25.3057 18.6728 25.8035 18.6728H35.6955C35.7045 18.6728 35.8181 18.558 35.8181 18.5489V2.3149H33.2021C33.1367 2.3149 33.3451 3.27489 32.6658 3.38395L22.8809 3.3666C22.2817 3.23111 22.5539 2.3149 22.4926 2.3149H19.6313V9.46117C19.6313 9.82137 18.9544 10.0544 18.6233 9.83955C18.5881 9.81724 18.405 9.48265 18.405 9.46117V2.3149H14.8897C14.8243 2.3149 15.1071 3.18567 14.5668 3.35173L4.7165 3.38395C3.95703 3.25837 4.42302 2.3149 4.13934 2.3149H2.21817V5.57822C2.56153 5.84177 3.18529 5.53196 3.27359 6.16067L3.24497 16.1993C3.07983 16.7165 2.21817 16.4083 2.21817 16.6488V18.5489C2.21817 18.558 2.33181 18.6728 2.3408 18.6728H5.36561C5.80544 18.6728 5.87493 19.9121 5.20211 19.9121H2.21899V26.067C2.21899 26.076 2.33262 26.1909 2.34162 26.1909H4.87592C5.09665 26.1909 5.38033 26.4792 5.41139 26.7238C5.59125 28.1266 5.26587 29.9127 5.41139 31.3585C5.47761 31.4915 5.07294 31.8914 5.03942 31.8914H2.21899V36.1874H13.1737V34.1633C13.1737 34.0088 13.54 33.7618 13.7018 33.7478C13.9602 33.7263 16.0849 33.7255 16.2492 33.7742C17.0398 34.0097 16.5852 34.9473 16.4029 34.9473H14.4C14.3158 35.5273 14.5144 36.4369 14.4 36.9714V36.9723ZM13.746 1.24089H5.52993C5.35008 1.24089 5.35008 2.14967 5.52993 2.14967H13.746V1.24089ZM31.9766 1.24089H23.7606C23.5807 1.24089 23.5807 2.14967 23.7606 2.14967H31.9766V1.24089ZM2.13724 6.94139H1.15622V15.2856C1.40883 15.2418 2.13724 15.4335 2.13724 15.0791V6.94139ZM4.18103 27.4301H2.21899V30.6521H4.18103V27.4301Z" fill="#E51B25" fill-opacity="0.5"/>
<path d="M18.4048 14.1704C18.5103 13.6978 19.3335 13.6276 19.5641 14.0795L19.6311 18.6729H21.4705C21.9038 18.6729 22.1769 19.7321 21.2874 19.8923C19.5608 19.8073 17.607 20.0725 15.9073 19.9163C14.7677 19.8114 15.2746 18.6729 15.5027 18.6729H18.4048V14.1704Z" fill="#E51B25" fill-opacity="0.5"/>
<path d="M19.5225 12.5343C19.3238 12.8127 18.624 12.8103 18.4638 12.4575C18.3035 12.1047 18.3158 11.053 18.7074 10.8432C19.7056 10.3095 19.8462 12.0799 19.5225 12.5352V12.5343Z" fill="#E51B25" fill-opacity="0.5"/>
</g>
<defs>
<clipPath id="clip0_3484_4063">
<rect width="37" height="38" fill="white"/>
</clipPath>
</defs>
</svg>
