<svg width="37" height="36" viewBox="0 0 37 36" fill="none" xmlns="http://www.w3.org/2000/svg">
<path d="M24.4096 21.442C24.6532 21.423 24.8898 21.5267 25.1037 21.6349C25.8237 21.9991 26.4092 22.5482 26.6578 23.3368C26.8108 23.8226 26.9048 24.6699 26.6824 25.1575C26.5837 25.3739 26.3651 25.4874 26.1467 25.5539C26.0002 25.575 25.8051 25.5378 25.6737 25.4583C25.0929 25.1138 25.4815 24.4301 25.3061 23.8901C25.0958 23.2423 24.7243 23.0441 24.1419 22.7772C23.7453 22.5955 23.6696 22.0783 23.9112 21.737C24.0458 21.5467 24.1863 21.4889 24.4096 21.442Z" fill="#ED1C25" fill-opacity="0.5"/>
<path d="M5.29914 24.5497C5.80729 24.509 6.13803 24.8792 6.09285 25.3771C6.08058 25.5124 6.06792 25.7054 6.07276 25.8391C6.08042 26.057 6.13241 26.2709 6.22558 26.4678C6.60733 27.2716 7.28568 27.0434 7.61762 27.7006C7.82545 28.112 7.44432 28.5391 7.03001 28.6623C6.71029 28.6905 6.34441 28.4856 6.07715 28.3285C5.41635 27.9395 4.90271 27.3451 4.72276 26.587C4.61549 26.1352 4.53771 25.2965 4.78679 24.8711C4.90458 24.6698 5.08454 24.5941 5.29914 24.5497Z" fill="#ED1C25" fill-opacity="0.5"/>
<path d="M18.4853 24.9467C19.1821 24.9171 19.3505 25.4551 19.2472 26.0352C18.9884 27.4896 17.9465 28.4104 16.4875 28.5539C16.3166 28.5542 16.1846 28.545 16.0274 28.4556C15.6647 28.2489 15.5813 27.7674 15.7982 27.4263C15.9785 27.1429 16.3081 27.1225 16.606 27.0636C17.1678 26.9521 17.6608 26.5259 17.7844 25.9561C17.8438 25.7126 17.8401 25.4475 17.9874 25.234C18.1207 25.0409 18.2698 24.9892 18.4853 24.9467Z" fill="#ED1C25" fill-opacity="0.5"/>
<path d="M29.5481 27.1147C30.2451 27.0851 30.4134 27.6227 30.3101 28.2032C30.0516 29.6568 29.01 30.5778 27.5519 30.7217C26.8965 30.7233 26.5371 30.1945 26.8661 29.5869C27.0081 29.3246 27.3965 29.2848 27.669 29.2317C28.2274 29.1228 28.7253 28.6921 28.8473 28.1241C28.9513 27.618 28.9313 27.2356 29.5481 27.1147Z" fill="#ED1C25" fill-opacity="0.5"/>
<path d="M27.0294 17.7222C27.5376 17.6949 28.2588 17.9518 28.6843 18.2252C29.3728 18.6593 29.748 19.3514 29.9256 20.1283C30.049 20.6678 29.9937 21.2116 29.337 21.3272C29.1547 21.3272 29.0391 21.3187 28.8747 21.2155C28.5387 21.0045 28.5614 20.6625 28.48 20.3227C28.3454 19.7623 27.9468 19.3458 27.3786 19.2221C27.1701 19.1767 26.8751 19.1551 26.6984 19.0432C26.5337 18.9392 26.4204 18.7706 26.3862 18.5789C26.3505 18.3733 26.4009 18.1621 26.5254 17.9948C26.6618 17.81 26.817 17.7565 27.0294 17.7222Z" fill="#ED1C25" fill-opacity="0.5"/>
<path d="M11.2646 17.7221C11.6378 17.7086 11.9353 17.8878 12.042 18.2622C12.0928 18.4403 12.0489 18.6585 11.9551 18.8163C11.7475 19.1655 11.3415 19.1568 10.9952 19.2482C10.3872 19.4106 10.093 19.7579 9.95442 20.3638C9.90761 20.5683 9.88893 20.8088 9.77784 20.9857C9.65405 21.1826 9.49671 21.276 9.27762 21.3257C8.87121 21.347 8.47626 21.1156 8.46197 20.6764C8.4408 20.0251 8.7465 19.2542 9.15215 18.7525C9.66182 18.122 10.4723 17.7991 11.2646 17.7221Z" fill="#ED1C25" fill-opacity="0.5"/>
<path d="M10.1813 30.0076C10.5757 29.9664 10.9292 30.2513 10.9729 30.6454C11.0165 31.0394 10.7338 31.3948 10.34 31.4408C9.94279 31.4873 9.58361 31.2016 9.5396 30.804C9.49557 30.4065 9.78355 30.0492 10.1813 30.0076Z" fill="#ED1C25" fill-opacity="0.5"/>
<path d="M18.853 30.0074C19.2474 29.966 19.601 30.2509 19.6447 30.645C19.6884 31.0392 19.4057 31.3945 19.012 31.4406C18.6147 31.487 18.2556 31.2014 18.2115 30.804C18.1674 30.4065 18.4552 30.0491 18.853 30.0074Z" fill="#ED1C25" fill-opacity="0.5"/>
<path d="M13.2944 20.9742C13.6887 20.9328 14.0424 21.2177 14.0861 21.6118C14.1298 22.006 13.8471 22.3613 13.4533 22.4074C13.0561 22.4538 12.697 22.1682 12.6529 21.7708C12.6088 21.3733 12.8967 21.0159 13.2944 20.9742Z" fill="#ED1C25" fill-opacity="0.5"/>
<path d="M10.404 24.2264C10.7983 24.1852 11.1519 24.4701 11.1955 24.8641C11.2391 25.2581 10.9565 25.6135 10.5627 25.6596C10.1654 25.706 9.80627 25.4204 9.76226 25.0227C9.71825 24.6253 10.0062 24.2679 10.404 24.2264Z" fill="#ED1C25" fill-opacity="0.5"/>
<path d="M31.9352 24.2264C32.3296 24.1852 32.6832 24.4701 32.7267 24.8641C32.7704 25.2581 32.4877 25.6135 32.094 25.6596C31.6968 25.706 31.3376 25.4204 31.2935 25.0227C31.2494 24.6253 31.5374 24.2679 31.9352 24.2264Z" fill="#ED1C25" fill-opacity="0.5"/>
<path d="M4.83346 19.5289C5.2278 19.4875 5.5815 19.7724 5.62518 20.1665C5.66889 20.5607 5.38618 20.916 4.99237 20.9621C4.59516 21.0085 4.23602 20.7229 4.19196 20.3254C4.14788 19.928 4.43573 19.5706 4.83346 19.5289Z" fill="#ED1C25" fill-opacity="0.5"/>
<path d="M20.2985 20.9744C20.6929 20.9332 21.0465 21.2181 21.09 21.6122C21.1337 22.0062 20.851 22.3616 20.4573 22.4076C20.06 22.4541 19.7009 22.1684 19.6568 21.7708C19.6127 21.3733 19.9007 21.016 20.2985 20.9744Z" fill="#ED1C25" fill-opacity="0.5"/>
<path d="M16.7626 6.51247C16.7668 5.88716 16.7676 5.26182 16.7652 4.63649C16.7651 3.94327 16.7223 3.24014 16.9236 2.57235C17.2004 1.65438 17.8319 0.884723 18.6781 0.433978C19.1179 0.1989 19.6024 0.0594727 20.1 0.0248448C20.7014 -0.0197449 21.6531 0.00926977 22.2759 0.00937094L26.3347 0.00932394L32.9865 0.00989485L34.7767 0.00945764C35.2911 0.00862116 36.0683 -0.034001 36.5577 0.0700886C36.7615 0.113461 36.9131 0.390325 37 0.571818V4.50558C36.9028 4.69962 36.7393 4.98564 36.5232 5.02671C36.1169 5.10385 35.5511 5.07527 35.1386 5.0752L33.2962 5.07542L32.3613 5.07614C32.1942 5.0771 31.9584 5.08942 31.7985 5.06671L31.7976 7.95571L34.9314 7.95795C35.4145 7.95787 35.9478 7.93961 36.4295 7.98362C36.7153 8.00973 36.8865 8.27919 37 8.5209V23.023C36.7693 23.4878 36.4591 23.7435 35.9133 23.4855C35.7789 23.4219 35.634 23.2486 35.5905 23.0974C35.5334 22.5597 35.5464 21.7943 35.5541 21.2582C35.5695 20.2102 35.5296 19.1251 35.5588 18.0887C34.9879 18.0827 34.417 18.0811 33.8461 18.084C33.6026 18.0842 32.8285 18.1123 32.6547 18.0392C32.3605 17.9152 31.6574 17.2896 31.3841 17.0655L29.4573 15.4876C29.3444 15.395 28.8184 14.9468 28.7189 14.9196C28.583 14.8826 27.935 15.0055 27.726 15.0268C26.2369 15.1788 24.6399 15.1647 23.2231 14.6279C23.045 14.5604 22.7051 14.4089 22.5512 14.3071L22.5489 16.6832C22.549 17.0668 22.5675 17.4905 22.5209 17.8688C22.4822 18.1821 22.1409 18.4404 21.8242 18.4392C21.6277 18.4375 21.4399 18.3579 21.3021 18.2177C21.2199 18.1338 21.1366 18.0072 21.1236 17.8887C21.092 17.5994 21.1016 17.2901 21.1014 16.9982L21.1012 15.4805C21.1012 13.9721 21.0728 12.3635 21.1057 10.8622C20.8233 10.8577 20.5411 10.8567 20.2588 10.859C20.0909 10.8602 19.8149 10.8708 19.6581 10.8481V15.6649L19.6579 17.0076C19.6577 17.2914 19.6682 17.5955 19.6322 17.8766C19.6165 17.9996 19.5215 18.1418 19.4348 18.228C19.2975 18.3653 19.1105 18.4415 18.9163 18.4392C18.5779 18.4339 18.2572 18.1682 18.2221 17.8274C18.2048 17.6598 18.2115 17.4712 18.2113 17.3015L18.2111 16.3571C18.2111 15.3867 18.1936 14.3575 18.2151 13.3913C16.2971 13.3685 14.3742 13.3939 12.4558 13.3881C12.3698 13.3879 12.2871 13.3909 12.2006 13.3877C12.0125 13.654 11.8251 13.9002 11.5905 14.1314C10.6476 15.0606 9.34572 15.5453 8.06278 15.772C7.33158 15.9012 6.7368 15.9183 6.0005 15.9269C5.51564 16.2369 4.9016 16.7044 4.41902 17.0481L1.45742 19.1667C1.42244 19.504 1.44598 20.3553 1.44625 20.7217L1.44655 23.7772L1.44592 33.9714L35.5516 33.9734L35.5545 30.7171C35.5543 30.2094 35.535 29.686 35.5834 29.1825C35.5917 29.0947 35.7055 28.9005 35.7747 28.8465C36.3138 28.4257 36.7572 28.6978 37 29.208V34.8561C36.8898 35.0745 36.7677 35.3011 36.5173 35.3804C36.2226 35.4734 34.5625 35.4266 34.1417 35.4266L29.5528 35.4265L10.3147 35.4263L3.97342 35.4265L1.96357 35.4272C1.58261 35.4279 1.2015 35.4324 0.820582 35.4257C0.433941 35.4189 0.240511 35.3224 0.0559536 34.9782L0 34.8749V7.0592C0.0384025 7.00225 0.0738358 6.92133 0.112141 6.8594C0.239801 6.65299 0.390193 6.54505 0.637153 6.52783C0.976099 6.50418 1.32112 6.51236 1.6628 6.51225L3.3863 6.51207L4.81014 6.51253C5.08347 6.51267 5.37432 6.49341 5.64452 6.53318C5.71849 6.54405 5.82484 6.55455 5.88945 6.59155C6.22628 6.78455 6.85539 7.89975 7.13717 8.27597C8.08381 7.49004 9.06072 6.80542 10.3068 6.56909C12.3137 6.18849 13.8037 7.98199 15.3209 9.05846L15.3191 7.87654C15.3188 7.67974 15.3161 7.48354 15.323 7.28678C15.3546 6.38342 16.1216 6.51179 16.7626 6.51247ZM35.5516 3.62185C35.556 2.92098 35.5402 2.16279 35.5588 1.46766C32.6265 1.43014 29.6222 1.46143 26.6844 1.46159L22.5458 1.46147C21.8497 1.46139 21.0952 1.44661 20.4024 1.46349C19.7211 1.50286 19.21 1.67208 18.7432 2.20175C18.5145 2.46236 18.3535 2.77538 18.2747 3.11304C18.1849 3.49531 18.2115 4.11161 18.2117 4.5247L18.2115 6.51039C19.6277 6.51769 21.1328 6.53699 22.5438 6.51247C22.5472 6.03033 22.5481 5.54818 22.5463 5.06604C22.546 4.66406 22.4701 4.11184 22.7756 3.81606C22.8648 3.7282 22.9785 3.66956 23.1019 3.6479C23.3553 3.60394 24.2773 3.62158 24.5759 3.62165L27.4485 3.62593C27.5209 3.15268 27.8049 2.84167 28.3075 2.91979C28.6604 2.97458 28.8831 3.2517 28.897 3.59921C28.9175 4.1072 28.9084 4.61678 28.9084 5.12479L28.907 7.95565C29.0786 7.95654 30.2804 7.97645 30.3402 7.93834C30.3512 7.87719 30.3507 7.86693 30.3508 7.80727L30.3514 4.99023C30.3512 4.66632 30.3523 4.33159 30.3514 4.01828C30.3501 3.64931 30.3254 3.16827 30.729 2.98661C31.2686 2.74369 31.7345 3.06538 31.8037 3.6199C33.0272 3.62662 34.332 3.64304 35.5516 3.62185ZM23.9927 6.51054C24.6514 6.51099 25.4187 6.40205 25.4382 7.3172C25.4429 7.53017 25.44 7.74272 25.4382 7.95569C25.672 7.95672 27.4104 7.97988 27.4561 7.93582C27.4756 6.98923 27.4427 6.02293 27.4651 5.08071C26.6731 5.07366 25.881 5.072 25.089 5.07574C24.8682 5.07598 24.1743 5.09328 23.9965 5.06559C23.9875 5.54827 23.9967 6.02876 23.9927 6.51054ZM23.9871 9.38109C23.9967 8.91308 23.9828 8.43414 23.9963 7.97128C22.2826 7.95 20.5352 7.96429 18.8187 7.96514L17.4778 7.96718C17.295 7.96774 16.9315 7.98223 16.7701 7.95609C16.7607 8.43871 16.7705 8.9193 16.7663 9.40093L22.133 9.40452C22.3518 9.40452 23.8858 9.4231 23.9803 9.38868L23.9871 9.38109ZM1.45619 17.4014C1.61162 17.2572 1.8535 17.0963 2.03276 16.9679L2.99252 16.2819L4.45355 15.2378C4.76657 15.0137 5.25622 14.6233 5.59535 14.4884C5.70571 14.4445 6.41945 14.4718 6.5955 14.4621C8.00602 14.3851 9.6094 14.0883 10.6317 13.0325C10.7395 12.9203 10.8375 12.7991 10.9247 12.6702C11.0731 12.4473 11.2651 12.0235 11.5398 11.9737C11.9061 11.9074 12.4727 11.9318 12.8563 11.9319L14.9861 11.9332C16.0411 11.9334 17.158 11.9531 18.2075 11.9322C18.2082 11.5755 18.2106 11.2189 18.2149 10.8623C17.8122 10.8571 17.4095 10.8555 17.0068 10.8575C16.4756 10.8581 15.907 10.9082 15.3976 10.7363C13.9469 10.2466 12.4029 8.09057 11.0137 7.97872C10.5118 7.93833 9.99072 8.13151 9.55312 8.35895C8.9448 8.67513 8.33465 9.1172 7.84377 9.59534C7.60364 9.82923 7.38163 10.1226 7.01416 10.1226C6.82645 10.1227 6.63033 10.0494 6.49928 9.91297C6.32667 9.73328 6.19461 9.49124 6.0568 9.28384C5.76795 8.84911 5.48494 8.40888 5.18829 7.9795C4.8965 7.95175 4.44466 7.96432 4.14187 7.96458L2.35841 7.96685C2.15012 7.96725 1.62696 7.98369 1.44974 7.95628C1.41522 9.91658 1.44587 11.9663 1.44627 13.9331L1.44631 16.1786C1.44634 16.5293 1.4304 17.0625 1.45619 17.4014ZM35.5588 9.41686C33.1533 9.38628 30.7001 9.40974 28.2911 9.41039L26.3506 9.41206C26.1432 9.4124 25.6126 9.42864 25.4418 9.40151C25.4348 9.85783 25.5591 10.6853 24.8906 10.8253C24.5365 10.8995 24.1038 10.835 23.7393 10.8576C23.3841 10.8444 22.8816 10.8954 22.5487 10.8481C22.5478 11.2736 22.5228 12.0492 22.5554 12.4476C23.816 13.9969 26.9101 13.74 28.6725 13.4086C29.1375 13.3212 29.3077 13.5002 29.647 13.772C30.6921 14.6088 31.7109 15.4922 32.7631 16.3192C32.8716 16.4135 33.0091 16.562 33.1461 16.6056C33.3437 16.6686 35.2174 16.6351 35.5516 16.6297L35.5552 11.652C35.5552 10.9194 35.5431 10.1467 35.5588 9.41686Z" fill="#ED1C25" fill-opacity="0.5"/>
<path d="M36.9991 26.2739C36.9561 26.3501 36.9249 26.4256 36.8777 26.5002C36.438 27.1945 35.3341 26.7244 35.5937 25.8986C35.6519 25.7086 35.7852 25.5503 35.9628 25.4605C36.1336 25.3763 36.3317 25.3667 36.5099 25.434C36.7749 25.533 36.8885 25.7185 36.9991 25.9568V26.2739Z" fill="#ED1C25" fill-opacity="0.5"/>
</svg>
