<svg width="33" height="45" viewBox="0 0 33 45" fill="none" xmlns="http://www.w3.org/2000/svg">
<g clip-path="url(#clip0_3484_4110)">
<path d="M24.9075 2.12496C26.0183 3.211 26.5099 4.69155 26.3724 6.24738C28.1406 6.43354 30.0601 8.16036 30.2854 9.9683C30.6828 13.157 27.8645 15.3478 24.9 15.1756C24.699 15.1639 24.2635 15.0227 24.1035 15.0688C24.044 15.0863 23.6841 15.433 23.5593 15.5152C21.9893 16.5505 19.8971 16.7063 18.1977 15.8969C16.7986 16.8406 14.9883 17.1148 13.3738 16.6071C13.1473 16.5359 12.2549 16.072 12.1896 16.0726C12.133 16.0731 11.8003 16.3025 11.6801 16.3539C9.26503 17.3827 6.4086 16.8254 4.96161 14.5302C3.48574 15.0338 1.74473 14.6772 0.722309 13.457C-0.928009 11.4868 0.454862 8.73402 2.80066 8.34652C2.66434 5.47705 5.36365 3.36507 8.04794 3.37616C9.97726 0.109263 14.2495 -0.65056 17.6362 0.513102C17.8343 0.581381 18.3658 0.869671 18.4905 0.877257C18.6719 0.888929 19.5482 0.580214 19.8803 0.535862C21.6236 0.302429 23.635 0.880175 24.9075 2.12496ZM8.23394 5.89781H7.42525C7.38828 5.34049 7.47261 4.78901 7.6563 4.26437C5.4243 4.34373 3.24949 6.41545 3.6856 8.77137C3.71506 8.93127 3.97673 9.62457 3.93514 9.69168C3.90742 9.73662 3.24255 10.0658 3.20963 10.0412C3.09583 9.78797 3.0502 9.48976 2.93294 9.23999C2.89828 9.16587 2.95835 9.1612 2.84514 9.17579C2.21724 9.25458 1.33692 9.95312 1.06138 10.5274C0.0204767 12.6971 2.60946 14.4438 4.53531 13.7744C4.46311 13.2883 4.28346 12.8197 4.30657 12.3178H5.17303C5.24234 15.807 9.71617 17.0337 12.1902 15.0595C14.1865 16.5593 17.3144 16.2914 18.7245 14.1216C18.8076 14.1094 19.4246 14.5016 19.4292 14.5634L18.9209 15.2929C20.0357 15.6874 21.2453 15.6676 22.344 15.2217C22.5126 15.1534 23.0256 14.9072 23.1059 14.7659C23.1815 14.6335 23.3259 13.9868 23.4611 13.9559C25.9831 15.1149 29.7129 13.4534 29.4905 10.3634C29.3282 8.11076 26.901 6.78778 24.8486 6.95585C24.6279 6.97394 23.7083 7.24822 23.6564 7.21554C23.5969 7.17819 23.3375 6.45747 23.3681 6.42362L24.5523 6.13125H25.5054C25.9571 2.79199 22.3624 0.746535 19.4402 1.46317C19.6533 1.72287 19.9623 1.89152 20.1928 2.13196C20.2639 2.20607 20.7451 2.80133 20.7606 2.84451C20.7745 2.88478 20.7838 2.93613 20.7618 2.97348C20.7416 3.0085 20.1778 3.34581 20.0779 3.38724C18.241 0.69518 14.2818 0.248156 11.4479 1.47076C9.69999 2.22475 8.18311 3.87278 8.23394 5.89781Z" fill="#E51B25" fill-opacity="0.5"/>
<path d="M4.59385 28.6575V42.926C4.59385 43.4857 5.48573 44.2625 6.06452 44.1831L24.3774 44.1802C24.9164 44.2012 25.7355 43.4501 25.7355 42.926V28.6575H26.6019V32.6842H29.288C30.7251 32.6842 32.5516 34.6596 32.5516 36.0981V38.4033H29.8945V36.3899C29.8945 36.0474 29.3509 35.3687 28.9991 35.3687H26.6019C26.4674 37.9533 26.595 40.5538 26.5292 43.1443C26.3212 44.1323 25.5529 44.877 24.5536 45.0001L5.72083 44.9972C4.96759 44.996 3.78516 43.8989 3.78516 43.1595V28.6575H4.59385ZM31.6852 37.5863V35.9814C31.6852 34.9094 30.0984 33.5012 29.0569 33.5012H26.6019C26.6187 33.7235 26.4552 34.3182 26.6146 34.4805C26.6863 34.5534 28.3684 34.4705 28.6549 34.4904C29.4803 34.5481 30.7032 35.207 30.7032 36.1559V37.5857H31.6852V37.5863Z" fill="#E51B25" fill-opacity="0.5"/>
<path d="M24.9266 39.337C24.4674 39.0919 24.2398 38.5462 23.6795 38.4669C22.3093 38.2725 22.1262 39.8855 20.4504 39.7443C19.3061 39.648 18.9347 38.5719 18.1919 38.4669C16.809 38.2714 16.6507 39.8721 14.9629 39.7443C13.8099 39.6568 13.4408 38.5701 12.7043 38.4669C11.3041 38.2696 11.1377 39.9054 9.41752 39.7449C8.16982 39.6288 7.92548 38.2865 6.64947 38.4669C6.10475 38.5439 5.84886 39.0872 5.40234 39.337V38.199C5.40234 38.1739 5.72698 37.9276 5.78821 37.8885C6.45076 37.4613 7.31664 37.4718 7.9971 37.8535C8.4777 38.1231 8.90111 38.7925 9.42214 38.8649C10.5335 39.0183 10.7744 38.0198 11.6593 37.6924C12.2624 37.4689 13.0151 37.5541 13.5661 37.8891C14.1715 38.2568 14.3927 38.9238 15.2534 38.8736C16.1141 38.8234 16.5167 37.6901 17.6212 37.588C18.8221 37.4771 18.959 37.8885 19.759 38.5194C21.2447 39.6912 21.749 37.7479 23.0562 37.5932C23.371 37.5559 23.8158 37.5781 24.1179 37.6749C24.2484 37.7169 24.9272 38.0969 24.9272 38.1996V39.3376L24.9266 39.337Z" fill="#E51B25" fill-opacity="0.5"/>
<path d="M24.9266 36.2441C24.238 35.6897 23.7453 34.966 22.772 35.4971C21.9552 35.9424 21.8039 36.7074 20.5671 36.6526C19.35 36.5989 19.1115 35.636 18.2964 35.385C17.1775 35.0407 16.8489 36.149 15.9541 36.488C15.4851 36.6654 15.0253 36.6981 14.5395 36.5545C13.4876 36.2441 12.9567 34.7063 11.679 35.5537C10.9488 36.0381 10.7576 36.6689 9.648 36.6578C8.53835 36.6468 8.32925 35.9184 7.55694 35.4971C6.60846 34.98 6.0701 35.6704 5.40234 36.2441V35.1061C5.40234 35.0728 5.75182 34.7985 5.81189 34.7612C6.45076 34.3591 7.32184 34.3614 7.97458 34.725C8.60709 35.0769 8.89764 35.828 9.76122 35.7784C10.5035 35.7358 10.8697 34.9514 11.4861 34.6579C12.1128 34.3597 12.8135 34.3877 13.4252 34.704C14.2125 35.1113 14.6729 36.2715 15.8195 35.5928C16.5918 35.1353 16.7576 34.4431 17.9083 34.4303C19.2409 34.4151 19.6296 35.7375 20.6255 35.7795C21.4105 35.8122 21.7351 35.0944 22.3249 34.7542C22.9632 34.386 23.6107 34.3521 24.29 34.6404C24.4079 34.6906 24.926 35.0116 24.926 35.1067V36.2447L24.9266 36.2441Z" fill="#E51B25" fill-opacity="0.5"/>
<path d="M24.9272 31.9256V33.0928C24.8261 33.1185 24.8116 33.0508 24.7533 33.0058C24.0682 32.4759 23.6615 31.792 22.6547 32.4608C21.7195 33.0823 21.7062 33.6635 20.2829 33.4949C19.2178 33.3688 18.87 32.1672 17.8493 32.2145C17.0626 32.2512 16.7016 33.0683 16.0303 33.3542C15.5272 33.569 14.7572 33.5672 14.2587 33.3361C13.4801 32.9755 13.2317 32.0849 12.2046 32.232C11.5681 32.3236 11.2475 32.9696 10.7368 33.2579C10.3221 33.4919 9.77508 33.5497 9.30777 33.4943C7.94454 33.3315 7.55232 31.3175 5.92164 32.6539C5.75528 32.7905 5.61954 33.0502 5.40234 33.0922V32.0126C5.40234 31.9921 5.64726 31.7593 5.69463 31.7243C6.36065 31.2428 7.32415 31.2206 8.02021 31.6437C8.76017 32.0931 8.87165 32.7607 9.93797 32.6265C10.7825 32.5203 11.1002 31.2282 12.5928 31.3426C13.9121 31.4436 14.1536 32.7864 15.4256 32.6265C15.9108 32.5658 16.2527 32.0499 16.6132 31.7838C17.3283 31.2562 18.1803 31.1856 18.9572 31.6233C19.7059 32.0447 19.8381 32.7315 20.8571 32.6282C21.5797 32.5547 21.9806 31.6735 22.7431 31.4407C23.5726 31.1874 24.2548 31.4366 24.9266 31.925L24.9272 31.9256Z" fill="#E51B25" fill-opacity="0.5"/>
<path d="M24.9272 42.4301C24.2629 41.9259 23.7349 41.1859 22.7939 41.7047C21.8085 42.248 21.7819 43.0335 20.2824 42.8339C19.1346 42.681 18.5113 40.9209 17.2249 41.7391C16.3117 42.3198 16.2377 42.981 14.8479 42.838C13.8417 42.7341 13.4275 41.6942 12.6962 41.5687C11.3682 41.3405 11.1556 42.9921 9.41521 42.8409C8.27033 42.7411 7.91797 41.5512 6.93309 41.5518C6.19602 41.5518 5.9563 42.0729 5.40234 42.4301V41.2629C5.5999 41.2045 5.71889 41.0248 5.90374 40.9233C6.52701 40.5813 7.37614 40.5965 7.99537 40.9489C8.49792 41.2349 8.83468 41.9037 9.47182 41.9661C10.7657 42.0933 10.9748 40.5404 12.6511 40.6805C13.7331 40.7709 14.2079 41.8768 14.9034 41.9644C16.2689 42.1365 16.4624 40.5037 18.1901 40.6863C19.4367 40.8182 20.1108 42.6577 21.3995 41.7549C22.344 41.0937 22.6715 40.3286 24.1063 40.778C24.2415 40.8206 24.9266 41.2191 24.9266 41.2915V42.4295L24.9272 42.4301Z" fill="#E51B25" fill-opacity="0.5"/>
<path d="M23.4251 30.4666L22.5586 30.525V16.8692L23.4251 16.519V30.4666Z" fill="#E51B25" fill-opacity="0.5"/>
<path d="M19.4988 17.3359V30.9334L18.6896 30.5546L18.6289 30.3825L18.6318 17.4818C18.682 17.2058 19.2903 17.3855 19.4983 17.3359H19.4988Z" fill="#E51B25" fill-opacity="0.5"/>
<path d="M10.832 30.9335V17.4528C10.9637 17.4644 11.6985 17.1983 11.6985 17.4236V30.4958L10.832 30.9335Z" fill="#E51B25" fill-opacity="0.5"/>
<path d="M15.5705 17.6279V31.6047C15.5705 31.7453 14.823 31.8848 14.7618 31.5463L14.7109 17.7201C14.7525 17.5468 15.4041 17.6588 15.5705 17.6279Z" fill="#E51B25" fill-opacity="0.5"/>
<path d="M7.77271 17.4527V30.5249L6.90625 30.4666V17.1609L7.77271 17.4527Z" fill="#E51B25" fill-opacity="0.5"/>
<path d="M31.1675 39.7456C31.7816 40.5224 32.6486 41.5862 32.9259 42.5497C33.4377 44.3302 31.223 45.5493 29.9516 44.3291C28.5069 42.9425 30.4172 40.9565 31.1681 39.7456H31.1675ZM31.167 41.2046C30.8573 41.8891 29.8066 42.9611 30.5368 43.6789C31.1271 44.2596 32.1905 43.8073 32.1524 42.9851C32.131 42.5316 31.4494 41.5856 31.167 41.2046Z" fill="#E51B25" fill-opacity="0.5"/>
</g>
<defs>
<clipPath id="clip0_3484_4110">
<rect width="33" height="45" fill="white"/>
</clipPath>
</defs>
</svg>
