<svg width="37" height="37" viewBox="0 0 37 37" fill="none" xmlns="http://www.w3.org/2000/svg">
<path d="M15.1775 0C15.7335 0.265718 16.0333 0.727648 16.3924 1.20551C18.269 3.70051 19.3456 6.72767 19.7402 9.81782L29.5818 9.83085C30.5317 5.77268 36.0718 5.73937 37 9.82723V33.9627C36.651 35.5548 35.3739 36.8465 33.7144 37H2.1315C1.02593 36.8697 0.130322 35.9704 0 34.8692V12.1007C0.0637132 10.9328 1.06285 9.95973 2.21621 9.83664C2.44282 9.81275 3.20883 9.8866 3.29571 9.7599C3.67582 7.56464 4.50626 5.43093 5.68206 3.54701C6.02742 2.99313 7.0128 1.44806 7.60359 1.27719C8.70844 0.957165 9.30285 1.99542 9.84731 2.76651C10.3121 3.4261 10.7219 4.12841 11.0955 4.84158C11.6508 3.70702 12.2185 2.59926 12.9519 1.56752C13.3624 0.99047 13.8055 0.297576 14.4557 0.000724028H15.1782L15.1775 0ZM15.4671 17.1262C16.4018 17.0472 17.1707 16.2436 17.6001 15.4652C18.7143 13.4466 18.5818 10.2769 18.1177 8.08015C17.5986 5.6199 16.4257 3.19658 14.78 1.30253C14.0241 2.27055 13.298 3.30084 12.7535 4.40499C12.5899 4.73732 11.8753 6.35914 11.8832 6.61255C11.8919 6.88333 12.4472 8.26768 12.5544 8.72888C12.9222 10.3058 13.1054 12.2274 12.936 13.8376C12.8541 14.6196 12.6311 15.3747 12.5023 16.1473C12.5602 16.5035 13.7664 17.1761 14.1653 17.1269V14.5617C14.1653 14.3546 14.633 14.1453 14.8502 14.1591C15.1044 14.1757 15.4657 14.4617 15.4657 14.7057V17.1262H15.4671ZM8.67441 18.3541C10.5395 18.0573 11.3091 15.9836 11.5531 14.3314C12.0512 10.9589 11.1882 7.4278 9.45562 4.52952C9.34412 4.34344 8.08796 2.43563 7.95329 2.52831C7.41101 3.32618 6.81731 4.08786 6.3496 4.93642C4.80238 7.74638 3.99294 11.2717 4.50409 14.4661C4.77704 16.1719 5.54739 17.9711 7.37336 18.4251V16.2935C7.37336 16.1683 5.81383 14.8585 5.62414 14.5008C5.30195 13.8941 5.95212 13.2888 6.54436 13.6537C6.82528 13.8268 7.83455 15.067 7.99746 15.0953C8.47531 14.8752 9.33471 13.5668 9.80387 13.5343C10.365 13.4952 10.6524 14.0585 10.399 14.5493C10.2383 14.8621 8.67369 16.1704 8.67369 16.2928V18.3519L8.67441 18.3541ZM35.6997 30.4222V9.93584C35.6997 9.89963 35.4709 9.35227 35.4253 9.27045C34.5217 7.63632 32.047 7.66022 31.1601 9.29797C31.0812 9.4435 30.8582 10.0205 30.8582 10.1523V30.4215L31.8508 29.8604C33.2105 29.3108 34.5463 29.5512 35.6997 30.4215V30.4222ZM2.13512 35.6975H9.2529V33.0598C9.2529 31.892 10.4692 29.9813 11.3475 29.229C14.1422 26.8354 17.1056 28.1133 20.3368 27.7411C20.6163 27.7085 20.9877 27.584 21.1912 27.3878C21.2556 27.3255 21.5365 26.8817 21.5365 26.8455V11.1283H19.7301C19.7772 14.1106 19.0973 17.3303 15.9573 18.3758C15.798 18.4287 15.5286 18.3925 15.4758 18.5445L15.4693 24.5359C15.5077 25.3555 14.3992 25.6335 14.1704 24.8175L14.1566 18.5083C13.2987 18.344 12.5131 17.9856 11.855 17.415C11.5039 18.2846 10.6191 19.0419 9.75753 19.4003C9.55409 19.485 8.7164 19.6776 8.68455 19.7725L8.67658 25.9072C8.58391 26.6964 7.50295 26.7811 7.37915 25.9731L7.34295 19.7225C3.4492 19.0028 2.83234 14.4009 3.11109 11.1276C2.34653 11.0639 1.6551 11.137 1.33798 11.9204C1.29092 19.5922 1.26196 27.2922 1.35246 34.9619C1.43862 35.2623 1.82886 35.6424 2.13512 35.6968V35.6975ZM25.8726 11.1283H22.8376V26.9896C22.8376 27.8041 21.6668 28.796 20.9052 28.9597C17.9707 29.5903 14.4651 27.9895 11.9969 30.3846C11.4496 30.9153 10.5532 32.3735 10.5532 33.1322V35.6975H13.5159V33.71C13.5159 32.5878 14.704 31.5249 15.7893 31.4315C19.0662 31.1499 22.8166 32.4669 25.035 29.2594C25.3542 28.7982 25.8726 27.605 25.8726 27.062V11.1283ZM29.5579 11.1283H27.173V27.062C27.173 27.9916 26.4823 29.4831 25.932 30.2296C23.4218 33.6362 19.405 32.5472 15.7364 32.7514C15.3679 32.7782 14.8162 33.3813 14.8162 33.71V35.6975H30.4245C30.2522 35.426 30.0509 35.1631 29.9177 34.867C29.8004 34.6049 29.5571 33.8939 29.5571 33.6376V11.1283H29.5579ZM33.01 30.8762C30.2573 31.1766 30.2269 35.2334 32.7334 35.6649C36.6532 36.3397 36.6061 30.483 33.01 30.8762Z" fill="#E51B25" fill-opacity="0.5"/>
<path d="M3.76293 33.2405H5.60555C5.62727 33.2405 5.96249 33.3911 6.00086 33.4237C6.35056 33.7212 6.22603 34.3765 5.79017 34.509C5.49188 34.5995 3.39369 34.5886 3.00272 34.543C2.66822 34.5039 2.4988 34.333 2.46043 34.0007C2.41482 33.609 2.40323 31.5115 2.49446 31.2132C2.62695 30.7773 3.28219 30.6528 3.57976 31.0025C3.61234 31.0409 3.76293 31.3761 3.76293 31.3978V33.2405Z" fill="#E51B25" fill-opacity="0.5"/>
</svg>
