<svg width="37" height="37" viewBox="0 0 37 37" fill="none" xmlns="http://www.w3.org/2000/svg">
<path d="M3.28294 33.4187C2.3868 33.4232 1.39723 32.6728 1.22832 31.7811C0.932348 30.219 2.30982 26.6756 3.29564 25.4132C4.28147 24.1508 5.08418 26.5216 5.44742 27.2279C5.62157 27.266 5.56701 27.204 5.61335 27.1322C5.97658 26.5702 6.47735 24.8908 7.33163 25.0799C7.81221 25.186 8.54467 26.7526 8.72928 27.2287C8.90342 27.2668 8.84886 27.2047 8.8952 27.133C9.17249 26.704 9.69343 25.3714 10.1038 25.1367C10.825 24.7241 11.322 25.837 11.6016 26.3325C12.34 27.6427 13.6068 30.8214 12.9357 32.2198C12.5978 32.9231 11.8123 33.3686 11.041 33.4209V35.8829H9.8474V33.4209C9.53648 33.5121 9.04618 33.1272 8.84064 33.1279C8.61492 33.1279 8.14481 33.4897 7.83688 33.4239C7.75989 33.5031 7.87574 35.2991 7.83688 35.625C7.82791 35.6998 7.80324 35.8821 7.72103 35.8821H6.56479V33.4202C6.25836 33.53 5.70528 33.1212 5.496 33.1384C5.27402 33.1571 4.85398 33.4874 4.55427 33.4232C4.47654 33.5016 4.59314 35.2984 4.55427 35.6243C4.5453 35.699 4.52064 35.8814 4.43843 35.8814H3.28219V33.4194L3.28294 33.4187ZM3.95336 26.929C3.77548 26.8871 3.83303 26.9618 3.78818 27.0261C3.23286 27.8199 2.29487 30.5897 2.46602 31.5128C2.61401 32.3103 4.01689 32.2938 4.62602 32.1496C4.46832 31.7251 4.44067 31.2998 4.47804 30.8461C4.51989 30.3319 4.85323 29.5576 4.85099 29.1286C4.84726 28.5045 4.12153 27.5478 3.95411 26.929H3.95336ZM7.23596 26.929C7.05883 26.8878 7.11563 26.9611 7.07079 27.0261C6.5476 27.7825 5.65371 30.4014 5.6836 31.2953C5.71724 32.2946 7.19112 32.3185 7.90863 32.1503C7.74868 31.7236 7.72626 31.302 7.76064 30.8469C7.80773 30.2205 8.21357 29.3775 8.0611 28.8281C7.88321 28.1853 7.4542 27.5598 7.23596 26.9297V26.929ZM10.5178 26.929C10.3467 26.8856 10.396 26.9618 10.3482 27.0231C9.82198 27.6943 8.9378 30.4582 8.96546 31.2953C9.00657 32.5263 11.7114 32.5427 11.8646 31.4455C11.9753 30.6533 11.4005 28.8924 11.0761 28.1248C10.905 27.7197 10.6456 27.3535 10.5178 26.929Z" fill="#ED1C25" fill-opacity="0.5"/>
<path d="M11.3354 5.37065V11.0023C11.3354 11.033 10.9744 11.4022 10.854 11.3417C8.51242 11.1593 5.83597 11.5711 3.53545 11.3417C3.38822 11.3267 2.98088 11.1518 2.98088 11.0016V5.3699C2.20134 5.41774 1.64601 5.41176 1.82165 4.47077C1.94423 3.81156 2.45919 2.2891 2.72228 1.64185C2.84485 1.34064 2.95397 1.17472 3.31348 1.18892C5.78888 1.36605 8.564 0.965444 11.0035 1.18892C11.366 1.2218 11.4228 1.26216 11.5731 1.58878C11.7719 2.02078 12.4998 4.24954 12.5305 4.66136C12.5903 5.46856 11.9512 5.39531 11.3354 5.36915V5.37065ZM3.27909 4.17704H11.0372L10.5237 2.43111L10.4064 2.38178L3.85086 2.38327C3.7537 2.40644 3.30675 3.94236 3.27984 4.17704H3.27909ZM10.1418 5.37065H4.17449V10.1451H5.36809V8.09345C5.36809 8.05159 5.67154 7.78028 5.77991 7.75936C6.19397 7.68013 7.92347 7.70629 8.39359 7.75338C8.54157 7.76833 8.94816 7.94322 8.94816 8.09345V10.1451H10.1418V5.37065ZM7.7553 8.95147H6.5617V10.1451H7.7553V8.95147Z" fill="#ED1C25" fill-opacity="0.5"/>
<path d="M28.047 29.2418H29.2406V27.1902C29.2406 27.1663 29.5231 26.8905 29.5911 26.8703C30.0209 26.741 30.1778 26.9189 30.4312 27.1924C30.9507 27.753 31.3916 28.5676 31.8901 29.1648L32.2242 29.241V27.1894C32.2242 27.1655 32.5068 26.8897 32.5748 26.8695C33.0045 26.7402 33.1615 26.9181 33.4149 27.1917C33.947 27.7664 34.3895 28.5975 34.9097 29.2029C35.4171 29.3539 36.0345 29.0108 36.3619 29.5408L36.4052 35.2502C36.4359 35.4938 36.2662 35.6269 36.1003 35.7659L24.816 35.7898C24.6508 35.6852 24.4639 35.5379 24.4609 35.3242L24.4804 26.0115C24.6284 25.7649 24.7397 25.6834 25.02 25.6557C25.4909 25.6094 27.2189 25.5825 27.6337 25.6617C27.742 25.6827 28.0455 25.954 28.0455 25.9958V29.241L28.047 29.2418ZM26.8534 26.8546H25.6598V34.6126H35.2079V30.4354C34.2392 30.6357 33.9119 30.0527 33.4911 29.3173C33.3693 29.2971 33.4208 29.4174 33.4171 29.5019C33.4036 29.8225 33.5038 30.1723 33.16 30.3651C32.9888 30.4616 31.5972 30.484 31.3812 30.4205C31.1525 30.3532 30.6285 29.5654 30.5074 29.3173C30.3856 29.2971 30.4372 29.4174 30.4335 29.5019C30.4185 29.8472 30.497 30.3435 30.0216 30.4347C29.7159 30.493 27.5701 30.493 27.2652 30.4347C27.1568 30.4137 26.8534 30.1424 26.8534 30.1006V26.8553V26.8546Z" fill="#ED1C25" fill-opacity="0.5"/>
<path d="M29.7634 5.07243C29.9375 5.11055 29.883 5.04852 29.9293 4.97677C30.2447 4.48871 30.9286 2.61496 31.3479 2.44456C31.6177 2.33394 31.8681 2.36608 32.0781 2.57087L35.7464 9.79304C35.8652 10.1869 35.86 10.4582 35.5042 10.7034L24.4239 10.7475C23.8978 10.746 23.6825 10.2176 23.9314 9.79678L27.5959 2.57087C27.9031 2.28237 28.3045 2.32796 28.5698 2.64785C29.022 3.19271 29.3889 4.42443 29.7634 5.07318V5.07243ZM25.5099 9.54864H30.5825L28.01 4.476L25.5099 9.54864ZM31.9996 9.54864H34.1626L31.59 4.476C31.2672 5.18454 30.8292 5.85945 30.5833 6.59639L31.9996 9.54864Z" fill="#ED1C25" fill-opacity="0.5"/>
<path d="M20.8858 0V12.383C22.5674 12.9555 24.045 14.4294 24.6153 16.1126H36.9983V17.3062H23.9068C23.7244 17.3062 23.2349 16.0064 23.0801 15.7456C22.6324 14.9892 21.9635 14.333 21.2064 13.889C20.9508 13.7388 19.6914 13.2687 19.6914 13.0915V0H20.885H20.8858Z" fill="#ED1C25" fill-opacity="0.5"/>
<path d="M17.3062 36.9985H16.1126V24.6155C14.4354 24.0453 12.9525 22.5624 12.383 20.886H0V19.6924H13.0915C13.2799 19.6924 13.7425 20.9533 13.889 21.2074C14.3255 21.96 14.9959 22.6372 15.7456 23.0811C16.0064 23.2351 17.3062 23.7254 17.3062 23.9077V36.9993V36.9985Z" fill="#ED1C25" fill-opacity="0.5"/>
<path d="M17.3062 0V13.0168C17.3062 13.3247 16.0857 13.7186 15.7912 13.889C15.0243 14.3337 14.333 15.0251 13.889 15.7912C13.7418 16.0445 13.2799 17.3062 13.0915 17.3062H0V16.1126H12.383C12.9533 14.4354 14.4361 12.9525 16.1126 12.383V0H17.3062Z" fill="#ED1C25" fill-opacity="0.5"/>
<path d="M37.0015 19.6934V20.887H24.6185C24.0482 22.5641 22.5653 24.047 20.8889 24.6165V36.9995H19.6953V23.908C19.6953 23.7301 20.9539 23.2607 21.2103 23.1105C21.9674 22.6665 22.6364 22.0103 23.084 21.2539C23.238 20.9931 23.7283 19.6934 23.9107 19.6934H37.0022H37.0015Z" fill="#ED1C25" fill-opacity="0.5"/>
<path d="M17.8853 14.9379C22.9489 14.2526 23.4871 21.5517 19.0512 22.0719C14.0615 22.6571 13.5361 15.5262 17.8853 14.9379ZM18.4757 16.1413C15.3762 16.1771 15.4502 20.8933 18.525 20.8574C21.6186 20.8215 21.558 16.1054 18.4757 16.1413Z" fill="#ED1C25" fill-opacity="0.5"/>
<path d="M32.8192 23.8711V25.0647H30.3946C30.0389 25.0647 29.8415 25.6611 29.7982 25.6611H28.642C28.417 25.0542 29.4118 23.8711 29.9477 23.8711H32.8192Z" fill="#ED1C25" fill-opacity="0.5"/>
<path d="M35.208 17.9023H33.418V19.0959H35.208V17.9023Z" fill="#ED1C25" fill-opacity="0.5"/>
<path d="M29.2393 17.9023H27.4492V19.0959H29.2393V17.9023Z" fill="#ED1C25" fill-opacity="0.5"/>
<path d="M9.54785 17.9023H7.75781V19.0959H9.54785V17.9023Z" fill="#ED1C25" fill-opacity="0.5"/>
<path d="M3.5791 17.9023H1.78906V19.0959H3.5791V17.9023Z" fill="#ED1C25" fill-opacity="0.5"/>
<path d="M19.0959 27.4502H17.9023V29.2402H19.0959V27.4502Z" fill="#ED1C25" fill-opacity="0.5"/>
<path d="M19.0959 7.75781H17.9023V9.54785H19.0959V7.75781Z" fill="#ED1C25" fill-opacity="0.5"/>
<path d="M19.0962 1.78992H17.9026V3.57995H19.0962V1.78992Z" fill="#ED1C25" fill-opacity="0.5"/>
<path d="M19.0962 33.4188H17.9026V35.2089H19.0962V33.4188Z" fill="#ED1C25" fill-opacity="0.5"/>
<path d="M34.0154 32.2246H28.6445V33.4182H34.0154V32.2246Z" fill="#ED1C25" fill-opacity="0.5"/>
</svg>
