<svg width="37" height="37" viewBox="0 0 37 37" fill="none" xmlns="http://www.w3.org/2000/svg">
<path d="M7.60192 0H36.9978V2.88885C36.7554 3.49094 35.6981 3.26733 35.6981 2.70794V1.29969H17.786V15.456H29.0172C29.0592 15.456 29.4015 15.6217 29.4493 15.6745C29.8292 16.0979 29.4652 16.8288 28.9456 16.8288H17.7867V20.9818C17.7867 21.4254 17.1861 21.7142 16.7816 21.4812C16.728 21.4501 16.487 21.2192 16.487 21.1989V1.30114H8.54196V28.458H16.487V25.1718C16.487 25.1516 16.7287 24.9171 16.7816 24.8889C17.1796 24.6732 17.7875 24.9511 17.7875 25.3889V28.4587H35.6995V16.8302H33.2803C32.7289 16.8302 32.3403 16.1398 32.7361 15.7085C32.7991 15.6405 33.1465 15.4581 33.208 15.4581H35.6995V4.58801C35.6995 4.56702 35.8768 4.27105 35.9202 4.23052C36.2951 3.88172 36.6938 4.10532 36.9999 4.40709V29.3973C36.7756 29.7635 36.4275 29.804 36.0281 29.8337H8.14322C7.36384 29.7664 7.22345 29.5413 7.16772 28.7865V0.97333C7.19739 0.573869 7.23792 0.225784 7.60409 0.00144874L7.60192 0Z" fill="#ED1C25" fill-opacity="0.5"/>
<path d="M36.9966 34.5236C36.8699 34.7002 36.7476 34.8036 36.5725 34.9303C35.5666 35.6547 34.3414 36.2278 33.3167 36.9464C33.0077 37.1172 32.3738 36.8502 32.3738 36.51V34.9571H11.8616V36.51C11.8616 36.5274 11.7205 36.7843 11.6945 36.8125C11.4969 37.0275 11.1336 37.0173 10.8702 36.9232C10.4476 36.7713 7.94082 35.1749 7.53485 34.842C7.09776 34.4838 7.09776 34.0575 7.53485 33.6993C7.94082 33.3664 10.4476 31.7701 10.8702 31.6181C11.1329 31.524 11.4962 31.5132 11.6945 31.7288C11.7205 31.757 11.8616 32.0139 11.8616 32.0313V33.5843H32.3738V32.0313C32.3738 31.6912 33.0077 31.4242 33.3167 31.5949C34.3451 32.3121 35.5601 32.8881 36.5725 33.611C36.7483 33.737 36.8699 33.8412 36.9966 34.0178V34.5236ZM10.5626 35.1734V33.3679L9.1175 34.271L10.5626 35.1742V35.1734ZM33.6742 33.3679V35.1734L35.1194 34.2703L33.6742 33.3672V33.3679Z" fill="#ED1C25" fill-opacity="0.5"/>
<path d="M2.981 0C3.15757 0.126641 3.26106 0.248938 3.3877 0.424064C4.11208 1.42995 4.68522 2.65512 5.40382 3.67982C5.5746 3.9881 5.30758 4.62276 4.96745 4.62276H3.41447V7.25905C3.41447 7.74535 2.6966 8.10139 2.2928 7.73088C2.22477 7.66792 2.04241 7.32056 2.04241 7.25905V4.62276H0.489433C0.149312 4.62276 -0.117717 3.98883 0.0530676 3.67982C0.770216 2.6515 1.34625 1.43647 2.06919 0.424064C2.1951 0.248215 2.29931 0.126641 2.47588 0H2.98172H2.981ZM3.63085 3.32232L2.72772 1.87718L1.82459 3.32232H3.63013H3.63085Z" fill="#ED1C25" fill-opacity="0.5"/>
<path d="M3.41458 25.1343H4.96756C4.98493 25.1343 5.24182 25.2754 5.27005 25.3015C5.48497 25.499 5.47484 25.8623 5.38077 26.1257C5.2288 26.5483 3.6324 29.0551 3.29952 29.4611C2.9413 29.8982 2.51506 29.8982 2.15685 29.4611C1.82397 29.0551 0.227574 26.5483 0.0756055 26.1257C-0.0184705 25.8623 -0.0293277 25.4998 0.186323 25.3015C0.214546 25.2754 0.47145 25.1343 0.488818 25.1343H2.04179V8.91994C2.04179 8.06819 3.41385 8.06819 3.41385 8.91994V25.1343H3.41458ZM3.63095 26.4347H1.82542L2.72855 27.8799L3.63167 26.4347H3.63095Z" fill="#ED1C25" fill-opacity="0.5"/>
</svg>
