<svg width="37" height="36" viewBox="0 0 37 36" fill="none" xmlns="http://www.w3.org/2000/svg">
<path d="M26.6274 23.5747C27.4627 23.3772 36.1441 23.3433 36.5207 23.5979C36.6984 23.718 36.8037 23.8894 36.8804 24.2322C37.0652 25.0587 37.0183 32.0286 36.8459 32.9275C36.3098 33.9289 28.4037 33.2579 27.1344 33.4029C26.1444 33.5159 26.3385 31.0857 26.3494 29.6599L25.5967 30.1987C24.8213 30.6994 21.3405 32.8203 20.6975 31.7581C20.5684 30.6644 21.3697 30.6066 21.7491 30.5662C23.2514 30.4062 24.6541 29.4404 26.0514 28.4077C24.7918 27.6059 23.5184 26.7658 22.2041 26.4008C21.763 26.2783 21.2717 26.3908 20.8602 26.0413C20.7307 25.9312 20.7341 25.7016 20.701 25.456C21.0475 23.6209 25.6281 26.7377 26.3447 27.2911C26.3356 26.0181 26.2411 24.5771 26.6274 23.5747Z" fill="#ED1C25" fill-opacity="0.5"/>
<path d="M27.6626 26.0995C30.2795 25.9945 33.0221 26.076 35.6484 26.0763C35.6363 27.6707 35.6373 29.2653 35.6515 30.8597L27.6777 30.8585C27.6405 29.4291 27.6631 27.563 27.6626 26.0995Z" fill="white"/>
<path d="M0.34905 23.5472C0.808081 23.4844 2.48052 23.4261 2.88028 23.4895C3.86079 23.6449 10.009 23.1155 10.452 23.8374C10.7292 24.6774 10.6628 26.2497 10.6614 27.2957C11.5328 26.5611 15.3321 24.222 16.1845 25.0392C16.2926 25.4221 16.2642 25.2582 16.2502 25.7742C16.1535 26.0221 16.069 26.1719 15.8988 26.1857C14.0808 26.3339 12.646 27.4431 10.9313 28.3995C11.6293 28.9732 12.4386 29.4396 13.1658 29.8718C14.1703 30.3636 15.2032 30.4035 16.1758 30.9644C16.2752 31.0218 16.2687 31.3907 16.2781 31.5663C15.8431 33.1919 11.428 30.2226 10.6539 29.6669C10.6594 30.2458 10.6612 30.8248 10.6591 31.4039C10.6535 32.0942 10.6338 32.7499 10.3742 33.2482C9.53819 33.7304 2.49714 33.2644 1.26157 33.4256C1.06368 33.4515 0.465092 33.2596 0.25592 33.1575C-0.146746 32.4383 0.115749 28.4508 0.0357299 27.2156C-0.0363823 26.103 -0.0297589 24.4591 0.34905 23.5472Z" fill="#ED1C25" fill-opacity="0.5"/>
<path d="M1.35809 26.0813C4.01387 26.0566 6.66965 26.0621 9.3253 26.0979C9.34078 27.6844 9.33936 29.2714 9.32118 30.8577L1.34984 30.8621C1.33957 29.2686 1.34227 27.6747 1.35809 26.0813Z" fill="white"/>
<path d="M0.433359 13.1487C1.79734 12.9702 3.31028 14.1621 4.64486 14.6475C6.20592 15.2152 8.64564 16.5783 10.2178 16.3036C12.5078 15.9037 14.6895 14.9859 17.0192 15.494C18.3981 15.7946 19.7172 16.2386 21.1018 16.1743C23.1319 16.2865 25.1095 15.0767 27.0839 15.0182C28.054 15.0063 29.0207 15.2432 29.9598 15.723C31.802 16.6985 33.1 17.632 35.0445 16.7654C35.5744 16.5292 36.4516 15.9552 36.8749 16.9148C36.9634 17.1133 37.0069 17.3748 36.9951 17.6384C36.9692 18.1789 36.8106 18.4503 36.6165 18.7594C35.0436 19.7091 33.1159 20.0714 31.5068 19.2803C30.1066 18.5917 28.8408 17.7128 27.3727 17.6595C25.4722 17.5905 23.4839 18.6804 21.5122 18.78C19.6939 18.8717 17.9738 18.1418 16.1729 18.0133C14.3737 17.8849 12.6682 18.468 10.8877 18.7949C10.1078 18.9383 9.34608 18.9022 8.56812 18.7257C7.51556 18.4869 0.561836 15.8706 0.142139 15.0828C0.0581318 14.9249 -0.00222039 14.6658 0.00440285 14.4355C0.0204203 13.8821 0.234189 13.4852 0.433359 13.1487Z" fill="#ED1C25" fill-opacity="0.5"/>
<path d="M0.463865 0.0828072C2.32669 -0.0868116 4.78438 0.0566504 6.68133 0.0569173L18.693 0.058921L30.6191 0.0585178C32.4178 0.0582509 34.2162 0.0770712 36.0152 0.0227558C36.4013 0.0111454 37.072 0.539885 36.9782 1.51649C36.9266 2.05391 36.7413 2.34911 36.526 2.65058C35.9448 2.74546 35.0121 2.69342 34.4074 2.69302L30.6206 2.68915L18.6688 2.68754L6.3497 2.68728L2.51856 2.69101C1.86725 2.69435 0.573418 3.10071 0.125268 1.97237C-0.157368 1.26066 0.161021 0.522402 0.463865 0.0828072Z" fill="#ED1C25" fill-opacity="0.5"/>
<path d="M26.4625 8.51068C28.5445 7.88773 31.0404 10.0756 33.1271 10.515C34.2284 10.747 37.5738 8.15717 36.8509 11.7838C36.4893 12.5283 35.877 12.4841 35.4287 12.6992C32.9301 13.8985 31.002 12.285 28.6259 11.2744C27.8407 10.9403 26.4841 11.1029 25.6337 11.3076C22.4005 12.3645 19.8602 12.5103 16.6288 11.4516C16.1755 11.3031 15.101 11.6257 14.7671 11.1137C14.6164 10.8779 14.5196 10.533 14.4983 10.1558C14.4361 9.09881 14.8604 8.80628 15.2909 8.79961C18.06 8.75637 20.6168 10.2967 23.4237 9.3126C24.3479 8.98858 25.536 8.63466 26.4625 8.51068Z" fill="#ED1C25" fill-opacity="0.5"/>
<path d="M0.363743 7.92827C1.80727 7.80389 3.43686 8.8623 4.87383 9.51329C6.00363 10.0334 7.1452 10.448 8.2948 10.7561C9.12007 10.9806 11.2302 10.9649 10.0751 13.6303C8.77985 14.0407 3.96138 11.7913 2.49778 11.0764C1.80673 10.6727 0.816016 10.6977 0.197959 10.0008C-0.193285 9.5596 0.132403 8.39055 0.363743 7.92827Z" fill="#ED1C25" fill-opacity="0.5"/>
<path d="M19.9573 21.2539L20.1906 21.4463C20.3979 21.9568 20.3489 22.2507 20.1368 22.7396C19.4488 24.326 18.6085 25.7338 17.8902 27.2725C18.4444 27.2447 19.9972 27.021 20.3714 27.6007C20.345 28.7165 17.3921 34.1156 16.7987 35.2375L16.5784 35.1059C16.4144 34.7421 16.4528 34.9204 16.4336 34.4357C16.6411 33.3825 18.6446 29.7603 19.1924 28.591C18.6864 28.6078 17.045 28.8112 16.7385 28.2974C16.6543 27.2024 19.4145 22.1798 19.9573 21.2539Z" fill="#ED1C25" fill-opacity="0.5"/>
<path d="M26.8349 3.46704C27.0809 3.55138 27.1268 3.62839 27.24 4.00926C27.2241 4.85349 26.1127 6.7349 25.7419 7.43593C25.4628 7.2838 25.3919 7.19238 25.3438 6.6567C25.4751 5.63739 26.4072 4.13404 26.8349 3.46704Z" fill="#ED1C25" fill-opacity="0.5"/>
<path d="M34.9444 3.47559C35.2433 3.55152 35.3094 3.53844 35.3832 4.10522C35.259 5.10038 34.2545 6.72503 33.8457 7.44408C33.6041 7.28941 33.538 7.09363 33.4766 6.65524C33.601 5.72387 34.5505 4.18836 34.9444 3.47559Z" fill="#ED1C25" fill-opacity="0.5"/>
<path d="M22.7366 3.50073L22.9866 3.58801C23.164 3.87026 23.1192 3.71706 23.1547 4.16132C22.9997 5.09469 22.0363 6.72776 21.6392 7.46789C21.3896 7.27278 21.3293 7.11798 21.2695 6.64355C21.3983 5.61383 22.3053 4.19989 22.7366 3.50073Z" fill="#ED1C25" fill-opacity="0.5"/>
<path d="M2.36889 3.47754L2.5834 3.57162C2.76581 3.89204 2.7233 3.73017 2.75777 4.1703C2.61855 5.12742 1.63344 6.83802 1.22267 7.44416C0.992745 7.20168 0.928743 7.12107 0.871094 6.64838C1.03174 5.57061 1.91567 4.22541 2.36889 3.47754Z" fill="#ED1C25" fill-opacity="0.5"/>
<path d="M30.8916 3.46484C31.1893 3.54371 31.2597 3.62098 31.3093 4.16293C31.1622 5.07949 30.1916 6.70268 29.7988 7.42853C29.7467 7.3961 29.5975 7.25371 29.5396 7.20166C29.3912 6.80304 29.421 6.99227 29.4315 6.48782C29.7146 5.42166 30.4188 4.30426 30.8916 3.46484Z" fill="#ED1C25" fill-opacity="0.5"/>
<path d="M14.5768 3.49438C14.8608 3.52468 14.9352 3.6201 14.9985 4.12615C14.8679 5.05045 13.9324 6.63027 13.5444 7.36079C13.4555 7.37547 13.3556 7.31421 13.2639 7.27565C13.102 7.00674 13.1474 7.15314 13.1055 6.70327C13.2437 5.71745 14.1831 4.17366 14.5768 3.49438Z" fill="#ED1C25" fill-opacity="0.5"/>
<path d="M18.662 3.49414L18.9138 3.61171C19.0849 3.91505 19.048 3.76572 19.0747 4.16354C18.906 5.13374 17.9778 6.679 17.5641 7.44448C17.3094 7.30129 17.2497 7.11139 17.1875 6.65498C17.3144 5.65795 18.2424 4.17141 18.662 3.49414Z" fill="#ED1C25" fill-opacity="0.5"/>
<path d="M10.5225 3.48462C10.7966 3.60099 10.8623 3.65117 10.9032 4.17004C10.7721 5.08112 9.81832 6.71966 9.43546 7.44711C9.15823 7.22358 9.08983 7.14711 9.03516 6.59982C9.18979 5.57249 10.0828 4.19472 10.5225 3.48462Z" fill="#ED1C25" fill-opacity="0.5"/>
<path d="M6.43966 3.45972C6.70419 3.5538 6.76109 3.64749 6.83719 4.11204C6.72717 5.11614 5.76869 6.64097 5.36731 7.35094C5.07082 7.28942 5.03209 7.2347 4.94531 6.72024C5.05101 5.76605 6.05227 4.1478 6.43966 3.45972Z" fill="#ED1C25" fill-opacity="0.5"/>
</svg>
