<svg width="37" height="34" viewBox="0 0 37 34" fill="none" xmlns="http://www.w3.org/2000/svg">
<g clip-path="url(#clip0_3484_4148)">
<path d="M37 0H29.8813L29.8842 2.05753C29.8841 2.3779 29.8751 2.7638 29.8867 3.07792C29.1612 3.10171 28.3903 3.0887 27.6604 3.08846L23.9963 3.08823L12.7608 3.08803L9.02218 3.08801C8.44731 3.08801 7.68238 3.0632 7.11762 3.09231C7.12412 2.09263 7.13641 0.995637 7.11636 0H0V7.73198C0.600346 7.76117 1.24767 7.74044 1.85235 7.7457C2.05686 7.74747 2.67004 7.76101 2.83679 7.73649C2.85919 8.26797 2.8469 8.8666 2.84654 9.40228L2.84618 12.165L2.84582 21.5213V24.5994C2.84582 25.1286 2.83299 25.7352 2.84925 26.2585C1.90799 26.2868 0.929699 26.2377 0 26.2738V34H7.11563C7.13786 33.0041 7.11925 31.9278 7.11943 30.9247C7.39891 30.9439 7.8793 30.9235 8.18119 30.9233L10.4606 30.9231L17.5219 30.9229L25.9165 30.9231H28.6296C29.0075 30.9233 29.525 30.9463 29.8832 30.9282L29.886 34H37V26.2676C36.0667 26.2674 35.0889 26.2505 34.1592 26.2715L34.1567 7.74044C34.3812 7.76346 35.1501 7.74943 35.4249 7.74513C35.8264 7.73881 36.6387 7.77675 37 7.73164V0ZM29.8859 4.64453C29.8764 5.6172 29.8631 6.77723 29.8924 7.74142L31.7777 7.74544C31.9993 7.74629 32.532 7.76994 32.7244 7.73306C32.7604 8.72177 32.7324 9.87655 32.7322 10.8793L32.7321 16.7395L32.7321 23.0909L32.732 25.1883C32.732 25.5287 32.7408 25.9268 32.7304 26.2622C31.8033 26.2758 30.8031 26.2397 29.8881 26.2746C29.8831 26.9163 29.8815 27.5581 29.8831 28.1996C29.883 28.5474 29.8711 29.0174 29.8896 29.3535C28.9718 29.3776 28.0171 29.3631 27.095 29.3633H22.3032L7.66919 29.3629L7.12087 29.3664C7.1225 28.3435 7.12774 27.2934 7.11636 26.2721C6.18449 26.2524 5.20457 26.264 4.26999 26.2672L4.26728 14.083L4.26746 9.8652C4.26746 9.23577 4.23983 8.34441 4.2709 7.74729C5.00638 7.7681 5.78107 7.72748 6.52089 7.74521C6.71618 7.74988 6.93335 7.73135 7.12069 7.73863C7.11744 6.75978 7.14689 5.61171 7.11636 4.64701L29.3303 4.64241C29.4981 4.64557 29.7236 4.65629 29.8859 4.64453ZM31.3207 6.17864C31.2918 5.99968 31.3044 4.98345 31.3043 4.75323L31.3055 1.56373C32.3039 1.55556 33.3024 1.55294 34.3009 1.55584C34.5639 1.55535 34.8269 1.55674 35.0899 1.56001C35.2091 1.56145 35.4485 1.57153 35.5591 1.55487C35.5903 1.65598 35.5785 2.50507 35.5784 2.65475L35.5768 4.97073C35.5767 5.33131 35.5633 5.81738 35.5812 6.17045C34.6507 6.1792 33.7201 6.18138 32.7896 6.17697C32.3499 6.17671 31.7512 6.15673 31.3207 6.17864ZM5.69254 27.8309C5.69977 29.3546 5.67032 30.9288 5.69833 32.4445C4.71118 32.4557 3.72421 32.4584 2.73706 32.4527C2.3405 32.4525 1.80881 32.4351 1.42309 32.458C1.43032 32.1565 1.42761 31.8481 1.42544 31.546C1.41623 30.3085 1.43682 29.068 1.42255 27.8309L4.36647 27.8262C4.72707 27.8272 5.35 27.8529 5.69254 27.8309ZM31.3033 32.4527C31.3251 31.1406 31.2908 29.8185 31.3042 28.5054C31.3065 28.2826 31.3004 28.0563 31.3077 27.8341C32.3219 27.8244 33.3361 27.8217 34.3503 27.8254C34.5507 27.8258 35.4254 27.8464 35.5684 27.8156C35.5906 28.2269 35.5777 28.7382 35.5773 29.1574L35.5766 31.4168C35.5766 31.7242 35.5654 32.143 35.5811 32.4433C35.0364 32.4618 34.4685 32.4531 33.9222 32.4529L31.3033 32.4527ZM5.69724 6.17008L3.04021 6.17746C2.56236 6.1774 1.89426 6.15469 1.42851 6.18433C1.4426 4.66165 1.42779 3.08894 1.42435 1.56333C2.44186 1.55431 3.45936 1.55173 4.47686 1.55556C4.67017 1.55582 5.55994 1.57633 5.69056 1.55226C5.72398 3.0683 5.67953 4.64601 5.69724 6.17008Z" fill="#ED1C25" fill-opacity="0.5"/>
</g>
<defs>
<clipPath id="clip0_3484_4148">
<rect width="37" height="34" fill="white" transform="matrix(-1 0 0 1 37 0)"/>
</clipPath>
</defs>
</svg>
