<svg width="37" height="31" viewBox="0 0 37 31" fill="none" xmlns="http://www.w3.org/2000/svg">
<path d="M12.4475 21.6198C11.7023 21.4134 11.0398 19.7444 11.5806 18.9909L25.6965 3.04344C30.4889 2.12004 26.3054 9.85232 26.2727 12.2584H36.0231C36.4518 12.2584 37.5084 14.1641 36.7097 14.6999C32.6306 19.1513 28.8362 24.3215 24.6761 28.6463C24.036 29.3113 22.6352 30.9587 21.7623 30.9613C18.413 30.9691 21.9883 23.4137 22.1979 21.6207H12.4475V21.6198ZM35.0035 14.0132H24.9624C24.7511 14.0132 24.0723 13.102 24.2362 12.7292L25.8371 5.53098L13.4662 19.8649H23.5073C23.6065 19.8649 24.2663 20.5247 24.1784 20.8325L22.3411 28.6402L35.0027 14.0132H35.0035Z" fill="#E51B25" fill-opacity="0.5"/>
<path d="M18.1005 11.06C18.0582 11.1181 17.3138 11.3496 17.1499 11.3201C16.2063 11.1502 11.5165 3.21501 10.4124 2.0237C8.32416 4.81644 6.06339 7.75918 4.20802 10.7028C2.02573 14.164 0.611991 16.5102 2.26552 20.7397C4.33136 26.0234 11.2224 27.6734 15.6439 24.246C16.4409 23.6286 17.626 21.598 18.718 22.3411C19.5375 22.8986 18.1513 24.3951 17.7019 24.852C9.49035 33.1956 -5.86672 23.3382 2.34402 10.2918C4.47023 6.91208 7.0424 3.64593 9.40582 0.423141C10.1959 -0.206331 10.842 -0.116159 11.5553 0.578342C12.4377 1.43758 17.1732 8.30108 17.7925 9.5184C17.9823 9.89123 18.3377 10.7357 18.1005 11.06Z" fill="#E51B25" fill-opacity="0.5"/>
<path d="M5.27082 16.7018C5.39502 16.8908 5.50198 18.6093 5.75989 19.276C6.03505 19.987 7.88266 21.7835 6.59485 22.1824C4.63079 22.7919 2.25012 16.4538 4.5385 16.4148C4.66012 16.4131 5.21906 16.6238 5.27082 16.7018Z" fill="#E51B25" fill-opacity="0.5"/>
</svg>
