<svg width="37" height="39" viewBox="0 0 37 39" fill="none" xmlns="http://www.w3.org/2000/svg">
<path d="M20.7916 12.8652C20.7916 16.5616 17.7953 19.5578 14.0989 19.5578C10.4025 19.5578 7.40625 16.5616 7.40625 12.8652C7.40625 9.16875 10.4025 6.17249 14.0989 6.17249C17.7953 6.17249 20.7916 9.16875 20.7916 12.8652ZM19.8104 12.8638C19.8104 9.70977 17.2536 7.15296 14.0996 7.15296C10.9456 7.15296 8.38875 9.70977 8.38875 12.8638C8.38875 16.0178 10.9456 18.5746 14.0996 18.5746C17.2536 18.5746 19.8104 16.0178 19.8104 12.8638Z" fill="#E51B25" fill-opacity="0.5"/>
<path d="M13.3389 14.9677L11.7118 13.3975C11.4958 13.1896 11.4192 12.9147 11.6048 12.6702C11.7524 12.4766 12.0882 12.4008 12.3042 12.6086L13.6307 13.883L16.0927 11.3797C16.2756 11.1934 16.5891 11.2158 16.757 11.3654C16.9473 11.5354 16.9743 11.8658 16.7793 12.0656L14.0411 14.8716C13.8684 15.0483 13.5617 15.1824 13.3389 14.9677Z" fill="#E51B25" fill-opacity="0.5"/>
<path d="M30.8395 32.4978C31.5607 33.0083 31.6974 33.9462 31.0806 34.563L29.8672 35.7764C29.2693 36.3743 28.756 35.2408 28.2461 34.949C28.1838 35.4209 28.1805 35.8103 28.2096 36.2782C28.2665 37.1889 27.6239 38.124 26.6183 38.124L1.7226 38.1362C0.702175 38.1362 0 37.39 0 36.3872V1.74156C0 0.830151 0.620921 0.0101568 1.58582 0.0101568L20.9258 0C21.1431 0 21.2603 0.0589096 21.4011 0.199074L27.9909 6.78679C28.1513 6.94727 28.1994 7.06441 28.1994 7.30073L28.2082 23.0519L30.4908 20.2981C31.9046 18.5924 34.5596 18.7339 36.0141 20.3272C37.5004 21.9557 37.2789 24.4793 35.534 25.8742L31.1848 29.3526C32.296 31.1442 30.6459 32.1721 30.696 32.3028C30.7129 32.3468 30.7637 32.4436 30.8388 32.4971L30.8395 32.4978ZM23.3174 24.9567C23.4975 25.1097 23.6295 25.3061 23.8509 25.4611C24.5633 24.5057 25.7564 24.262 26.7456 24.9133C26.8811 24.7028 27.2074 24.5308 27.2074 24.2836V20.6217C27.2074 20.4653 27.0334 20.3306 27.2237 20.1985L27.2217 7.70091L21.5514 7.69481C20.9217 7.65757 20.4904 7.16463 20.5053 6.53558L20.4978 0.975733L1.72463 0.977764C1.30007 0.977764 0.981827 1.23304 0.981827 1.67859V36.4522C0.98115 36.8002 1.23236 37.1483 1.60613 37.1483L26.6021 37.151C26.965 37.151 27.2176 36.786 27.2176 36.4752L27.2149 33.8771L20.3055 26.9643C20.1308 26.789 20.1153 26.4836 20.273 26.3238L21.5196 25.0596C22.0119 24.5606 22.7723 24.4956 23.3174 24.9574V24.9567ZM26.4843 6.68455L21.4871 1.67994L21.4912 6.7184L26.4843 6.68455ZM30.5179 28.6382L35.014 25.0176C36.3052 23.9776 36.3594 22.0532 35.2022 20.8987C34.0877 19.7869 32.1646 19.7794 31.1253 21.0693L27.4647 25.6128L30.5186 28.6389L30.5179 28.6382ZM30.3337 29.8766L26.1762 25.7449C25.6751 25.2465 24.8619 25.6054 24.5585 26.1911L29.9058 31.5464C30.1963 31.4225 30.4414 31.1361 30.5219 30.8774C30.6235 30.5531 30.6134 30.1556 30.3337 29.8773V29.8766ZM22.4811 25.4943L21.3469 26.6278L29.4832 34.7675L30.6174 33.634L22.4811 25.4943Z" fill="#E51B25" fill-opacity="0.5"/>
<path d="M3.82812 33.1716V34.1508H24.3761V33.1716H3.82812Z" fill="#E51B25" fill-opacity="0.5"/>
<path d="M3.82812 21.9828V22.9775H24.3761V21.9828H3.82812Z" fill="#E51B25" fill-opacity="0.5"/>
<path d="M18.3789 29.5915L4.35908 29.5956C4.01984 29.5956 3.83295 29.3904 3.82821 29.1176C3.82347 28.8257 4.01374 28.6138 4.35501 28.6138L18.2848 28.6124C18.6098 28.6124 18.8204 28.7641 18.8495 29.0695C18.8691 29.2726 18.729 29.5915 18.3775 29.5915H18.3789Z" fill="#E51B25" fill-opacity="0.5"/>
<path d="M18.2509 25.2938C18.624 25.2938 18.8116 25.4502 18.8495 25.7495C18.8759 25.9547 18.7256 26.2723 18.4148 26.2723L4.23316 26.2709C3.942 26.2709 3.80928 25.929 3.83027 25.7428C3.86007 25.4821 4.04628 25.2959 4.35843 25.2959L18.2516 25.2938H18.2509Z" fill="#E51B25" fill-opacity="0.5"/>
</svg>
