<svg width="44" height="44" viewBox="0 0 44 44" fill="none" xmlns="http://www.w3.org/2000/svg">
<path d="M0.595574 0H43.1668V42.4023C42.9785 42.9817 42.7065 43.1135 42.1161 43.1642C28.2658 43.1 14.3927 43.2782 0.555876 43.0746C0.239138 42.9572 -0.0159414 42.6278 0.00179589 42.2798V0.880953C-0.0277663 0.453568 0.313466 0.241565 0.595574 0ZM16.4443 1.60143H1.60745V4.21472H16.4443V1.60143ZM20.2375 1.60143H18.0457V37.7653H20.2375V1.60143ZM37.7721 1.60143H21.8398V37.7653H37.7721V1.60143ZM41.5654 1.60143H39.2891V37.7653H41.5654V1.60143ZM16.4443 5.81699H1.60745V8.34583H16.4443V5.81699ZM16.4443 9.94725H1.60745V12.645H16.4443V9.94725ZM16.4443 14.162H1.60745V16.7753H16.4443V14.162ZM16.4443 18.3775H1.60745V20.9908H16.4443V18.3775ZM16.4443 22.5923H1.60745V25.2056H16.4443V22.5923ZM16.4443 26.807H1.60745V29.5048H16.4443V26.807ZM16.4443 31.0217H1.60745V33.635H16.4443V31.0217ZM16.4443 35.2373H1.60745V37.7661H16.4443V35.2373ZM41.5654 39.3675H1.60745V41.5594H41.5654V39.3675Z" fill="#E51B25" fill-opacity="0.5"/>
<path d="M29.6566 30.952C30.2428 30.854 30.5604 31.3946 30.6077 31.9039C30.655 32.4132 30.682 34.105 30.5849 34.5856C30.4109 35.4497 29.111 35.4556 29.0003 34.5231C28.9429 34.0349 28.9252 31.9301 29.0206 31.5044C29.0772 31.251 29.4125 30.9934 29.6566 30.9529V30.952Z" fill="#E51B25" fill-opacity="0.5"/>
<path d="M29.7409 4.14853C30.1227 4.11728 30.4867 4.44922 30.5695 4.7989C30.6624 5.18827 30.6632 7.46625 30.5661 7.84211C30.3608 8.63945 29.1876 8.60482 29.0221 7.86407C28.9419 7.50511 28.9545 5.06496 29.0441 4.71866C29.1243 4.40783 29.4199 4.17471 29.7409 4.14853Z" fill="#E51B25" fill-opacity="0.5"/>
<path d="M29.7407 17.5519C30.0895 17.5223 30.4519 17.8146 30.5498 18.138C30.6563 18.4886 30.6655 20.7894 30.5862 21.1821C30.4172 22.0175 29.2482 22.0124 29.0413 21.3325C28.9425 21.0081 28.9526 18.5823 29.0236 18.187C29.0886 17.8247 29.3749 17.5831 29.7398 17.5527L29.7407 17.5519Z" fill="#E51B25" fill-opacity="0.5"/>
<path d="M29.2009 28.2981C29.097 28.1849 29.0202 27.9341 29.0033 27.7786C28.9484 27.2888 28.9281 25.2684 29.0235 24.8444C29.1942 24.0834 30.462 24.0209 30.5996 25.0032C30.6723 25.5176 30.6773 27.3462 30.587 27.842C30.4662 28.5092 29.6207 28.7576 29.2009 28.2989V28.2981Z" fill="#E51B25" fill-opacity="0.5"/>
<path d="M29.2009 14.8938C29.097 14.7806 29.0202 14.5297 29.0033 14.3743C28.9484 13.8844 28.9281 11.8641 29.0235 11.4401C29.1967 10.6681 30.4535 10.6318 30.6022 11.5963C30.6756 12.0727 30.6723 13.9706 30.5878 14.4368C30.467 15.1041 29.6215 15.3524 29.2018 14.8938H29.2009Z" fill="#E51B25" fill-opacity="0.5"/>
</svg>
