<svg width="76" height="76" viewBox="0 0 76 76" fill="none" xmlns="http://www.w3.org/2000/svg">
<path d="M50.4598 2.66935V40.0207L65.2195 34.7902C65.6002 34.6785 66.0487 34.5933 66.3894 34.8771L72.6101 41.3474V62.766C72.6101 63.1367 71.3801 63.1367 71.3801 62.766V42.2324L66.4572 37.1882V67.9894C67.0829 67.8936 67.2509 66.9625 67.6825 66.4783C69.7201 64.1867 73.424 64.866 74.6724 67.828C74.7418 67.993 75.0716 68.9011 75.0716 68.9614V74.8038C75.0716 74.8233 74.8574 75.0699 74.8404 75.0699H62.9954C62.9784 75.0699 62.7642 74.8233 62.7642 74.8038V70.5559C62.7642 70.0557 63.6967 68.8213 64.0697 68.518C64.4103 68.2431 65.2241 68.0604 65.2241 67.9877V36.4787L50.4567 41.6117V73.6527H60.6865C61.0086 73.6527 61.0086 75.0681 60.6865 75.0681H14.3836C14.0615 75.0681 14.0615 73.6527 14.3836 73.6527H19.6904V60.1995L9.7319 63.6972C9.5192 63.8072 8.61444 63.7876 8.61444 63.4737V57.1897L19.6904 53.2947V49.9319L9.38819 53.5767C8.88726 53.6477 8.66376 53.4153 8.60674 52.8637C8.48959 51.7445 8.48805 48.4704 8.60674 47.3565C8.62831 47.1614 8.59749 46.9628 8.76704 46.8333L19.6919 43.0306V38.6053L4.91373 43.8465V65.0505C5.72139 65.3733 6.55986 65.6553 7.21955 66.3222C7.60488 66.7106 8.09502 67.7837 8.30772 67.9025C8.90267 68.236 9.89682 67.7447 10.8232 68.3708C11.2501 68.6581 12.3075 70.0114 12.3075 70.5577V74.8056C12.3075 74.8251 12.0932 75.0716 12.0763 75.0716H0.231198C0.214244 75.0716 0 74.8251 0 74.8056V68.9632C0 68.9029 0.329838 67.9948 0.399197 67.8298C1.07275 66.2317 2.29194 65.5577 3.70225 65.0505L3.71304 35.7089C3.82247 35.3365 5.69981 34.8399 6.13754 34.6944L6.22693 27.0979C6.38261 26.7999 11.4751 24.707 11.9175 24.7939C12.047 24.8187 12.3059 24.9447 12.3059 25.0653V32.4117C13.7378 32.2911 15.8232 30.8562 17.1518 30.8137C18.0073 30.7871 18.0951 31.5834 17.6004 32.2184L4.92298 36.6596V42.1473L19.675 36.9966L19.9339 12.0697L49.9203 0L50.3889 0.184461L59.6877 10.9026V30.1982C59.6877 30.5689 58.4577 30.5689 58.4577 30.1982V11.7877L50.4582 2.67112L50.4598 2.66935ZM49.2283 7.27198V1.78429L20.9234 13.29V73.6545H28.9229V63.2981L29.3838 62.9434L40.3025 58.5039C40.5537 58.2574 41.2288 58.6316 41.2288 58.8729V73.6545H49.2283V50.6413L27.3908 59.5983C26.6602 59.8253 26.5138 59.444 26.4522 58.7061C26.3936 58.0073 26.3967 53.0819 26.5354 52.7626C26.5847 52.6491 26.6818 52.5711 26.7774 52.5108L49.2283 43.3835V38.4262L27.3893 47.3814C26.6602 47.6137 26.5138 47.2253 26.4522 46.491C26.3905 45.7567 26.3967 40.8721 26.5354 40.5475L26.7758 40.2921L49.2283 31.1666V26.564L27.5465 35.3347C27.3153 35.489 26.4614 35.4589 26.4614 35.1502V28.6001L49.2283 19.0419V14.528L27.3908 23.4849C26.6602 23.712 26.5138 23.3306 26.4522 22.5928C26.3936 21.894 26.3967 16.9685 26.5354 16.6493C26.5847 16.5358 26.6818 16.4577 26.7774 16.3974L49.2283 7.27021V7.27198ZM49.2283 12.9353V8.86294L27.6914 17.8022V21.6084L49.2283 12.9353ZM49.2283 20.9025L27.6914 29.5757V33.648L49.2283 24.7088V20.9025ZM11.0775 32.9385V26.5658L7.38601 28.1585V34.1765L11.0775 32.9367V32.9385ZM49.2283 32.9385L27.6914 41.7003V45.5066L49.2283 36.8334V32.9385ZM19.6935 44.6215L9.8475 47.9844V51.702L19.6935 48.3391V44.6215ZM49.2283 49.0486V44.9763L27.6914 53.9155V57.7218L49.2283 49.0486ZM19.6935 54.8892L9.8475 58.2521V61.9696L19.6935 58.6068V54.8892ZM39.9988 60.3769L35.6908 61.9696V73.6527H39.9988V60.3769ZM34.4609 62.6791L30.1529 64.2719V73.6545H34.4609V62.6791ZM11.0775 73.6545C11.0698 72.3881 11.2809 70.3892 10.1111 69.7241C8.9412 69.0589 8.09502 70.1799 7.5386 69.8571C7.29199 69.7134 6.95136 68.3371 6.54291 67.8103C5.21429 66.0952 2.62024 66.347 1.68928 68.4275C1.55981 68.7149 1.23151 69.7826 1.23151 70.0256V73.6545H11.0775ZM73.8416 73.6545V70.0256C73.8416 69.7826 73.5133 68.7149 73.3839 68.4275C72.4529 66.347 69.8589 66.0952 68.5302 67.8103C68.1218 68.3371 67.7812 69.7134 67.5345 69.8571C66.9781 70.1817 66.1397 69.0536 64.9621 69.7241C63.7845 70.3945 64.0034 72.3881 63.9957 73.6545H73.8416Z" fill="#ED1C25" fill-opacity="0.5"/>
<path d="M61.3432 43.2399C62.2263 43.1442 62.5007 44.313 61.7316 44.76L54.3409 47.424C53.4763 47.6262 53.1911 46.3154 53.9556 45.9022L61.3432 43.2417V43.2399Z" fill="#ED1C25" fill-opacity="0.5"/>
<path d="M62.1222 57.5154C61.908 57.9163 55.2433 59.8761 54.3355 60.3426C53.4754 60.5448 53.181 59.2412 53.9594 58.8297C56.088 57.7052 59.1644 57.3292 61.3762 56.2011C62.0051 55.9759 62.3997 56.9975 62.1222 57.5154Z" fill="#ED1C25" fill-opacity="0.5"/>
<path d="M61.1905 49.7914C62.1939 49.6318 62.5361 50.7049 61.8008 51.2121L54.6537 53.7839C53.6565 54.1475 53.1001 53.3281 53.7921 52.4395L61.1905 49.7914Z" fill="#ED1C25" fill-opacity="0.5"/>
<path d="M58.7084 32.6077C59.9338 32.1395 59.8444 34 59.6871 34.9738C59.5793 35.646 58.6005 35.5538 58.4772 35.1263C58.3709 34.7556 58.3539 32.7443 58.7084 32.6077Z" fill="#ED1C25" fill-opacity="0.5"/>
</svg>
