<svg width="71" height="66" viewBox="0 0 71 66" fill="none" xmlns="http://www.w3.org/2000/svg">
<g opacity="0.5">
<path d="M18.4271 55.6172C18.4271 56.1743 18.0807 56.6218 17.5214 56.6218H8.19203C7.79407 56.6196 7.37891 56.2798 7.37891 55.8839L7.38966 46.2405C7.38966 45.7328 7.97692 45.5457 8.39639 45.5457H17.4182C17.9603 45.5478 18.3174 45.8275 18.4486 46.447C18.9218 45.9974 19.4037 45.8855 19.8016 46.1802C20.1695 46.4513 20.2727 47.0923 19.9135 47.4451L18.4314 48.8971L18.4271 55.6194V55.6172ZM9.93444 51.0181C9.58165 50.7428 9.46334 50.2738 9.70427 49.8436C9.85915 49.5704 10.341 49.2348 10.7088 49.5102L13.3354 51.4784L16.6524 48.2539C16.7836 47.9829 16.7062 47.5828 16.6588 47.273H9.02666V54.8686L16.704 54.8794L16.6545 50.6847L13.9398 53.2639C13.6193 53.5199 13.1547 53.5392 12.8169 53.2746L9.93229 51.0181H9.93444Z" fill="#ED1C25"/>
<path d="M18.431 19.7515L18.4224 26.5555C18.4224 27.0567 18.076 27.5085 17.5146 27.5085L8.19378 27.5042C7.86466 27.5042 7.38927 27.2073 7.38927 26.861L7.38281 17.1314C7.38281 16.7313 7.82379 16.4646 8.18948 16.4646L17.6351 16.4732C18.1234 16.4732 18.36 16.841 18.4439 17.3078C18.887 16.9206 19.4162 16.7615 19.8292 17.0863C20.2745 17.4348 20.1841 18.1382 19.7754 18.4953C19.3151 18.8975 18.9343 19.2632 18.431 19.7515ZM9.95555 21.9263C9.56835 21.623 9.4608 21.1583 9.71033 20.7346C9.86951 20.4657 10.3449 20.1258 10.7084 20.3968L13.3307 22.3544L16.6541 19.1341C16.7316 18.805 16.7466 18.5146 16.6541 18.1231L9.02197 18.1317L9.04348 25.7725L16.6993 25.766L16.68 21.5498L13.9825 24.0925C13.6791 24.4237 13.1973 24.3829 12.8122 24.1699L9.95555 21.9263Z" fill="#ED1C25"/>
<path d="M18.4116 41.1894C18.4116 41.667 18.0803 42.0219 17.6351 42.0219L8.18518 42.0262C7.80443 42.0262 7.38281 41.7896 7.38281 41.3766V31.7288C7.38281 31.3266 7.79368 31.0082 8.19809 31.006L17.4135 30.9802C18.0115 30.9802 18.2868 31.4126 18.5041 31.817C18.8547 31.6084 19.3387 31.3029 19.7302 31.5653C20.1218 31.8278 20.3111 32.4666 19.9325 32.8538L18.431 34.3854L18.4116 41.1894ZM9.71463 36.2053C9.37905 35.8783 9.65655 35.2115 9.90823 35.0544C10.2266 34.8565 10.603 34.8458 10.9558 35.0953C11.7603 35.6675 12.4509 36.3408 13.3221 36.8786C14.6579 35.7557 15.4022 34.8135 16.6391 33.7251C16.7273 33.3766 16.8047 33.0259 16.5961 32.7205L9.03057 32.742V40.3677L16.7058 40.3699L16.68 36.059L13.8577 38.7737C13.5307 38.9759 13.0962 38.9652 12.7907 38.7006C11.7862 37.8401 10.6697 37.1367 9.71678 36.2053H9.71463Z" fill="#ED1C25"/>
<path d="M43.4283 25.3337H22.7216C22.3 25.3359 22.1214 24.8304 22.1064 24.5636C22.0892 24.2711 22.2655 23.6989 22.7065 23.6989L43.4025 23.6946C43.8305 23.6946 44.0306 24.2044 44.0435 24.4776C44.0564 24.7508 43.9187 25.3359 43.4283 25.3359V25.3337Z" fill="#ED1C25"/>
<path d="M41.4711 20.2958L22.9198 20.2893C22.4164 20.2893 22.083 19.801 22.1024 19.4353C22.126 18.9362 22.4724 18.5706 23.0252 18.5706L41.5571 18.5792C42.0217 18.5792 42.3659 19.0804 42.3638 19.4202C42.3616 19.887 41.9981 20.2958 41.4711 20.2958Z" fill="#ED1C25"/>
<path d="M41.4221 34.8308L22.8041 34.82C22.333 34.82 22.1244 34.3704 22.1029 34.0219C22.0814 33.6734 22.3244 33.1593 22.8084 33.1593L41.5813 33.155C42.076 33.155 42.3858 33.6541 42.3535 34.0112C42.3105 34.4866 42.0158 34.8329 41.4221 34.8329V34.8308Z" fill="#ED1C25"/>
<path d="M39.2505 39.929L22.9192 39.9376C22.4008 39.9376 22.1104 39.4945 22.1018 39.0729C22.091 38.6018 22.4696 38.2124 23.0182 38.2124L39.399 38.2296C39.8959 38.2296 40.0787 38.7308 40.083 39.0772C40.0895 39.445 39.8227 39.9268 39.2505 39.9268V39.929Z" fill="#ED1C25"/>
<path d="M32.4836 54.4577L22.8014 54.4405C22.3582 54.4405 22.1152 54.0081 22.1022 53.6726C22.0872 53.2961 22.3195 52.8057 22.8014 52.8057H32.4491C32.8815 52.8057 33.0923 53.2854 33.1074 53.5758C33.1289 53.9608 32.9374 54.2878 32.4857 54.4599L32.4836 54.4577Z" fill="#ED1C25"/>
<path d="M31.2077 49.3853L22.9044 49.4025C22.4269 49.4025 22.087 48.9142 22.102 48.5463C22.1214 48.0387 22.4849 47.6902 23.0227 47.6902H31.0507C31.5605 47.6902 31.866 48.0043 31.9219 48.428C31.9735 48.8152 31.767 49.3831 31.2077 49.3831V49.3853Z" fill="#ED1C25"/>
<path d="M56.3633 22.133L52.5408 19.1666C52.1579 18.8697 52.089 18.3793 52.2891 18.048C52.5085 17.6823 53.0656 17.4801 53.4572 17.749C54.537 18.489 55.4835 19.3301 56.5892 20.1841L61.3776 14.6729C61.7132 14.2857 62.2961 14.2663 62.6295 14.5933C62.963 14.9203 62.9866 15.4301 62.6403 15.8324L57.4561 21.806C57.2216 22.0771 56.7312 22.4234 56.3633 22.1373V22.133Z" fill="#ED1C25"/>
<path d="M53.4338 47.7312C53.1327 47.9721 52.7476 48.269 52.6831 48.6282C52.5992 49.0864 52.9627 49.6608 53.3349 49.9641L63.1354 57.9942C63.6065 58.2911 64.2475 58.1878 64.7616 58.3276C66.5449 58.816 67.7022 60.4766 67.614 62.2599C67.5258 64.0432 66.1814 65.6501 64.4132 65.9448C62.6449 66.2395 60.7584 65.3425 60.0744 63.5527C59.8958 63.0881 59.8463 62.5546 59.429 62.2104L51.1558 55.3935L51.1128 61.5844C51.102 63.0945 49.8802 64.226 48.3464 64.2368H2.83088C1.44125 64.2368 0.0193601 63.2645 0.0193601 61.7716L0 9.4886L7.3805 0.539931C7.66014 0.200054 7.84299 0.00215112 8.3399 0H48.3314C49.8673 0 51.0934 1.10353 51.1171 2.60716L51.1515 4.86368L57.5963 3.05244L70.2793 6.70289C70.6191 6.79969 70.9461 7.04492 70.944 7.45363L70.9074 16.6755C70.8773 24.5529 65.151 31.372 57.592 33.5102C55.215 32.9057 53.1241 31.7914 51.1343 30.2727L51.1171 37.7586L57.2005 42.7557C57.9426 43.2397 58.0695 44.1776 57.4887 44.8337L55.3225 47.4989C54.8815 48.041 54.1437 48.1464 53.436 47.7291L53.4338 47.7312ZM37.9759 46.5137L43.5559 39.6925C43.571 39.5742 43.3365 39.3569 43.2311 39.2838C42.6309 38.8665 42.5148 38.0318 43.0138 37.4209L45.1757 34.7686C46.5997 33.0219 48.0388 35.6161 49.3854 36.2593L49.3983 28.7046C46.1394 25.3273 44.1582 20.7884 44.1582 16.0775V7.51387C44.1582 7.03417 44.4959 6.804 44.896 6.68784L49.3919 5.3778L49.4048 2.81367C49.4069 2.30385 49.0692 1.70799 48.4454 1.70799L9.32941 1.70369L9.34447 7.55474C9.34877 9.14441 8.42379 10.6545 6.73731 10.676L1.66067 10.7384L1.67142 61.55C1.67142 62.2491 2.35978 62.5525 2.94273 62.5525L48.5078 62.5395C49.0757 62.5395 49.4069 61.9222 49.4048 61.4855L49.3661 54.1588C49.3381 53.8361 48.6153 53.7522 48.3873 53.8662C48.1593 53.9802 47.7678 54.3588 47.8603 54.6256C48.4562 55.1999 48.682 55.9722 48.1163 56.6304C47.2902 57.5941 46.5567 58.6159 45.6834 59.528C45.2875 59.941 44.5949 60.0098 44.1367 59.6334L33.8436 51.1816C33.2155 50.6654 33.0606 49.9017 33.5876 49.2628L35.8592 46.5115C36.4271 45.8232 37.251 45.9135 37.9716 46.5115L37.9759 46.5137ZM6.5179 8.97663C7.08579 8.94221 7.49881 8.61094 7.60851 8.09467L7.55474 3.05889L2.71471 8.89919L6.5179 8.97663ZM58.1297 31.5612C64.6132 29.238 68.98 23.23 69.2489 16.3571L69.2661 8.18502L57.5726 4.8013L45.8361 8.18287V16.4625C46.1523 23.3676 50.6073 29.3499 57.1101 31.6129C57.4543 31.7333 57.7232 31.7075 58.1319 31.5612H58.1297ZM46.3416 36.0248L44.5476 38.2061L54.219 46.1566L56.013 43.9754L46.3416 36.0248ZM44.9348 40.6863L39.2386 47.6151L46.4018 53.5027L52.098 46.5739L44.9348 40.6863ZM36.924 47.8732L35.13 50.0544L44.8035 58.0093L46.5976 55.828L36.924 47.8732ZM65.7942 62.7955C66.2567 61.5371 65.3919 60.055 64.0539 59.9496C63.0407 59.87 62.3008 59.5581 61.5264 58.9192L52.0077 51.0676C51.6957 50.8095 51.6075 50.4718 51.2655 50.2287L49.6328 52.2765C50.3362 52.4831 50.7385 52.8401 51.2354 53.251L60.5196 60.9004C61.0338 61.3242 61.3414 61.8469 61.4984 62.4815C61.7436 63.471 62.4858 64.2454 63.4602 64.3142C64.4347 64.3831 65.407 63.8453 65.7942 62.7955Z" fill="#ED1C25"/>
</g>
</svg>
