<svg width="61" height="82" viewBox="0 0 61 82" fill="none" xmlns="http://www.w3.org/2000/svg">
<path d="M29.9656 0C31.2757 0.0380986 32.9198 0.615502 34.0053 1.32794C35.0185 1.99284 36.0881 2.81244 37.2854 3.11936C38.5567 3.46672 39.8275 3.21534 41.1009 3.19372C43.0419 3.16083 44.7659 3.55972 46.1606 4.92753C46.7766 5.53769 47.3024 6.2326 47.7223 6.9912C48.3579 8.14334 48.7569 9.36921 49.7594 10.3575C50.7274 11.3113 51.9273 11.7221 53.0605 12.3418C53.8252 12.7605 54.5253 13.2876 55.1391 13.9068C56.5688 15.358 56.9127 17.1105 56.8623 19.1269C56.788 20.3049 56.6611 21.5185 56.9225 22.6862C57.2224 24.024 58.1327 25.0559 58.8242 26.1914C59.1476 26.7234 59.4137 27.2881 59.6183 27.8759C59.8063 28.4138 60.0434 29.3197 60.0519 29.8922C60.0737 31.3662 59.4005 33.0829 58.582 34.2831C57.8862 35.3033 57.1617 36.3111 56.9016 37.5427C56.6329 38.8139 56.8396 39.9221 56.8666 41.1605C56.89 42.0648 56.776 42.9678 56.5274 43.8376C56.3856 44.3318 56.1745 44.9307 55.8678 45.3441C55.1387 46.3275 53.9883 47.3087 52.8931 47.8584C51.8316 48.3915 50.5787 48.9259 49.7218 49.7798C48.8261 50.7213 48.3169 51.9425 47.6894 53.0621C47.4421 53.5038 47.0961 53.9596 46.891 54.4064C46.9773 54.7853 47.305 55.62 47.4519 56.0232L48.5151 58.9386L52.6261 70.237L53.8704 73.6441C54.2899 74.7884 55.2715 76.4855 53.7974 77.2109C53.556 77.3296 53.3322 77.3715 53.0652 77.295C50.533 76.5727 48.0666 75.5919 45.5455 74.8196C44.7121 76.2399 43.8018 77.6483 42.9543 79.0673C42.4498 79.8541 42.0154 80.7217 41.4618 81.4735C40.8569 82.295 39.5541 82.11 39.1632 81.1839C38.8548 80.4535 38.6062 79.7098 38.3401 78.9708L36.7869 74.6936L31.4261 59.9604C30.9626 60.0629 30.6196 60.0962 30.1488 60.1227C29.614 60.1205 29.1232 60.0911 28.6064 59.9522L23.3447 74.3984L21.7381 78.8161C21.4746 79.5415 20.9575 81.3603 20.3758 81.7623C20.0726 81.9724 19.696 82.0476 19.3353 81.9703C18.6218 81.8144 18.3538 81.1886 18.0054 80.626C17.803 80.2992 17.6097 79.9648 17.4111 79.6354L15.6378 76.7273C15.2702 76.1237 14.8539 75.4035 14.465 74.8269C12.0324 75.5684 9.62863 76.5039 7.19692 77.2557C6.92149 77.3194 6.61777 77.3736 6.35037 77.2711C4.69802 76.6376 5.71792 74.8401 6.14798 73.6663L7.41336 70.2041L11.1881 59.8305C11.7866 58.1868 12.6493 56.0155 13.1524 54.3761C12.8514 53.9314 12.5103 53.4167 12.2672 52.9558C11.3822 51.2774 10.7413 49.7619 8.99194 48.811C7.87466 48.2036 6.62589 47.6978 5.63757 46.8811C5.07299 46.415 4.44232 45.8008 4.03712 45.1746C3.27506 43.8264 3.07476 42.0277 3.19792 40.5087C3.2848 39.4371 3.33196 38.093 3.00702 37.0794C2.66802 35.966 1.94428 35.0965 1.33997 34.1382C0.241954 32.3969 -0.326001 30.5841 0.195991 28.576C0.415467 27.7363 0.754975 26.9328 1.20401 26.1901C1.88559 25.0635 2.74043 24.1236 3.08365 22.7602C3.41867 21.4293 3.18373 20.1761 3.16464 18.8617C3.15016 18.0168 3.25323 17.174 3.47096 16.3574C3.59518 15.8973 3.81085 15.2626 4.08159 14.8693C4.78491 13.8475 5.9611 12.8254 7.07014 12.2697C8.13129 11.7519 9.24397 11.2647 10.1355 10.4709C10.6514 10.0114 11.0988 9.31086 11.4386 8.71582C11.7528 8.16568 11.9941 7.55992 12.2995 7.002C12.5846 6.4792 12.9212 5.98617 13.3042 5.53021C13.676 5.08712 14.3498 4.39853 14.8502 4.09828C15.9498 3.43849 17.8008 3.12102 19.0634 3.19855C20.3291 3.27629 21.708 3.43306 22.9412 3.05686C24.0106 2.73072 24.9033 2.05218 25.8089 1.44872C27.0478 0.6183 28.4789 0.119503 29.9656 0ZM30.1083 57.3666C30.7204 57.25 31.4385 57.068 31.9822 56.7656C33.3628 55.995 34.5678 54.9677 36.1065 54.476C37.0112 54.1868 38.2824 54.0194 39.2205 54.0617C41.5507 54.1668 43.6382 54.5926 45.0278 52.2586C45.9457 50.7166 46.5664 48.9908 47.8889 47.7183C48.498 47.1348 49.3797 46.5787 50.1259 46.1652C51.1605 45.6722 52.9478 44.8337 53.5868 43.8119C54.5428 42.2831 53.8739 39.8557 54.0686 38.1164C54.2314 36.6628 54.292 36.3546 54.9354 34.9928C55.7213 33.302 57.5876 31.5958 57.251 29.5676C57.0434 28.3156 56.2211 27.211 55.5253 26.1769C54.3967 24.5001 53.9337 22.6262 54.0298 20.6201C54.0934 19.3041 54.2754 18.0611 53.8307 16.7772C53.6035 16.1278 52.7739 15.3449 52.1746 15.0094C50.4886 14.0656 49.255 13.6104 47.762 12.2505C45.9491 10.5993 45.5519 7.30841 43.3255 6.25541C42.3127 5.77639 40.4251 6.01778 39.3508 6.06336C38.4811 6.1135 36.8972 5.92047 36.0757 5.62487C35.3243 5.34654 34.6042 4.99105 33.9262 4.56406C32.5217 3.6827 31.7434 2.90129 29.9464 2.77169C28.3648 2.96434 27.4437 3.64276 26.1705 4.51553C24.6179 5.57981 22.7206 6.13405 20.8415 6.0646C18.7972 5.98907 16.6354 5.51411 15.2756 7.45326C14.1002 9.12944 13.5764 11.1077 11.9936 12.498C11.4163 12.9978 10.7125 13.4734 10.0434 13.8533C8.89651 14.452 7.14553 15.1642 6.4197 16.3096C5.65794 17.5119 5.97361 19.5888 5.99877 20.9399C6.03286 22.7703 5.63355 24.3705 4.64309 25.9314C3.80145 27.2578 2.62043 28.6717 2.73863 30.3494C2.87199 31.6614 3.84622 32.943 4.55283 34.0179C5.59925 35.6098 6.03056 37.267 5.99642 39.1575C5.96921 40.6667 5.67725 42.2306 6.33286 43.6581C6.4927 44.0033 7.19184 44.6398 7.49696 44.8508C9.07203 45.9413 10.9548 46.4608 12.3109 47.9088C12.8814 48.518 13.4166 49.3202 13.8301 50.0536C14.4324 51.2509 15.3728 53.4795 16.8154 53.8938C19.3853 54.6315 21.2983 53.4961 24.0367 54.523C24.7461 54.7921 25.428 55.1292 26.0726 55.5294C27.4307 56.3756 28.3534 57.2466 30.1083 57.3666ZM9.03201 73.7453L12.8092 72.4753C13.4425 72.2592 14.1022 72.0157 14.7359 71.8389C15.2831 71.6864 15.8602 71.9179 16.1719 72.3797C17.0889 73.7376 17.8957 75.21 18.7717 76.594C18.955 76.8956 19.1071 77.1617 19.3305 77.4368L19.3611 77.4749C19.4964 76.8755 19.8619 75.9554 20.0824 75.351L21.3768 71.8038C22.9407 67.5134 24.6121 63.0996 26.1067 58.7968C25.1907 58.2167 24.1059 57.4499 23.0948 57.1014C21.8428 56.6691 20.216 56.8895 18.9024 56.9061C17.7962 56.9202 16.4042 56.7246 15.3744 56.3017C15.063 57.2867 14.5984 58.4687 14.2401 59.4525L12.1063 65.3123L10.0801 70.8829C9.76318 71.7543 9.3801 72.9123 9.03201 73.7453ZM33.919 58.8002L38.4067 71.1349L39.8685 75.1447C40.1376 75.8828 40.481 76.7495 40.6998 77.4868C40.9206 77.1506 41.135 76.8106 41.3435 76.4663L42.9381 73.8307C43.3084 73.2203 43.9022 71.9837 44.5921 71.841C45.3093 71.6928 46.683 72.2865 47.375 72.5292C48.5604 72.9444 49.841 73.2917 50.9884 73.7521L46.7748 62.1743C46.5429 61.5362 44.7223 56.4328 44.6245 56.3666L44.4814 56.373C43.4661 56.6926 42.6865 56.8805 41.6028 56.9023C40.0765 56.9326 38.2594 56.6174 36.7968 57.1518C35.7929 57.5183 34.8314 58.241 33.919 58.8002Z" fill="#ED1C25" fill-opacity="0.5"/>
<path d="M29.0168 8.20773C41.0799 7.66011 51.3044 16.9927 51.8572 29.0557C52.4099 41.1187 43.0815 51.3471 31.0189 51.905C18.9488 52.4628 8.71306 43.1281 8.16006 31.0577C7.6071 18.9875 16.9464 8.75565 29.0168 8.20773ZM30.464 49.1745C41.0141 48.9234 49.3672 40.1755 49.1314 29.6255C48.8956 19.0754 40.1593 10.7097 29.6088 10.9306C19.0374 11.152 10.6512 19.9093 10.8876 30.4806C11.1239 41.0521 19.8931 49.4257 30.464 49.1745Z" fill="#ED1C25" fill-opacity="0.5"/>
<path d="M29.7312 15.1105C31.0588 14.9738 31.3287 15.9524 31.8153 16.9387L32.8003 18.932L34.1241 21.6126C34.356 22.0835 34.6867 22.7085 34.8738 23.1778C35.3355 23.3168 36.2697 23.4261 36.7798 23.4998L41.0159 24.1108C41.6797 24.2055 43.3025 24.3321 43.7801 24.7243C45.2094 25.8983 43.5251 27.1396 42.669 27.9712L39.6153 30.9339C39.13 31.4045 38.3573 32.0834 37.9609 32.6046L38.91 38.1695C39.0467 38.9644 39.5495 40.9444 39.2167 41.6125C39.0506 41.9414 38.7579 42.1883 38.4055 42.2964C38.2133 42.3536 37.866 42.3882 37.6832 42.313C36.878 41.9816 36.01 41.4907 35.2368 41.0845L30.2865 38.4751C30.198 38.4392 30.0396 38.3861 29.9537 38.4149C29.4804 38.5731 28.8737 38.9321 28.4398 39.1613L24.5639 41.1998C23.8927 41.5544 23.2345 41.9141 22.5488 42.24C21.7194 42.6343 20.5699 41.9585 20.6723 41.0179C20.9788 38.2016 21.724 35.3573 22.0596 32.5481L18.036 28.6303C17.3545 27.9689 16.631 27.2989 15.9873 26.6014C15.3891 25.9657 15.83 24.6419 16.6605 24.4879C19.4451 23.9714 22.3178 23.7263 25.1018 23.2157C26.3752 20.8511 27.4568 18.3278 28.7112 15.9477C28.9839 15.4304 29.1784 15.2709 29.7312 15.1105ZM20.0186 26.7095C21.0193 27.7153 22.0315 28.7096 23.055 29.6922C25.2191 31.794 25.084 31.2416 24.5661 34.2653L23.8422 38.5146C24.7297 37.9415 25.9662 37.3696 26.9111 36.8623C27.653 36.4641 29.3561 35.4481 30.1011 35.4221C30.9268 35.5897 33.0741 36.8899 33.9438 37.3009C34.2578 37.4491 35.9109 38.3214 36.189 38.5068L35.5226 34.6171C35.3787 33.7886 35.1343 32.6946 35.1467 31.8618C35.1536 31.3828 35.9318 30.6938 36.2496 30.3825C37.4594 29.1619 38.8032 27.9891 39.9749 26.736C38.2005 26.5027 35.0493 26.0832 33.3697 25.6942C32.5829 25.512 30.5483 19.9297 29.9708 19.5676L28.1211 23.32C26.7107 26.1885 27.1162 25.7155 24.0252 26.1702C23.1656 26.3018 22.3053 26.4287 21.4443 26.5509C21.0796 26.6033 20.3631 26.7255 20.0186 26.7095Z" fill="#ED1C25" fill-opacity="0.5"/>
</svg>
