<svg width="76" height="76" viewBox="0 0 76 76" fill="none" xmlns="http://www.w3.org/2000/svg">
<path d="M50.8505 32.9015L57.4057 42.9445C57.9276 43.6335 57.8816 44.552 56.9144 44.6745C56.0547 44.552 50.7123 42.8374 50.3746 43.067L48.6552 49.298C48.3789 49.941 47.6573 50.0788 47.1507 49.6195L41.4092 38.4282C39.2139 41.2911 35.7905 41.2911 33.5952 38.4282L27.8537 49.6195C27.347 50.0788 26.6255 49.9563 26.3492 49.298L24.6298 43.067C24.2767 42.8067 19.1492 44.5673 18.2128 44.6592C17.2763 44.7511 17.1228 44.1081 17.3377 43.3273L24.1539 33.0087C22.1121 32.2126 20.2699 32.0748 19.5177 29.7018C18.7655 27.3288 20.0396 26.5481 19.6866 24.9559C19.3335 23.3637 18.3663 23.4249 17.9058 22.7666C17.0154 21.4653 16.8618 19.919 17.5527 18.48C18.3356 16.8418 19.9015 16.9031 19.7173 14.5301C19.533 12.1571 18.9343 12.4174 19.6405 10.6262C20.8226 7.62552 23.9083 8.78904 24.9522 6.59978C25.9961 4.41052 25.5355 3.64505 27.3317 2.69586C29.6805 1.45579 30.924 2.98674 32.628 2.63462C34.3321 2.28251 34.8694 0.384127 36.5274 0.108556C39.3981 -0.381348 39.5363 0.874033 41.3324 2.12941C43.1286 3.38479 45.0168 1.48641 47.4578 2.604C49.8987 3.7216 49.1771 6.86004 51.2496 7.83985C52.8462 8.59002 54.1357 8.29914 55.149 10.2281C56.3771 12.6011 54.8573 13.7493 55.3025 15.7242C55.7477 17.6992 57.728 17.7757 57.8816 20.0415C58.0351 22.3073 56.6534 22.7819 55.6709 24.2516C54.673 25.752 55.7323 27.0227 55.7323 28.4464C55.7323 31.2787 53.1993 32.4269 50.8351 32.9627L50.8505 32.9015ZM49.3767 32.0442C50.6356 30.8041 52.8769 31.0644 53.7366 29.5947C54.5349 28.2474 53.3067 26.395 53.6752 24.6497C54.059 22.8125 56.3924 22.0011 56.2236 19.9956C56.0547 17.99 54.0129 17.5767 53.6752 15.9539C53.3375 14.3311 54.5195 12.3255 53.7366 11.0089C52.9383 9.66168 51.4185 9.81478 50.2211 9.15647C47.9183 7.90109 48.5477 5.22193 46.9358 4.18088C45.6156 3.32355 43.758 4.48707 42.2535 4.27274C40.0429 3.95124 39.26 1.42517 37.2028 1.65482C35.1457 1.88446 34.7312 4.39522 32.0754 4.34929C30.8319 4.33398 29.4656 3.4001 28.176 4.11965C26.8865 4.83919 27.1321 8.02357 24.5991 9.24833C23.4784 9.79947 22.1121 9.72292 21.3599 10.9018C20.6077 12.0806 21.6976 14.0708 21.3906 15.8314C21.0836 17.592 18.8576 18.4953 18.8115 20.1487C18.7655 21.8021 20.9914 22.8432 21.3599 24.6497C21.7283 26.4562 20.5002 28.2474 21.2985 29.5947C22.0968 30.9419 24.3995 30.8347 25.6584 32.0442C26.9172 33.2536 26.6409 35.4123 28.0225 36.3308C29.4042 37.2494 31.0775 36.0706 32.7662 36.3308C34.4549 36.5911 35.6677 39.2856 38.1546 38.8263C39.0911 38.6579 39.9508 37.3719 40.7951 36.8667C42.9904 35.5654 43.9269 36.8667 45.8612 36.7289C48.3635 36.5605 47.9183 33.4526 49.3614 32.0442H49.3767ZM31.8451 37.9536C28.698 39.1478 25.8579 37.9996 25.1825 34.5855L20.055 42.3781C20.3313 42.5924 24.8601 40.8471 25.5202 41.1074C26.1803 41.3677 25.9807 41.4901 26.1036 41.7657C26.6409 43.0058 26.8558 44.9654 27.3317 46.3432C27.8076 47.7211 27.347 46.6954 27.562 46.6494L31.8604 37.9383L31.8451 37.9536ZM54.9954 42.3781L49.868 34.5855C49.2386 37.9843 46.3064 39.1325 43.2053 37.9536L47.5038 46.6647C47.7494 46.6341 47.8262 46.1136 47.8876 45.8993C48.256 44.6898 48.5017 42.8527 48.9622 41.7657C49.4228 40.6787 49.2386 41.2605 49.5456 41.1074C50.2518 40.9237 54.7805 42.5618 55.0108 42.3781H54.9954Z" fill="#ED1C25" fill-opacity="0.5"/>
<path d="M55.7786 67.1186C55.9475 67.3176 57.0528 67.2563 57.4826 68.4046C57.9125 69.5528 57.6975 72.6453 57.5594 73.2883C57.4212 73.9313 56.408 74.8498 55.533 74.9417C51.2805 75.3551 46.368 74.6202 42.0388 74.9417C41.1331 74.9417 40.1199 74.0538 39.9817 73.1658C39.8435 72.2779 39.8896 69.0322 40.1659 68.328C40.4883 67.5319 41.0717 67.3176 41.8239 67.042C41.7318 61.3163 41.2405 55.8814 47.4887 53.4625C48.5326 53.0491 49.5458 52.9267 50.6051 52.4521C52.4626 51.5947 56.8071 48.3644 58.4344 48.196C60.0617 48.0276 60.5683 48.4716 61.6429 49.2677C63.6693 46.2823 65.1738 42.7765 67.1695 39.8064C68.5665 37.7243 70.4087 36.2087 73.0799 36.9282C74.7379 37.3875 75.398 38.5051 74.9221 40.2045C71.8057 45.1341 69.2267 50.6455 66.0642 55.514C62.9018 60.3824 64.0838 58.2697 62.7022 59.3413C60.6297 60.9641 56.3619 62.3114 55.7939 64.9905C55.2259 67.6697 55.6558 67.0114 55.7479 67.1186H55.7786ZM54.0745 66.9808C53.3223 61.3009 58.6647 60.5661 61.9653 57.8104C62.8097 57.1061 63.6694 56.1263 64.2834 55.2384C67.6147 50.4771 70.1017 44.5524 73.3409 39.6686C73.9243 38.1224 71.207 38.2448 70.1785 38.9644C67.4612 40.8168 64.9282 48.1501 62.6715 50.8905C62.5487 55.07 57.9892 55.7436 55.1952 57.7951C54.3969 58.0247 53.875 57.5348 54.1206 56.7234C54.3662 55.912 58.9257 53.8911 59.8161 53.2328C61.7964 51.7478 60.5069 49.4208 58.3884 49.9719C55.9167 50.9977 53.3837 53.2175 50.9889 54.2127C48.594 55.2078 47.6882 54.9016 45.9996 56.2641C44.3109 57.6267 43.5279 59.6475 43.5279 61.454V67.0267H54.1053L54.0745 66.9808ZM42.0695 68.6954C41.8239 68.772 41.7011 68.9557 41.655 69.2006C41.5783 69.5834 41.609 72.9362 41.7164 73.1046C41.8239 73.273 42.5147 73.3954 42.7911 73.4108C45.9074 73.671 51.649 73.671 54.75 73.4108C55.2259 73.3648 55.8093 73.3342 55.9782 72.7984C56.147 72.2625 56.2391 68.9251 55.4869 68.6954H42.0695Z" fill="#ED1C25" fill-opacity="0.5"/>
<path d="M13.3145 49.4053C14.4198 48.3337 15.5559 47.905 17.1217 48.2877C19.7008 49.39 22.1264 51.4415 24.6594 52.5438C25.5805 52.9571 26.5323 53.0643 27.4534 53.4164C33.7937 55.82 33.3178 61.2549 33.2257 67.0419C33.9779 67.3021 34.5613 67.5318 34.8836 68.3279C35.206 69.124 35.1907 72.339 35.0679 73.1657C34.945 73.9924 34.0239 74.8497 33.1643 74.9416C28.789 74.6201 23.8151 75.3549 19.5166 74.9416C18.488 74.8497 17.5823 74.0842 17.4595 73.0279C17.3367 71.9715 17.3674 68.9709 17.5823 68.4044C17.7972 67.838 18.5802 67.2868 19.317 67.0419C20.0079 62.449 15.2028 61.5764 12.332 59.3412C9.72223 57.305 8.35593 54.4268 6.7133 51.6558C4.70223 48.2724 2.12314 44.2613 0.434458 40.8014C-1.49985 36.8515 3.48944 35.6727 6.2681 37.8926C9.04675 40.1125 11.7026 46.3434 13.0996 48.7929C13.2071 48.9767 13.2992 49.191 13.3299 49.4053H13.3145ZM31.5523 66.9806V61.408C31.5523 58.6063 29.7408 56.2334 27.2539 55.1464C26.2099 54.6871 25.0893 54.5799 24.0914 54.1819C21.6965 53.1868 19.1635 50.9822 16.6919 49.9412C14.5734 49.39 13.2685 51.7171 15.2642 53.2021C17.2599 54.6871 19.2863 55.1617 20.6066 56.2793C21.9268 57.3969 20.975 58.1317 19.7776 57.7184C18.5802 57.305 14.251 54.6259 13.7137 54.136C12.7312 53.2327 12.7005 52.0692 12.3934 50.8597C10.1521 48.1346 7.58835 40.7861 4.88645 38.9336C2.18455 37.0812 1.12528 38.0916 1.724 39.6379C4.96321 44.5216 7.45018 50.4464 10.7815 55.2076C14.1128 59.9689 15.5866 58.9431 18.5955 61.1783C20.4684 62.5562 21.1899 64.6689 20.9904 66.9653H31.5677L31.5523 66.9806ZM19.5473 68.6953C18.7644 68.9249 18.9025 71.5429 18.9793 72.2624C19.0561 72.9819 19.3477 73.3341 20.2842 73.4106C23.4006 73.6709 29.1268 73.6709 32.2431 73.4106C35.3595 73.1504 33.2564 73.3188 33.3638 72.9973C33.4713 72.6758 33.4406 69.5526 33.3792 69.2005C33.3178 68.8484 33.2257 68.7718 32.9647 68.6953H19.5473Z" fill="#ED1C25" fill-opacity="0.5"/>
<path d="M36.8795 7.27368C46.9042 6.78378 53.8124 17.5617 49.0381 26.4259C44.7242 34.4633 33.4715 35.6422 27.5611 28.6917C20.6067 20.4858 26.1641 7.80951 36.8642 7.27368H36.8795ZM36.726 8.95773C28.8353 9.52418 23.9534 17.7607 27.1773 24.9562C30.9231 33.2998 42.6518 33.9428 47.3033 26.0737C51.9395 18.2047 45.8296 8.31473 36.726 8.95773Z" fill="#ED1C25" fill-opacity="0.5"/>
<path d="M38.4007 11.1008C38.9994 11.6979 39.7823 15.4028 40.1508 16.3979C40.4885 16.6888 45.1094 15.9999 46.1687 16.7347C48.2872 18.2044 42.6224 20.7152 41.993 21.7103C41.8855 22.1237 43.3439 25.5989 43.4975 26.4409C43.651 27.283 43.0983 28.3087 41.9316 27.9872C40.7649 27.6657 38.1704 24.91 37.4642 24.9559C36.7581 25.0019 34.1329 27.6198 33.2272 27.926C32.3214 28.2322 31.4157 27.7882 31.4771 26.7624C31.5385 25.7367 33.1965 22.2461 33.0583 21.695C32.3214 20.6999 28.7291 18.9699 28.5142 17.9595C28.2993 16.9491 28.8059 16.5204 29.6502 16.3979C30.4946 16.2754 34.7163 16.551 34.9159 16.3673C35.3611 15.2191 35.9291 11.9735 36.6046 11.1468C37.28 10.32 37.9708 10.6415 38.416 11.0855L38.4007 11.1008ZM35.6067 18.082C34.5935 18.3728 32.26 17.8676 31.0933 18.082L34.3171 20.4549C35.8063 21.052 33.35 25.3846 33.5496 25.5683C34.7316 25.1549 36.4203 23.0575 37.6178 23.1035C38.8152 23.1494 40.4118 25.1243 41.4403 25.5683C41.3482 24.0067 39.3832 21.7256 40.7495 20.4396L43.9734 18.0666H39.46C38.7998 18.0666 37.9555 14.622 37.7406 13.9637C37.5257 13.3054 37.7866 13.535 37.4796 13.6269C37.1726 13.7188 36.5892 17.7911 35.6374 18.0513L35.6067 18.082Z" fill="#ED1C25" fill-opacity="0.5"/>
</svg>
