<svg width="303" height="86" viewBox="0 0 303 86" fill="none" xmlns="http://www.w3.org/2000/svg">
<path fill-rule="evenodd" clip-rule="evenodd" d="M213.156 13.5446C213.156 9.67704 212.798 7.0334 212.066 5.62998C211.415 4.42239 210.308 3.8186 208.712 3.8186H206.612V23.6459H208.598C210.177 23.6459 211.301 23.0258 211.952 21.7693C212.766 20.2843 213.156 17.5427 213.156 13.5446ZM216.591 13.2835C216.591 18.0323 216.054 21.4592 214.98 23.6133C213.856 25.8326 212.001 26.9423 209.412 26.9423H203.275V0.522201H209.494C211.773 0.522201 213.45 1.24023 214.508 2.70892C215.875 4.66717 216.575 8.19203 216.575 13.2835H216.591ZM200.801 26.9423H189.308V0.522201H200.491V4.11233H192.629V11.4395H200.019V14.997H192.629V23.3685H200.801V26.9586V26.9423ZM183.008 8.02884C183.008 5.22201 181.852 3.80228 179.573 3.80228H177.082V12.3207H179.573C181.868 12.3207 183.008 10.8846 183.008 8.02884ZM187.273 26.9423H183.513C183.057 26.2569 182.829 24.3313 182.829 21.1655C182.829 18.8482 182.601 17.2979 182.161 16.5309C181.771 15.8455 180.989 15.4865 179.833 15.4865H177.082V26.926H173.761V0.522201H180.973C182.471 0.522201 183.692 0.94649 184.603 1.81139C185.824 2.98634 186.443 4.87932 186.443 7.474C186.443 9.20379 186.101 10.6562 185.433 11.8311C184.75 13.0061 183.968 13.6751 183.089 13.8383V13.9199C184.213 14.1647 185.01 14.7032 185.466 15.5518C186.036 16.6125 186.296 18.4565 186.296 21.0676C186.296 24.266 186.622 26.2243 187.289 26.9423H187.273ZM171.434 26.9423H159.957V0.522201H171.157V4.11233H163.294V11.4395H170.685V14.997H163.294V23.3685H171.434V26.9586V26.9423ZM158.231 4.19393H153.283V26.9423H149.962V4.19393H144.997V0.522201H158.248V4.19393H158.231ZM140.129 8.02884C140.129 5.22201 138.99 3.80228 136.678 3.80228H134.187V12.3207H136.678C138.99 12.3207 140.129 10.8846 140.129 8.02884ZM144.394 26.9423H140.617C140.162 26.2569 139.95 24.3313 139.95 21.1655C139.95 18.8482 139.706 17.2979 139.266 16.5309C138.892 15.8455 138.094 15.4865 136.922 15.4865H134.171V26.926H130.85V0.522201H138.062C139.559 0.522201 140.78 0.94649 141.692 1.81139C142.913 2.98634 143.531 4.87932 143.531 7.474C143.531 9.20379 143.19 10.6562 142.522 11.8311C141.838 13.0061 141.057 13.6751 140.162 13.8383V13.9199C141.301 14.1647 142.083 14.7032 142.538 15.5518C143.108 16.6125 143.401 18.4565 143.401 21.0676C143.401 24.266 143.727 26.2243 144.378 26.9423H144.394ZM124.208 17.0694L121.864 4.71613H121.815L119.292 17.0694H124.192H124.208ZM129.532 26.9423H126.08L124.762 20.4311H118.722L117.42 26.9423H113.936L119.748 0.522201H124.094L129.532 26.9423ZM112.601 26.9423H109.264V14.7359H103.127V27.0892L99.7899 26.9423V0.522201H103.127V11.0641H109.264V0.522201H112.601V26.9423ZM97.576 17.4611C97.576 20.4964 97.0225 22.8953 95.8992 24.674C94.7434 26.5343 93.0993 27.4645 90.9993 27.4645C88.7039 27.4645 87.0272 26.5507 85.9691 24.723C84.7644 22.6178 84.1621 19.0114 84.1621 13.8873C84.1621 8.76319 84.683 5.46679 85.7249 3.28008C86.783 1.09336 88.5411 0 91.0481 0C95.2806 0 97.3969 2.90474 97.3969 8.69791H94.0271C94.0271 5.02619 93.0341 3.18216 91.0481 3.18216C89.6644 3.18216 88.7365 4.09601 88.2318 5.95636C87.8086 7.52296 87.597 10.1666 87.597 13.9199C87.597 17.6732 87.8574 20.5454 88.3784 22.0467C88.883 23.5317 89.7783 24.2824 91.0155 24.2824C93.1318 24.2824 94.1899 22.014 94.1899 17.4774H97.576V17.4611Z" fill="#606161"/>
<path d="M3.69532 82.2303C1.22092 79.7498 0 76.4697 0 72.4227C0 68.3756 1.2372 65.0956 3.69532 62.5988C6.16972 60.102 9.37667 58.8455 13.3487 58.8455C16.7673 58.8455 19.7789 59.694 22.3835 61.3749L23.1324 66.6295H22.7905C22.237 64.4918 21.1463 62.8436 19.5022 61.6849C17.858 60.5263 15.7906 59.9551 13.3487 59.9551C10.1906 59.9551 7.6511 61.0974 5.69763 63.3821C3.74416 65.6667 2.7837 68.6857 2.7837 72.4064C2.7837 76.1271 3.76044 79.146 5.69763 81.4143C7.63482 83.6826 10.1906 84.8413 13.3487 84.8576C14.9603 84.8576 16.4906 84.5802 17.9394 83.9927C19.3882 83.4216 20.658 82.6219 21.7487 81.6102V75.0011C21.7487 74.4625 21.5859 74.0382 21.244 73.7445C20.9022 73.4671 20.4464 73.3202 19.844 73.3202H19.2417V72.9449H26.5347V73.3202H25.9812C25.3626 73.3202 24.8905 73.4671 24.5649 73.7445C24.2393 74.0382 24.0928 74.4462 24.1254 75.0011V81.1532C23.4742 82.0018 22.7091 82.7525 21.8138 83.4215C20.9184 84.0906 19.7301 84.6781 18.2161 85.2003C16.7022 85.7225 15.0906 85.9673 13.3162 85.9673C9.34411 85.9346 6.12088 84.6781 3.66276 82.1976L3.69532 82.2303Z" fill="#467E30"/>
<path d="M65.9782 59.7266H65.3759C64.8549 59.7266 64.3991 59.8898 64.0247 60.2325C63.634 60.5752 63.4387 60.9832 63.4061 61.489V76.2575C63.4061 79.1623 62.4945 81.5122 60.655 83.3073C58.8154 85.1023 56.3736 85.9999 53.3294 85.9999C50.2853 85.9999 47.8109 85.1186 45.9062 83.3399C44.0016 81.5611 43.0574 79.2112 43.0574 76.3065V61.6033C43.0574 60.8526 42.7318 60.3141 42.097 59.9551C41.8039 59.8082 41.4621 59.7266 41.0877 59.7266H40.4854V59.3513H48.0388V59.7266H47.4365C46.883 59.7266 46.4272 59.8898 46.0528 60.2325C45.6783 60.5752 45.483 60.9995 45.4504 61.5217V75.768C45.4504 78.4769 46.183 80.6636 47.6318 82.3281C49.0806 83.9926 51.0178 84.8249 53.4597 84.8249C55.9015 84.8249 57.8713 84.0416 59.3689 82.4587C60.8666 80.8758 61.6317 78.8033 61.6317 76.2412V61.5054C61.5991 60.9832 61.4038 60.5589 61.0294 60.2162C60.655 59.8735 60.1992 59.7103 59.6457 59.7103H59.0433V59.335H65.9293V59.7103L65.9782 59.7266Z" fill="#467E30"/>
<path d="M81.7203 85.1024C82.3715 85.1024 82.9087 84.8739 83.3808 84.417C83.8529 83.96 84.0808 83.4052 84.1133 82.7525V62.0766C84.0808 61.4238 83.8529 60.8853 83.3808 60.412C82.9087 59.9388 82.3715 59.7266 81.7203 59.7266H81.232V59.3513H89.3877V59.7266H88.8994C88.004 59.7266 87.3203 60.1183 86.8482 60.8853C86.6203 61.2606 86.5064 61.6523 86.5064 62.0766V84.3027H91.8296C93.6691 84.3027 95.0691 83.8948 96.0295 83.0788C96.99 82.2629 97.8039 81.039 98.4551 79.4234H98.8295L96.6644 85.4614H81.2157V85.086H81.7041L81.7203 85.1024Z" fill="#467E30"/>
<path d="M144.574 85.1023H145.176V85.4777H137.102V85.135H137.655C138.078 85.135 138.436 84.9718 138.729 84.6454C139.022 84.319 139.153 83.9437 139.104 83.5194L137.427 64.7528L129.613 82.1813C128.913 83.6989 128.49 84.9718 128.343 85.9836H127.969L118.446 65.275L116.851 83.5194C116.802 83.9111 116.916 84.2864 117.225 84.6128C117.518 84.9555 117.876 85.1187 118.299 85.1187H118.853V85.4614H111.625V85.086H112.227C112.927 85.086 113.53 84.8739 114.034 84.4496C114.539 84.0253 114.848 83.4542 114.946 82.7361L117.73 58.8291H118.104L128.49 81.3327L138.648 58.8291H138.99L141.855 82.7361C141.953 83.4542 142.262 84.0253 142.783 84.4496C143.304 84.8739 143.906 85.086 144.574 85.086V85.1023Z" fill="#467E30"/>
<path d="M161.813 62.5824C164.466 60.0856 167.917 58.8291 172.134 58.8291C176.35 58.8291 179.801 60.0856 182.454 62.5824C185.108 65.0792 186.443 68.3593 186.443 72.4063C186.443 76.4534 185.108 79.7335 182.454 82.2302C179.801 84.727 176.366 85.9836 172.134 85.9836C167.901 85.9836 164.466 84.727 161.813 82.2302C159.159 79.7335 157.824 76.4534 157.824 72.4063C157.824 68.3593 159.159 65.0792 161.813 62.5824ZM163.831 81.4469C165.931 83.7316 168.682 84.8739 172.117 84.8739C175.552 84.8739 178.303 83.7316 180.403 81.4469C182.503 79.1623 183.545 76.1433 183.545 72.4227C183.545 68.702 182.503 65.683 180.403 63.3984C178.303 61.1137 175.552 59.9714 172.117 59.9714C168.682 59.9714 165.931 61.1137 163.831 63.3984C161.731 65.683 160.689 68.702 160.689 72.4227C160.689 76.1433 161.731 79.1623 163.831 81.4469Z" fill="#467E30"/>
<path d="M218.675 85.1024C219.326 85.1024 219.88 84.8739 220.336 84.417C220.791 83.9601 221.036 83.4216 221.068 82.8015V73.1407H205.847V82.8015C205.847 83.4542 206.075 83.9927 206.547 84.4496C207.019 84.8903 207.573 85.1187 208.224 85.1187H208.712V85.494H200.557V85.1187H201.045C201.696 85.1187 202.25 84.8903 202.705 84.4496C203.161 84.009 203.405 83.4542 203.438 82.8015V62.0603C203.405 61.4075 203.178 60.869 202.705 60.4121C202.25 59.9715 201.696 59.743 201.045 59.743H200.557V59.3677H208.712V59.743H208.224C207.573 59.743 207.019 59.9715 206.564 60.4121C206.108 60.8527 205.864 61.4075 205.831 62.0603V72.0147H221.052V62.0603C221.019 61.1627 220.629 60.4937 219.863 60.0531C219.489 59.8572 219.098 59.7593 218.675 59.7593H218.187V59.384H226.342V59.7593H225.854C225.203 59.7593 224.649 59.9878 224.194 60.4447C223.738 60.9016 223.494 61.4565 223.461 62.1092V82.8178C223.477 83.4705 223.722 84.009 224.194 84.466C224.649 84.9066 225.203 85.135 225.854 85.135H226.342V85.5104H218.187V85.135H218.675V85.1024Z" fill="#467E30"/>
<path d="M266.372 85.1024H266.665V85.4777H258.298V85.1024H258.639C259.16 85.1024 259.551 84.9392 259.812 84.5965C260.072 84.2538 260.202 83.9437 260.202 83.65C260.202 83.3563 260.153 83.0462 260.056 82.7525L257.679 76.4045H247.635L245.144 82.7851C245.047 83.0789 244.998 83.3726 244.998 83.6663C244.998 83.9601 245.128 84.2701 245.388 84.5965C245.649 84.9392 246.04 85.1024 246.561 85.1024H246.902V85.4777H239.414V85.1024H239.756C240.375 85.1024 240.977 84.9066 241.579 84.4986C242.181 84.1069 242.654 83.5195 243.028 82.7525L251.444 62.6804C252.356 60.6732 252.828 59.384 252.828 58.8455H253.17L263.149 82.7525C263.491 83.5195 263.963 84.1069 264.565 84.4986C265.167 84.8902 265.786 85.1024 266.421 85.1024H266.372ZM248.074 75.2948H257.223L252.763 63.3168L248.074 75.2948Z" fill="#467E30"/>
<path d="M287.291 60.5099H284.914V82.7361C284.914 83.3889 285.142 83.9437 285.598 84.4006C286.054 84.8575 286.624 85.086 287.291 85.086H287.731L287.763 85.4613H279.607V85.086H280.096C280.747 85.086 281.3 84.8575 281.756 84.4169C282.212 83.9763 282.456 83.4215 282.489 82.7687V62.0602C282.456 61.4074 282.228 60.8689 281.756 60.3957C281.3 59.9388 280.747 59.7103 280.096 59.7103H279.607V59.335H289.652C291.914 59.335 293.689 59.9551 294.975 61.2116C296.261 62.4682 296.912 64.1 296.912 66.0909C296.912 68.0818 296.293 69.8279 295.072 71.2803C293.851 72.7327 292.354 73.467 290.596 73.467C290.97 73.6465 291.41 73.9892 291.914 74.4951C292.419 75.001 292.875 75.5395 293.265 76.078C295.398 79.146 296.782 81.0226 297.433 81.7243C298.084 82.426 298.54 82.9156 298.817 83.1767C299.093 83.4378 299.386 83.6989 299.712 83.9437C300.038 84.1885 300.363 84.3843 300.672 84.5475C301.389 84.8902 302.154 85.0697 302.984 85.0697V85.445H300.933C299.858 85.445 298.865 85.2492 297.954 84.8739C297.042 84.4985 296.342 84.0906 295.886 83.6826C295.431 83.2746 295.024 82.8666 294.698 82.4913C294.372 82.116 293.445 80.8268 291.931 78.6238C290.417 76.437 289.538 75.1805 289.293 74.8704C289.049 74.5604 288.789 74.2503 288.512 73.9566C287.714 73.108 286.917 72.6837 286.135 72.6837V72.3084C286.331 72.341 286.591 72.341 286.917 72.341C287.242 72.341 287.633 72.341 288.105 72.3084C291.182 72.2268 293.119 70.9376 293.917 68.4245C294.063 67.935 294.145 67.4617 294.145 67.0211V66.1889C294.096 64.5243 293.656 63.1862 292.842 62.1581C292.028 61.13 290.921 60.5915 289.521 60.5099C288.919 60.4773 288.186 60.4773 287.291 60.4773V60.5099Z" fill="#467E30"/>
<path d="M259.193 41.6292H41.5762V42.2819H259.193V41.6292Z" fill="#606161"/>
</svg>
